STARTFONT 2.1
FONT -HEBaramNemoMyeongjoche-regular-R-regular--16-16-75-c-80-iso10646-1
SIZE 16 75 75
FONTBOUNDINGBOX 16 16 0 0
STARTPROPERTIES 10
FAMILY_NAME HEBaramNemoMyeongjoche
WEIGHT_NAME regular
FONT_VERSION 1.0
COPYRIGHT Copyright © 2023 Taeyun An (WindowsTiger)
FOUNDRY PIXEL FONT MAKER
FONT_ASCENT 16
FONT_DESCENT 0
CAP_HEIGHT 16
FONT_SIZE 16
X_HEIGHT 11
ENDPROPERTIES
CHARS 19073
STARTCHAR U+0020
ENCODING 32
SWIDTH 500 0
DWIDTH 8 0
BBX 8 0 0 0
BITMAP

ENDCHAR
STARTCHAR U+f801
ENCODING 63489
SWIDTH 500 0
DWIDTH 8 0
BBX 8 14 0 0
BITMAP
7E00
8100
A500
A500
8100
8100
BD00
9900
8100
7E00
0000
0000
0000
0000
ENDCHAR
STARTCHAR U+f802
ENCODING 63490
SWIDTH 500 0
DWIDTH 8 0
BBX 8 14 0 0
BITMAP
7E00
FF00
DB00
DB00
FF00
FF00
C300
E700
FF00
7E00
0000
0000
0000
0000
ENDCHAR
STARTCHAR U+f803
ENCODING 63491
SWIDTH 500 0
DWIDTH 8 0
BBX 8 12 0 0
BITMAP
3600
7F00
7F00
7F00
7F00
3E00
1C00
0800
0000
0000
0000
0000
ENDCHAR
STARTCHAR U+f804
ENCODING 63492
SWIDTH 500 0
DWIDTH 8 0
BBX 8 12 0 0
BITMAP
0800
1C00
3E00
7F00
3E00
1C00
0800
0000
0000
0000
0000
0000
ENDCHAR
STARTCHAR U+f805
ENCODING 63493
SWIDTH 500 0
DWIDTH 8 0
BBX 8 13 0 0
BITMAP
1800
3C00
3C00
E700
E700
E700
1800
1800
3C00
0000
0000
0000
0000
ENDCHAR
STARTCHAR U+f806
ENCODING 63494
SWIDTH 500 0
DWIDTH 8 0
BBX 8 13 0 0
BITMAP
1800
3C00
7E00
FF00
FF00
7E00
1800
1800
3C00
0000
0000
0000
0000
ENDCHAR
STARTCHAR U+f807
ENCODING 63495
SWIDTH 500 0
DWIDTH 8 0
BBX 8 10 0 0
BITMAP
1800
3C00
3C00
1800
0000
0000
0000
0000
0000
0000
ENDCHAR
STARTCHAR U+f808
ENCODING 63496
SWIDTH 500 0
DWIDTH 8 0
BBX 8 15 0 0
BITMAP
FF00
FF00
FF00
FF00
FF00
E700
C300
C300
E700
FF00
FF00
FF00
FF00
FF00
0000
ENDCHAR
STARTCHAR U+f809
ENCODING 63497
SWIDTH 500 0
DWIDTH 8 0
BBX 8 11 0 0
BITMAP
3C00
6600
4200
4200
6600
3C00
0000
0000
0000
0000
0000
ENDCHAR
STARTCHAR U+f80a
ENCODING 63498
SWIDTH 500 0
DWIDTH 8 0
BBX 8 15 0 0
BITMAP
FF00
FF00
FF00
FF00
C300
9900
BD00
BD00
9900
C300
FF00
FF00
FF00
FF00
0000
ENDCHAR
STARTCHAR U+f80b
ENCODING 63499
SWIDTH 500 0
DWIDTH 8 0
BBX 8 13 0 0
BITMAP
0F00
0700
0D00
1900
3C00
6600
6600
6600
3C00
0000
0000
0000
0000
ENDCHAR
STARTCHAR U+f80c
ENCODING 63500
SWIDTH 500 0
DWIDTH 8 0
BBX 8 13 0 0
BITMAP
3C00
6600
6600
6600
3C00
1800
7E00
1800
1800
0000
0000
0000
0000
ENDCHAR
STARTCHAR U+f80d
ENCODING 63501
SWIDTH 500 0
DWIDTH 8 0
BBX 8 13 0 0
BITMAP
3000
3800
3400
3200
3200
3400
7000
F000
E000
0000
0000
0000
0000
ENDCHAR
STARTCHAR U+f80e
ENCODING 63502
SWIDTH 500 0
DWIDTH 8 0
BBX 8 13 0 0
BITMAP
7F00
6300
7F00
6300
6300
6300
6700
E700
E600
C000
0000
0000
0000
ENDCHAR
STARTCHAR U+f80f
ENCODING 63503
SWIDTH 500 0
DWIDTH 8 0
BBX 8 13 0 0
BITMAP
1800
1800
DB00
3C00
E700
3C00
DB00
1800
1800
0000
0000
0000
0000
ENDCHAR
STARTCHAR U+f810
ENCODING 63504
SWIDTH 500 0
DWIDTH 8 0
BBX 8 13 0 0
BITMAP
4000
6000
7000
7C00
7F00
7C00
7000
6000
4000
0000
0000
0000
0000
ENDCHAR
STARTCHAR U+f811
ENCODING 63505
SWIDTH 500 0
DWIDTH 8 0
BBX 8 13 0 0
BITMAP
0100
0300
0700
1F00
7F00
1F00
0700
0300
0100
0000
0000
0000
0000
ENDCHAR
STARTCHAR U+f812
ENCODING 63506
SWIDTH 500 0
DWIDTH 8 0
BBX 8 13 0 0
BITMAP
1800
3C00
7E00
1800
1800
1800
7E00
3C00
1800
0000
0000
0000
0000
ENDCHAR
STARTCHAR U+f813
ENCODING 63507
SWIDTH 500 0
DWIDTH 8 0
BBX 8 13 0 0
BITMAP
6600
6600
6600
6600
6600
6600
0000
6600
6600
0000
0000
0000
0000
ENDCHAR
STARTCHAR U+f814
ENCODING 63508
SWIDTH 500 0
DWIDTH 8 0
BBX 8 13 0 0
BITMAP
7F00
DB00
DB00
DB00
7B00
1B00
1B00
1B00
1B00
0000
0000
0000
0000
ENDCHAR
STARTCHAR U+f815
ENCODING 63509
SWIDTH 500 0
DWIDTH 8 0
BBX 8 14 0 0
BITMAP
3E00
6300
3000
1C00
3600
6300
6300
3600
1C00
0600
6300
3E00
0000
0000
ENDCHAR
STARTCHAR U+f816
ENCODING 63510
SWIDTH 500 0
DWIDTH 8 0
BBX 8 7 0 0
BITMAP
7F00
7F00
7F00
0000
0000
0000
0000
ENDCHAR
STARTCHAR U+f817
ENCODING 63511
SWIDTH 500 0
DWIDTH 8 0
BBX 8 13 0 0
BITMAP
1800
3C00
7E00
1800
1800
1800
7E00
3C00
1800
7E00
0000
0000
0000
ENDCHAR
STARTCHAR U+f818
ENCODING 63512
SWIDTH 500 0
DWIDTH 8 0
BBX 8 13 0 0
BITMAP
1800
3C00
7E00
1800
1800
1800
1800
1800
1800
0000
0000
0000
0000
ENDCHAR
STARTCHAR U+f819
ENCODING 63513
SWIDTH 500 0
DWIDTH 8 0
BBX 8 13 0 0
BITMAP
1800
1800
1800
1800
1800
1800
7E00
3C00
1800
0000
0000
0000
0000
ENDCHAR
STARTCHAR U+f81a
ENCODING 63514
SWIDTH 500 0
DWIDTH 8 0
BBX 8 11 0 0
BITMAP
0C00
0600
7F00
0600
0C00
0000
0000
0000
0000
0000
0000
ENDCHAR
STARTCHAR U+f81b
ENCODING 63515
SWIDTH 500 0
DWIDTH 8 0
BBX 8 11 0 0
BITMAP
1800
3000
7F00
3000
1800
0000
0000
0000
0000
0000
0000
ENDCHAR
STARTCHAR U+f81c
ENCODING 63516
SWIDTH 500 0
DWIDTH 8 0
BBX 8 10 0 0
BITMAP
6000
6000
6000
7F00
0000
0000
0000
0000
0000
0000
ENDCHAR
STARTCHAR U+f81d
ENCODING 63517
SWIDTH 500 0
DWIDTH 8 0
BBX 8 11 0 0
BITMAP
2400
6600
FF00
6600
2400
0000
0000
0000
0000
0000
0000
ENDCHAR
STARTCHAR U+f81e
ENCODING 63518
SWIDTH 500 0
DWIDTH 8 0
BBX 8 12 0 0
BITMAP
0800
1C00
1C00
3E00
3E00
7F00
7F00
0000
0000
0000
0000
0000
ENDCHAR
STARTCHAR U+f81f
ENCODING 63519
SWIDTH 500 0
DWIDTH 8 0
BBX 8 12 0 0
BITMAP
7F00
7F00
3E00
3E00
1C00
1C00
0800
0000
0000
0000
0000
0000
ENDCHAR
STARTCHAR U+0020
ENCODING 32
SWIDTH 500 0
DWIDTH 8 0
BBX 8 0 0 0
BITMAP

ENDCHAR
STARTCHAR U+0021
ENCODING 33
SWIDTH 500 0
DWIDTH 8 0
BBX 8 13 0 0
BITMAP
1800
3C00
3C00
3C00
1800
1800
0000
1800
1800
0000
0000
0000
0000
ENDCHAR
STARTCHAR U+0022
ENCODING 34
SWIDTH 500 0
DWIDTH 8 0
BBX 8 14 0 0
BITMAP
6600
6600
6600
2400
0000
0000
0000
0000
0000
0000
0000
0000
0000
0000
ENDCHAR
STARTCHAR U+0023
ENCODING 35
SWIDTH 500 0
DWIDTH 8 0
BBX 8 13 0 0
BITMAP
3600
3600
7F00
3600
3600
3600
7F00
3600
3600
0000
0000
0000
0000
ENDCHAR
STARTCHAR U+0024
ENCODING 36
SWIDTH 500 0
DWIDTH 8 0
BBX 8 15 0 0
BITMAP
0C00
0C00
3E00
6300
6100
6000
3E00
0300
4300
6300
3E00
0C00
0C00
0000
0000
ENDCHAR
STARTCHAR U+0025
ENCODING 37
SWIDTH 500 0
DWIDTH 8 0
BBX 8 11 0 0
BITMAP
6100
6300
0600
0C00
1800
3300
6300
0000
0000
0000
0000
ENDCHAR
STARTCHAR U+0026
ENCODING 38
SWIDTH 500 0
DWIDTH 8 0
BBX 8 13 0 0
BITMAP
1C00
3600
3600
1C00
3B00
6E00
6600
6600
3B00
0000
0000
0000
0000
ENDCHAR
STARTCHAR U+0027
ENCODING 39
SWIDTH 500 0
DWIDTH 8 0
BBX 8 14 0 0
BITMAP
3000
3000
3000
6000
0000
0000
0000
0000
0000
0000
0000
0000
0000
0000
ENDCHAR
STARTCHAR U+0028
ENCODING 40
SWIDTH 500 0
DWIDTH 8 0
BBX 8 13 0 0
BITMAP
0C00
1800
3000
3000
3000
3000
3000
1800
0C00
0000
0000
0000
0000
ENDCHAR
STARTCHAR U+0029
ENCODING 41
SWIDTH 500 0
DWIDTH 8 0
BBX 8 13 0 0
BITMAP
1800
0C00
0600
0600
0600
0600
0600
0C00
1800
0000
0000
0000
0000
ENDCHAR
STARTCHAR U+002a
ENCODING 42
SWIDTH 500 0
DWIDTH 8 0
BBX 8 11 0 0
BITMAP
6600
3C00
FF00
3C00
6600
0000
0000
0000
0000
0000
0000
ENDCHAR
STARTCHAR U+002b
ENCODING 43
SWIDTH 500 0
DWIDTH 8 0
BBX 8 12 0 0
BITMAP
1800
1800
1800
FF00
1800
1800
1800
0000
0000
0000
0000
0000
ENDCHAR
STARTCHAR U+002c
ENCODING 44
SWIDTH 500 0
DWIDTH 8 0
BBX 8 7 0 0
BITMAP
1800
1800
1800
3000
0000
0000
0000
ENDCHAR
STARTCHAR U+002d
ENCODING 45
SWIDTH 500 0
DWIDTH 8 0
BBX 8 9 0 0
BITMAP
7F00
0000
0000
0000
0000
0000
0000
0000
0000
ENDCHAR
STARTCHAR U+002e
ENCODING 46
SWIDTH 500 0
DWIDTH 8 0
BBX 8 6 0 0
BITMAP
1800
1800
0000
0000
0000
0000
ENDCHAR
STARTCHAR U+002f
ENCODING 47
SWIDTH 500 0
DWIDTH 8 0
BBX 8 13 0 0
BITMAP
0100
0300
0600
0C00
1800
3000
6000
4000
0000
0000
0000
0000
0000
ENDCHAR
STARTCHAR U+0030
ENCODING 48
SWIDTH 500 0
DWIDTH 8 0
BBX 8 14 0 0
BITMAP
3E00
6300
6300
6700
6F00
7B00
7300
6300
6300
6300
3E00
0000
0000
0000
ENDCHAR
STARTCHAR U+0031
ENCODING 49
SWIDTH 500 0
DWIDTH 8 0
BBX 8 14 0 0
BITMAP
0C00
1C00
3C00
0C00
0C00
0C00
0C00
0C00
0C00
0C00
3F00
0000
0000
0000
ENDCHAR
STARTCHAR U+0032
ENCODING 50
SWIDTH 500 0
DWIDTH 8 0
BBX 8 14 0 0
BITMAP
3E00
6300
0300
0300
0600
0C00
1800
3000
6000
6300
7F00
0000
0000
0000
ENDCHAR
STARTCHAR U+0033
ENCODING 51
SWIDTH 500 0
DWIDTH 8 0
BBX 8 14 0 0
BITMAP
3E00
6300
0300
0300
0300
1E00
0300
0300
0300
6300
3E00
0000
0000
0000
ENDCHAR
STARTCHAR U+0034
ENCODING 52
SWIDTH 500 0
DWIDTH 8 0
BBX 8 14 0 0
BITMAP
0600
0E00
1E00
3600
6600
6600
7F00
0600
0600
0600
0F00
0000
0000
0000
ENDCHAR
STARTCHAR U+0035
ENCODING 53
SWIDTH 500 0
DWIDTH 8 0
BBX 8 14 0 0
BITMAP
7F00
6000
6000
6000
6000
7E00
0300
0300
0300
6300
3E00
0000
0000
0000
ENDCHAR
STARTCHAR U+0036
ENCODING 54
SWIDTH 500 0
DWIDTH 8 0
BBX 8 14 0 0
BITMAP
1C00
3000
6000
6000
6000
7E00
6300
6300
6300
6300
3E00
0000
0000
0000
ENDCHAR
STARTCHAR U+0037
ENCODING 55
SWIDTH 500 0
DWIDTH 8 0
BBX 8 14 0 0
BITMAP
7F00
6300
0300
0300
0600
0C00
1800
1800
1800
1800
1800
0000
0000
0000
ENDCHAR
STARTCHAR U+0038
ENCODING 56
SWIDTH 500 0
DWIDTH 8 0
BBX 8 14 0 0
BITMAP
3E00
6300
6300
6300
6300
3E00
6300
6300
6300
6300
3E00
0000
0000
0000
ENDCHAR
STARTCHAR U+0039
ENCODING 57
SWIDTH 500 0
DWIDTH 8 0
BBX 8 14 0 0
BITMAP
3E00
6300
6300
6300
6300
3F00
0300
0300
0300
0600
3C00
0000
0000
0000
ENDCHAR
STARTCHAR U+003a
ENCODING 58
SWIDTH 500 0
DWIDTH 8 0
BBX 8 12 0 0
BITMAP
1800
1800
0000
0000
0000
1800
1800
0000
0000
0000
0000
0000
ENDCHAR
STARTCHAR U+003b
ENCODING 59
SWIDTH 500 0
DWIDTH 8 0
BBX 8 12 0 0
BITMAP
1800
1800
0000
0000
0000
1800
1800
3000
0000
0000
0000
0000
ENDCHAR
STARTCHAR U+003c
ENCODING 60
SWIDTH 500 0
DWIDTH 8 0
BBX 8 13 0 0
BITMAP
0600
0C00
1800
3000
6000
3000
1800
0C00
0600
0000
0000
0000
0000
ENDCHAR
STARTCHAR U+003d
ENCODING 61
SWIDTH 500 0
DWIDTH 8 0
BBX 8 10 0 0
BITMAP
7E00
0000
0000
7E00
0000
0000
0000
0000
0000
0000
ENDCHAR
STARTCHAR U+003e
ENCODING 62
SWIDTH 500 0
DWIDTH 8 0
BBX 8 13 0 0
BITMAP
6000
3000
1800
0C00
0600
0C00
1800
3000
6000
0000
0000
0000
0000
ENDCHAR
STARTCHAR U+003f
ENCODING 63
SWIDTH 500 0
DWIDTH 8 0
BBX 8 13 0 0
BITMAP
3E00
6300
6300
0600
0C00
0C00
0000
0C00
0C00
0000
0000
0000
0000
ENDCHAR
STARTCHAR U+0040
ENCODING 64
SWIDTH 500 0
DWIDTH 8 0
BBX 8 14 0 0
BITMAP
3E00
6300
6300
6300
6F00
6F00
6F00
6F00
6E00
6000
3E00
0000
0000
0000
ENDCHAR
STARTCHAR U+0041
ENCODING 65
SWIDTH 500 0
DWIDTH 8 0
BBX 8 14 0 0
BITMAP
0800
1C00
3600
6300
6300
6300
7F00
6300
6300
6300
6300
0000
0000
0000
ENDCHAR
STARTCHAR U+0042
ENCODING 66
SWIDTH 500 0
DWIDTH 8 0
BBX 8 14 0 0
BITMAP
7E00
3300
3300
3300
3300
3E00
3300
3300
3300
3300
7E00
0000
0000
0000
ENDCHAR
STARTCHAR U+0043
ENCODING 67
SWIDTH 500 0
DWIDTH 8 0
BBX 8 14 0 0
BITMAP
1E00
3300
6100
6000
6000
6000
6000
6000
6100
3300
1E00
0000
0000
0000
ENDCHAR
STARTCHAR U+0044
ENCODING 68
SWIDTH 500 0
DWIDTH 8 0
BBX 8 14 0 0
BITMAP
7C00
3600
3300
3300
3300
3300
3300
3300
3300
3600
7C00
0000
0000
0000
ENDCHAR
STARTCHAR U+0045
ENCODING 69
SWIDTH 500 0
DWIDTH 8 0
BBX 8 14 0 0
BITMAP
7F00
3300
3100
3000
3200
3E00
3200
3000
3100
3300
7F00
0000
0000
0000
ENDCHAR
STARTCHAR U+0046
ENCODING 70
SWIDTH 500 0
DWIDTH 8 0
BBX 8 14 0 0
BITMAP
7F00
3300
3100
3000
3200
3E00
3200
3000
3000
3000
7800
0000
0000
0000
ENDCHAR
STARTCHAR U+0047
ENCODING 71
SWIDTH 500 0
DWIDTH 8 0
BBX 8 14 0 0
BITMAP
1E00
3300
6100
6000
6000
6F00
6300
6300
6300
3300
1D00
0000
0000
0000
ENDCHAR
STARTCHAR U+0048
ENCODING 72
SWIDTH 500 0
DWIDTH 8 0
BBX 8 14 0 0
BITMAP
6300
6300
6300
6300
6300
7F00
6300
6300
6300
6300
6300
0000
0000
0000
ENDCHAR
STARTCHAR U+0049
ENCODING 73
SWIDTH 500 0
DWIDTH 8 0
BBX 8 14 0 0
BITMAP
3C00
1800
1800
1800
1800
1800
1800
1800
1800
1800
3C00
0000
0000
0000
ENDCHAR
STARTCHAR U+004a
ENCODING 74
SWIDTH 500 0
DWIDTH 8 0
BBX 8 14 0 0
BITMAP
0F00
0600
0600
0600
0600
0600
0600
0600
6600
6600
3C00
0000
0000
0000
ENDCHAR
STARTCHAR U+004b
ENCODING 75
SWIDTH 500 0
DWIDTH 8 0
BBX 8 14 0 0
BITMAP
7300
3300
3600
3600
3C00
3C00
3C00
3600
3600
3300
7300
0000
0000
0000
ENDCHAR
STARTCHAR U+004c
ENCODING 76
SWIDTH 500 0
DWIDTH 8 0
BBX 8 14 0 0
BITMAP
7800
3000
3000
3000
3000
3000
3000
3000
3100
3300
7F00
0000
0000
0000
ENDCHAR
STARTCHAR U+004d
ENCODING 77
SWIDTH 500 0
DWIDTH 8 0
BBX 8 14 0 0
BITMAP
6300
7700
7F00
6B00
6300
6300
6300
6300
6300
6300
6300
0000
0000
0000
ENDCHAR
STARTCHAR U+004e
ENCODING 78
SWIDTH 500 0
DWIDTH 8 0
BBX 8 14 0 0
BITMAP
6300
6300
6300
7300
7B00
6F00
6700
6300
6300
6300
6300
0000
0000
0000
ENDCHAR
STARTCHAR U+004f
ENCODING 79
SWIDTH 500 0
DWIDTH 8 0
BBX 8 14 0 0
BITMAP
1C00
3600
6300
6300
6300
6300
6300
6300
6300
3600
1C00
0000
0000
0000
ENDCHAR
STARTCHAR U+0050
ENCODING 80
SWIDTH 500 0
DWIDTH 8 0
BBX 8 14 0 0
BITMAP
7E00
3300
3300
3300
3300
3E00
3000
3000
3000
3000
7800
0000
0000
0000
ENDCHAR
STARTCHAR U+0051
ENCODING 81
SWIDTH 500 0
DWIDTH 8 0
BBX 8 14 0 0
BITMAP
3E00
6300
6300
6300
6300
6300
6300
6B00
6F00
3E00
0600
0700
0000
0000
ENDCHAR
STARTCHAR U+0052
ENCODING 82
SWIDTH 500 0
DWIDTH 8 0
BBX 8 14 0 0
BITMAP
7E00
3300
3300
3300
3300
3E00
3600
3300
3300
3300
7300
0000
0000
0000
ENDCHAR
STARTCHAR U+0053
ENCODING 83
SWIDTH 500 0
DWIDTH 8 0
BBX 8 14 0 0
BITMAP
3E00
6300
6300
6000
3000
1C00
0600
0300
6300
6300
3E00
0000
0000
0000
ENDCHAR
STARTCHAR U+0054
ENCODING 84
SWIDTH 500 0
DWIDTH 8 0
BBX 8 14 0 0
BITMAP
FF00
9900
1800
1800
1800
1800
1800
1800
1800
1800
3C00
0000
0000
0000
ENDCHAR
STARTCHAR U+0055
ENCODING 85
SWIDTH 500 0
DWIDTH 8 0
BBX 8 14 0 0
BITMAP
6300
6300
6300
6300
6300
6300
6300
6300
6300
6300
3E00
0000
0000
0000
ENDCHAR
STARTCHAR U+0056
ENCODING 86
SWIDTH 500 0
DWIDTH 8 0
BBX 8 14 0 0
BITMAP
6300
6300
6300
6300
6300
6300
6300
6300
3600
1C00
0800
0000
0000
0000
ENDCHAR
STARTCHAR U+0057
ENCODING 87
SWIDTH 500 0
DWIDTH 8 0
BBX 8 14 0 0
BITMAP
6300
6300
6300
6300
6300
6300
6300
6B00
7F00
7700
6300
0000
0000
0000
ENDCHAR
STARTCHAR U+0058
ENCODING 88
SWIDTH 500 0
DWIDTH 8 0
BBX 8 14 0 0
BITMAP
6300
6300
6300
6300
3600
1C00
3600
6300
6300
6300
6300
0000
0000
0000
ENDCHAR
STARTCHAR U+0059
ENCODING 89
SWIDTH 500 0
DWIDTH 8 0
BBX 8 14 0 0
BITMAP
6600
6600
6600
6600
6600
3C00
1800
1800
1800
1800
3C00
0000
0000
0000
ENDCHAR
STARTCHAR U+005a
ENCODING 90
SWIDTH 500 0
DWIDTH 8 0
BBX 8 14 0 0
BITMAP
7F00
6300
4300
0600
0C00
1800
3000
6000
6100
6300
7F00
0000
0000
0000
ENDCHAR
STARTCHAR U+005b
ENCODING 91
SWIDTH 500 0
DWIDTH 8 0
BBX 8 13 0 0
BITMAP
3C00
3000
3000
3000
3000
3000
3000
3000
3C00
0000
0000
0000
0000
ENDCHAR
STARTCHAR U+005c
ENCODING 92
SWIDTH 500 0
DWIDTH 8 0
BBX 8 13 0 0
BITMAP
4000
6000
7000
3800
1C00
0E00
0700
0300
0100
0000
0000
0000
0000
ENDCHAR
STARTCHAR U+005d
ENCODING 93
SWIDTH 500 0
DWIDTH 8 0
BBX 8 13 0 0
BITMAP
3C00
0C00
0C00
0C00
0C00
0C00
0C00
0C00
3C00
0000
0000
0000
0000
ENDCHAR
STARTCHAR U+005e
ENCODING 94
SWIDTH 500 0
DWIDTH 8 0
BBX 8 15 0 0
BITMAP
0800
1C00
3600
6300
0000
0000
0000
0000
0000
0000
0000
0000
0000
0000
0000
ENDCHAR
STARTCHAR U+005f
ENCODING 95
SWIDTH 500 0
DWIDTH 8 0
BBX 8 3 0 0
BITMAP
FF00
0000
0000
ENDCHAR
STARTCHAR U+0060
ENCODING 96
SWIDTH 500 0
DWIDTH 8 0
BBX 8 15 0 0
BITMAP
1800
1800
0C00
0000
0000
0000
0000
0000
0000
0000
0000
0000
0000
0000
0000
ENDCHAR
STARTCHAR U+0061
ENCODING 97
SWIDTH 500 0
DWIDTH 8 0
BBX 8 11 0 0
BITMAP
3C00
0600
0600
3E00
6600
6600
6600
3B00
0000
0000
0000
ENDCHAR
STARTCHAR U+0062
ENCODING 98
SWIDTH 500 0
DWIDTH 8 0
BBX 8 14 0 0
BITMAP
7000
3000
3000
3000
3C00
3600
3300
3300
3300
3300
6E00
0000
0000
0000
ENDCHAR
STARTCHAR U+0063
ENCODING 99
SWIDTH 500 0
DWIDTH 8 0
BBX 8 11 0 0
BITMAP
3E00
6300
6000
6000
6000
6000
6300
3E00
0000
0000
0000
ENDCHAR
STARTCHAR U+0064
ENCODING 100
SWIDTH 500 0
DWIDTH 8 0
BBX 8 14 0 0
BITMAP
0E00
0600
0600
0600
1E00
3600
6600
6600
6600
6600
3B00
0000
0000
0000
ENDCHAR
STARTCHAR U+0065
ENCODING 101
SWIDTH 500 0
DWIDTH 8 0
BBX 8 11 0 0
BITMAP
3E00
6300
6300
7F00
6000
6000
6300
3E00
0000
0000
0000
ENDCHAR
STARTCHAR U+0066
ENCODING 102
SWIDTH 500 0
DWIDTH 8 0
BBX 8 14 0 0
BITMAP
1C00
3600
3200
3000
3000
7C00
3000
3000
3000
3000
7800
0000
0000
0000
ENDCHAR
STARTCHAR U+0067
ENCODING 103
SWIDTH 500 0
DWIDTH 8 0
BBX 8 11 0 0
BITMAP
3B00
6600
6600
6600
6600
3E00
0600
0600
6600
3C00
0000
ENDCHAR
STARTCHAR U+0068
ENCODING 104
SWIDTH 500 0
DWIDTH 8 0
BBX 8 14 0 0
BITMAP
7000
3000
3000
3000
3600
3B00
3300
3300
3300
3300
7300
0000
0000
0000
ENDCHAR
STARTCHAR U+0069
ENCODING 105
SWIDTH 500 0
DWIDTH 8 0
BBX 8 14 0 0
BITMAP
0C00
0C00
0000
1C00
0C00
0C00
0C00
0C00
0C00
0C00
1E00
0000
0000
0000
ENDCHAR
STARTCHAR U+006a
ENCODING 106
SWIDTH 500 0
DWIDTH 8 0
BBX 8 14 0 0
BITMAP
0600
0600
0000
0E00
0600
0600
0600
0600
0600
0600
6600
6600
3C00
0000
ENDCHAR
STARTCHAR U+006b
ENCODING 107
SWIDTH 500 0
DWIDTH 8 0
BBX 8 14 0 0
BITMAP
7000
3000
3000
3000
3300
3600
3C00
3600
3300
3300
7300
0000
0000
0000
ENDCHAR
STARTCHAR U+006c
ENCODING 108
SWIDTH 500 0
DWIDTH 8 0
BBX 8 14 0 0
BITMAP
1C00
0C00
0C00
0C00
0C00
0C00
0C00
0C00
0C00
0C00
1E00
0000
0000
0000
ENDCHAR
STARTCHAR U+006d
ENCODING 109
SWIDTH 500 0
DWIDTH 8 0
BBX 8 11 0 0
BITMAP
2200
7F00
6B00
6B00
6B00
6B00
6B00
6B00
0000
0000
0000
ENDCHAR
STARTCHAR U+006e
ENCODING 110
SWIDTH 500 0
DWIDTH 8 0
BBX 8 11 0 0
BITMAP
6E00
3300
3300
3300
3300
3300
3300
3300
0000
0000
0000
ENDCHAR
STARTCHAR U+006f
ENCODING 111
SWIDTH 500 0
DWIDTH 8 0
BBX 8 11 0 0
BITMAP
3E00
6300
6300
6300
6300
6300
6300
3E00
0000
0000
0000
ENDCHAR
STARTCHAR U+0070
ENCODING 112
SWIDTH 500 0
DWIDTH 8 0
BBX 8 11 0 0
BITMAP
6E00
3300
3300
3300
3300
3300
3E00
3000
3000
7800
0000
ENDCHAR
STARTCHAR U+0071
ENCODING 113
SWIDTH 500 0
DWIDTH 8 0
BBX 8 11 0 0
BITMAP
3B00
6600
6600
6600
6600
6600
3E00
0600
0600
0F00
0000
ENDCHAR
STARTCHAR U+0072
ENCODING 114
SWIDTH 500 0
DWIDTH 8 0
BBX 8 11 0 0
BITMAP
6E00
3B00
3300
3000
3000
3000
3000
7800
0000
0000
0000
ENDCHAR
STARTCHAR U+0073
ENCODING 115
SWIDTH 500 0
DWIDTH 8 0
BBX 8 11 0 0
BITMAP
3E00
6300
6000
3800
0E00
0300
6300
3E00
0000
0000
0000
ENDCHAR
STARTCHAR U+0074
ENCODING 116
SWIDTH 500 0
DWIDTH 8 0
BBX 8 13 0 0
BITMAP
1800
1800
1800
7E00
1800
1800
1800
1800
1B00
0E00
0000
0000
0000
ENDCHAR
STARTCHAR U+0075
ENCODING 117
SWIDTH 500 0
DWIDTH 8 0
BBX 8 11 0 0
BITMAP
6600
6600
6600
6600
6600
6600
6600
3B00
0000
0000
0000
ENDCHAR
STARTCHAR U+0076
ENCODING 118
SWIDTH 500 0
DWIDTH 8 0
BBX 8 11 0 0
BITMAP
6300
6300
6300
6300
6300
3600
1C00
0800
0000
0000
0000
ENDCHAR
STARTCHAR U+0077
ENCODING 119
SWIDTH 500 0
DWIDTH 8 0
BBX 8 11 0 0
BITMAP
6300
6300
6300
6300
6300
6B00
7F00
3600
0000
0000
0000
ENDCHAR
STARTCHAR U+0078
ENCODING 120
SWIDTH 500 0
DWIDTH 8 0
BBX 8 11 0 0
BITMAP
6300
6300
3600
1C00
1C00
3600
6300
6300
0000
0000
0000
ENDCHAR
STARTCHAR U+0079
ENCODING 121
SWIDTH 500 0
DWIDTH 8 0
BBX 8 11 0 0
BITMAP
6300
6300
6300
6300
6300
3F00
0300
0300
0600
3C00
0000
ENDCHAR
STARTCHAR U+007a
ENCODING 122
SWIDTH 500 0
DWIDTH 8 0
BBX 8 11 0 0
BITMAP
7F00
6300
0600
0C00
1800
3000
6300
7F00
0000
0000
0000
ENDCHAR
STARTCHAR U+007b
ENCODING 123
SWIDTH 500 0
DWIDTH 8 0
BBX 8 13 0 0
BITMAP
0E00
1800
1800
1800
7000
1800
1800
1800
0E00
0000
0000
0000
0000
ENDCHAR
STARTCHAR U+007c
ENCODING 124
SWIDTH 500 0
DWIDTH 8 0
BBX 8 13 0 0
BITMAP
1800
1800
1800
1800
0000
1800
1800
1800
1800
0000
0000
0000
0000
ENDCHAR
STARTCHAR U+007d
ENCODING 125
SWIDTH 500 0
DWIDTH 8 0
BBX 8 13 0 0
BITMAP
7000
1800
1800
1800
0E00
1800
1800
1800
7000
0000
0000
0000
0000
ENDCHAR
STARTCHAR U+007e
ENCODING 126
SWIDTH 500 0
DWIDTH 8 0
BBX 8 13 0 0
BITMAP
3B00
6E00
0000
0000
0000
0000
0000
0000
0000
0000
0000
0000
0000
ENDCHAR
STARTCHAR U+2302
ENCODING 8962
SWIDTH 500 0
DWIDTH 8 0
BBX 8 0 0 0
BITMAP

ENDCHAR
STARTCHAR U+f880
ENCODING 63616
SWIDTH 500 0
DWIDTH 8 0
BBX 8 12 0 0
BITMAP
3C00
6600
C200
C000
C200
6600
3C00
1800
0E00
0C00
7800
0000
ENDCHAR
STARTCHAR U+f881
ENCODING 63617
SWIDTH 500 0
DWIDTH 8 0
BBX 8 13 0 0
BITMAP
6600
6600
0000
6600
6600
6600
6600
6600
3B00
0000
0000
0000
0000
ENDCHAR
STARTCHAR U+f882
ENCODING 63618
SWIDTH 500 0
DWIDTH 8 0
BBX 8 14 0 0
BITMAP
0600
0C00
1800
0000
3E00
6300
7F00
6000
6300
3E00
0000
0000
0000
0000
ENDCHAR
STARTCHAR U+f883
ENCODING 63619
SWIDTH 500 0
DWIDTH 8 0
BBX 8 14 0 0
BITMAP
0800
1C00
3600
0000
3C00
0600
3E00
6600
6600
3B00
0000
0000
0000
0000
ENDCHAR
STARTCHAR U+f884
ENCODING 63620
SWIDTH 500 0
DWIDTH 8 0
BBX 8 13 0 0
BITMAP
6600
6600
0000
3C00
0600
3E00
6600
6600
3B00
0000
0000
0000
0000
ENDCHAR
STARTCHAR U+f885
ENCODING 63621
SWIDTH 500 0
DWIDTH 8 0
BBX 8 14 0 0
BITMAP
3000
1800
0C00
0000
3C00
0600
3E00
6600
6600
3B00
0000
0000
0000
0000
ENDCHAR
STARTCHAR U+f886
ENCODING 63622
SWIDTH 500 0
DWIDTH 8 0
BBX 8 14 0 0
BITMAP
1C00
3600
1C00
0000
3C00
0600
3E00
6600
6600
3B00
0000
0000
0000
0000
ENDCHAR
STARTCHAR U+f887
ENCODING 63623
SWIDTH 500 0
DWIDTH 8 0
BBX 8 11 0 0
BITMAP
3C00
6600
6000
6600
3C00
0C00
0600
3C00
0000
0000
0000
ENDCHAR
STARTCHAR U+f888
ENCODING 63624
SWIDTH 500 0
DWIDTH 8 0
BBX 8 14 0 0
BITMAP
0800
1C00
3600
0000
3E00
6300
7F00
6000
6300
3E00
0000
0000
0000
0000
ENDCHAR
STARTCHAR U+f889
ENCODING 63625
SWIDTH 500 0
DWIDTH 8 0
BBX 8 13 0 0
BITMAP
6600
6600
0000
3E00
6300
7F00
6000
6300
3E00
0000
0000
0000
0000
ENDCHAR
STARTCHAR U+f88a
ENCODING 63626
SWIDTH 500 0
DWIDTH 8 0
BBX 8 14 0 0
BITMAP
3000
1800
0C00
0000
3E00
6300
7F00
6000
6300
3E00
0000
0000
0000
0000
ENDCHAR
STARTCHAR U+f88b
ENCODING 63627
SWIDTH 500 0
DWIDTH 8 0
BBX 8 13 0 0
BITMAP
6600
6600
0000
3800
1800
1800
1800
1800
3C00
0000
0000
0000
0000
ENDCHAR
STARTCHAR U+f88c
ENCODING 63628
SWIDTH 500 0
DWIDTH 8 0
BBX 8 14 0 0
BITMAP
1800
3C00
6600
0000
3800
1800
1800
1800
1800
3C00
0000
0000
0000
0000
ENDCHAR
STARTCHAR U+f88d
ENCODING 63629
SWIDTH 500 0
DWIDTH 8 0
BBX 8 14 0 0
BITMAP
6000
3000
1800
0000
3800
1800
1800
1800
1800
3C00
0000
0000
0000
0000
ENDCHAR
STARTCHAR U+f88e
ENCODING 63630
SWIDTH 500 0
DWIDTH 8 0
BBX 8 14 0 0
BITMAP
6300
6300
0800
1C00
3600
6300
6300
7F00
6300
6300
0000
0000
0000
0000
ENDCHAR
STARTCHAR U+f88f
ENCODING 63631
SWIDTH 500 0
DWIDTH 8 0
BBX 8 15 0 0
BITMAP
1C00
3600
1C00
0000
1C00
3600
6300
6300
7F00
6300
6300
0000
0000
0000
0000
ENDCHAR
STARTCHAR U+f890
ENCODING 63632
SWIDTH 500 0
DWIDTH 8 0
BBX 8 15 0 0
BITMAP
0C00
1800
3000
0000
7F00
3300
3000
3E00
3000
3300
7F00
0000
0000
0000
0000
ENDCHAR
STARTCHAR U+f891
ENCODING 63633
SWIDTH 500 0
DWIDTH 8 0
BBX 8 11 0 0
BITMAP
6E00
3B00
1B00
7E00
D800
DC00
7700
0000
0000
0000
0000
ENDCHAR
STARTCHAR U+f892
ENCODING 63634
SWIDTH 500 0
DWIDTH 8 0
BBX 8 13 0 0
BITMAP
1F00
3600
6600
6600
7F00
6600
6600
6600
6700
0000
0000
0000
0000
ENDCHAR
STARTCHAR U+f893
ENCODING 63635
SWIDTH 500 0
DWIDTH 8 0
BBX 8 14 0 0
BITMAP
0800
1C00
3600
0000
3E00
6300
6300
6300
6300
3E00
0000
0000
0000
0000
ENDCHAR
STARTCHAR U+f894
ENCODING 63636
SWIDTH 500 0
DWIDTH 8 0
BBX 8 13 0 0
BITMAP
6300
6300
0000
3E00
6300
6300
6300
6300
3E00
0000
0000
0000
0000
ENDCHAR
STARTCHAR U+f895
ENCODING 63637
SWIDTH 500 0
DWIDTH 8 0
BBX 8 14 0 0
BITMAP
3000
1800
0C00
0000
3E00
6300
6300
6300
6300
3E00
0000
0000
0000
0000
ENDCHAR
STARTCHAR U+f896
ENCODING 63638
SWIDTH 500 0
DWIDTH 8 0
BBX 8 14 0 0
BITMAP
1800
3C00
6600
0000
6600
6600
6600
6600
6600
3B00
0000
0000
0000
0000
ENDCHAR
STARTCHAR U+f897
ENCODING 63639
SWIDTH 500 0
DWIDTH 8 0
BBX 8 14 0 0
BITMAP
3000
1800
0C00
0000
6600
6600
6600
6600
6600
3B00
0000
0000
0000
0000
ENDCHAR
STARTCHAR U+f898
ENCODING 63640
SWIDTH 500 0
DWIDTH 8 0
BBX 8 13 0 0
BITMAP
6300
6300
0000
6300
6300
6300
6300
3F00
0300
0600
3C00
0000
0000
ENDCHAR
STARTCHAR U+f899
ENCODING 63641
SWIDTH 500 0
DWIDTH 8 0
BBX 8 14 0 0
BITMAP
6300
6300
1C00
3600
6300
6300
6300
6300
3600
1C00
0000
0000
0000
0000
ENDCHAR
STARTCHAR U+f89a
ENCODING 63642
SWIDTH 500 0
DWIDTH 8 0
BBX 8 14 0 0
BITMAP
6300
6300
0000
6300
6300
6300
6300
6300
6300
3E00
0000
0000
0000
0000
ENDCHAR
STARTCHAR U+f89b
ENCODING 63643
SWIDTH 500 0
DWIDTH 8 0
BBX 8 14 0 0
BITMAP
1800
1800
7E00
C300
C000
C000
C300
7E00
1800
1800
0000
0000
0000
0000
ENDCHAR
STARTCHAR U+f89c
ENCODING 63644
SWIDTH 500 0
DWIDTH 8 0
BBX 8 14 0 0
BITMAP
1C00
3600
3200
3000
7800
3000
3000
3000
7300
7E00
0000
0000
0000
0000
ENDCHAR
STARTCHAR U+f89d
ENCODING 63645
SWIDTH 500 0
DWIDTH 8 0
BBX 8 13 0 0
BITMAP
C300
6600
3C00
1800
FF00
1800
FF00
1800
1800
0000
0000
0000
0000
ENDCHAR
STARTCHAR U+f89e
ENCODING 63646
SWIDTH 500 0
DWIDTH 8 0
BBX 8 14 0 0
BITMAP
FC00
6600
6600
7C00
6200
6600
6F00
6600
6600
F300
0000
0000
0000
0000
ENDCHAR
STARTCHAR U+f89f
ENCODING 63647
SWIDTH 500 0
DWIDTH 8 0
BBX 8 14 0 0
BITMAP
0E00
1B00
1800
1800
1800
7E00
1800
1800
1800
1800
D800
7000
0000
0000
ENDCHAR
STARTCHAR U+f8a0
ENCODING 63648
SWIDTH 500 0
DWIDTH 8 0
BBX 8 14 0 0
BITMAP
0C00
1800
3000
0000
3C00
0600
3E00
6600
6600
3B00
0000
0000
0000
0000
ENDCHAR
STARTCHAR U+f8a1
ENCODING 63649
SWIDTH 500 0
DWIDTH 8 0
BBX 8 14 0 0
BITMAP
0C00
1800
3000
0000
3800
1800
1800
1800
1800
3C00
0000
0000
0000
0000
ENDCHAR
STARTCHAR U+f8a2
ENCODING 63650
SWIDTH 500 0
DWIDTH 8 0
BBX 8 14 0 0
BITMAP
0C00
1800
3000
0000
3E00
6300
6300
6300
6300
3E00
0000
0000
0000
0000
ENDCHAR
STARTCHAR U+f8a3
ENCODING 63651
SWIDTH 500 0
DWIDTH 8 0
BBX 8 14 0 0
BITMAP
0C00
1800
3000
0000
6600
6600
6600
6600
6600
3B00
0000
0000
0000
0000
ENDCHAR
STARTCHAR U+f8a4
ENCODING 63652
SWIDTH 500 0
DWIDTH 8 0
BBX 8 13 0 0
BITMAP
3B00
6E00
0000
6E00
3300
3300
3300
3300
3300
0000
0000
0000
0000
ENDCHAR
STARTCHAR U+f8a5
ENCODING 63653
SWIDTH 500 0
DWIDTH 8 0
BBX 8 15 0 0
BITMAP
3B00
6E00
0000
6300
7300
7B00
7F00
6F00
6700
6300
6300
0000
0000
0000
0000
ENDCHAR
STARTCHAR U+f8a6
ENCODING 63654
SWIDTH 500 0
DWIDTH 8 0
BBX 8 14 0 0
BITMAP
3C00
6C00
6C00
3E00
0000
7E00
0000
0000
0000
0000
0000
0000
0000
0000
ENDCHAR
STARTCHAR U+f8a7
ENCODING 63655
SWIDTH 500 0
DWIDTH 8 0
BBX 8 14 0 0
BITMAP
3800
6C00
6C00
3800
0000
7C00
0000
0000
0000
0000
0000
0000
0000
0000
ENDCHAR
STARTCHAR U+f8a8
ENCODING 63656
SWIDTH 500 0
DWIDTH 8 0
BBX 8 13 0 0
BITMAP
1800
1800
0000
1800
1800
3000
6300
6300
3E00
0000
0000
0000
0000
ENDCHAR
STARTCHAR U+f8a9
ENCODING 63657
SWIDTH 500 0
DWIDTH 8 0
BBX 8 9 0 0
BITMAP
7F00
6000
6000
6000
0000
0000
0000
0000
0000
ENDCHAR
STARTCHAR U+f8aa
ENCODING 63658
SWIDTH 500 0
DWIDTH 8 0
BBX 8 9 0 0
BITMAP
7F00
0300
0300
0300
0000
0000
0000
0000
0000
ENDCHAR
STARTCHAR U+f8ab
ENCODING 63659
SWIDTH 500 0
DWIDTH 8 0
BBX 8 14 0 0
BITMAP
6000
E000
6300
6600
6C00
1800
3000
6E00
DB00
0600
0C00
1F00
0000
0000
ENDCHAR
STARTCHAR U+f8ac
ENCODING 63660
SWIDTH 500 0
DWIDTH 8 0
BBX 8 14 0 0
BITMAP
6000
E000
6300
6600
6C00
1800
3300
6700
CD00
1F00
0300
0300
0000
0000
ENDCHAR
STARTCHAR U+f8ad
ENCODING 63661
SWIDTH 500 0
DWIDTH 8 0
BBX 8 13 0 0
BITMAP
1800
1800
0000
1800
1800
3C00
3C00
3C00
1800
0000
0000
0000
0000
ENDCHAR
STARTCHAR U+f8ae
ENCODING 63662
SWIDTH 500 0
DWIDTH 8 0
BBX 8 11 0 0
BITMAP
1B00
3600
6C00
3600
1B00
0000
0000
0000
0000
0000
0000
ENDCHAR
STARTCHAR U+f8af
ENCODING 63663
SWIDTH 500 0
DWIDTH 8 0
BBX 8 11 0 0
BITMAP
6C00
3600
1B00
3600
6C00
0000
0000
0000
0000
0000
0000
ENDCHAR
STARTCHAR U+f8b0
ENCODING 63664
SWIDTH 500 0
DWIDTH 8 0
BBX 8 16 0 0
BITMAP
1100
4400
1100
4400
1100
4400
1100
4400
1100
4400
1100
4400
1100
4400
1100
4400
ENDCHAR
STARTCHAR U+f8b1
ENCODING 63665
SWIDTH 500 0
DWIDTH 8 0
BBX 8 16 0 0
BITMAP
2A00
5500
2A00
5500
2A00
5500
2A00
5500
2A00
5500
2A00
5500
2A00
5500
2A00
5500
ENDCHAR
STARTCHAR U+f8b2
ENCODING 63666
SWIDTH 500 0
DWIDTH 8 0
BBX 8 16 0 0
BITMAP
5500
7F00
2A00
7F00
5500
7F00
2A00
7F00
5500
7F00
2A00
7F00
5500
7F00
2A00
7F00
ENDCHAR
STARTCHAR U+f8b3
ENCODING 63667
SWIDTH 500 0
DWIDTH 8 0
BBX 8 16 0 0
BITMAP
1800
1800
1800
1800
1800
1800
1800
1800
1800
1800
1800
1800
1800
1800
1800
1800
ENDCHAR
STARTCHAR U+f8b4
ENCODING 63668
SWIDTH 500 0
DWIDTH 8 0
BBX 8 16 0 0
BITMAP
1800
1800
1800
1800
1800
1800
1800
F800
1800
1800
1800
1800
1800
1800
1800
1800
ENDCHAR
STARTCHAR U+f8b5
ENCODING 63669
SWIDTH 500 0
DWIDTH 8 0
BBX 8 16 0 0
BITMAP
1800
1800
1800
1800
1800
1800
F800
1800
F800
1800
1800
1800
1800
1800
1800
1800
ENDCHAR
STARTCHAR U+f8b6
ENCODING 63670
SWIDTH 500 0
DWIDTH 8 0
BBX 8 16 0 0
BITMAP
3600
3600
3600
3600
3600
3600
3600
F600
3600
3600
3600
3600
3600
3600
3600
3600
ENDCHAR
STARTCHAR U+f8b7
ENCODING 63671
SWIDTH 500 0
DWIDTH 8 0
BBX 8 9 0 0
BITMAP
FE00
3600
3600
3600
3600
3600
3600
3600
3600
ENDCHAR
STARTCHAR U+f8b8
ENCODING 63672
SWIDTH 500 0
DWIDTH 8 0
BBX 8 10 0 0
BITMAP
F800
1800
F800
1800
1800
1800
1800
1800
1800
1800
ENDCHAR
STARTCHAR U+f8b9
ENCODING 63673
SWIDTH 500 0
DWIDTH 8 0
BBX 8 16 0 0
BITMAP
3600
3600
3600
3600
3600
3600
F600
1600
F600
3600
3600
3600
3600
3600
3600
3600
ENDCHAR
STARTCHAR U+f8ba
ENCODING 63674
SWIDTH 500 0
DWIDTH 8 0
BBX 8 16 0 0
BITMAP
3600
3600
3600
3600
3600
3600
3600
3600
3600
3600
3600
3600
3600
3600
3600
3600
ENDCHAR
STARTCHAR U+f8bb
ENCODING 63675
SWIDTH 500 0
DWIDTH 8 0
BBX 8 10 0 0
BITMAP
FE00
0600
F600
3600
3600
3600
3600
3600
3600
3600
ENDCHAR
STARTCHAR U+f8bc
ENCODING 63676
SWIDTH 500 0
DWIDTH 8 0
BBX 8 16 0 0
BITMAP
3600
3600
3600
3600
3600
3600
F600
0600
FE00
0000
0000
0000
0000
0000
0000
0000
ENDCHAR
STARTCHAR U+f8bd
ENCODING 63677
SWIDTH 500 0
DWIDTH 8 0
BBX 8 16 0 0
BITMAP
3600
3600
3600
3600
3600
3600
3600
FE00
0000
0000
0000
0000
0000
0000
0000
0000
ENDCHAR
STARTCHAR U+f8be
ENCODING 63678
SWIDTH 500 0
DWIDTH 8 0
BBX 8 16 0 0
BITMAP
1800
1800
1800
1800
1800
1800
F800
1800
F800
0000
0000
0000
0000
0000
0000
0000
ENDCHAR
STARTCHAR U+f8bf
ENCODING 63679
SWIDTH 500 0
DWIDTH 8 0
BBX 8 9 0 0
BITMAP
F800
1800
1800
1800
1800
1800
1800
1800
1800
ENDCHAR
STARTCHAR U+f8c0
ENCODING 63680
SWIDTH 500 0
DWIDTH 8 0
BBX 8 16 0 0
BITMAP
1800
1800
1800
1800
1800
1800
1800
1F00
0000
0000
0000
0000
0000
0000
0000
0000
ENDCHAR
STARTCHAR U+f8c1
ENCODING 63681
SWIDTH 500 0
DWIDTH 8 0
BBX 8 16 0 0
BITMAP
1800
1800
1800
1800
1800
1800
1800
FF00
0000
0000
0000
0000
0000
0000
0000
0000
ENDCHAR
STARTCHAR U+f8c2
ENCODING 63682
SWIDTH 500 0
DWIDTH 8 0
BBX 8 9 0 0
BITMAP
FF00
1800
1800
1800
1800
1800
1800
1800
1800
ENDCHAR
STARTCHAR U+f8c3
ENCODING 63683
SWIDTH 500 0
DWIDTH 8 0
BBX 8 16 0 0
BITMAP
1800
1800
1800
1800
1800
1800
1800
1F00
1800
1800
1800
1800
1800
1800
1800
1800
ENDCHAR
STARTCHAR U+f8c4
ENCODING 63684
SWIDTH 500 0
DWIDTH 8 0
BBX 8 9 0 0
BITMAP
FF00
0000
0000
0000
0000
0000
0000
0000
0000
ENDCHAR
STARTCHAR U+f8c5
ENCODING 63685
SWIDTH 500 0
DWIDTH 8 0
BBX 8 16 0 0
BITMAP
1800
1800
1800
1800
1800
1800
1800
FF00
1800
1800
1800
1800
1800
1800
1800
1800
ENDCHAR
STARTCHAR U+f8c6
ENCODING 63686
SWIDTH 500 0
DWIDTH 8 0
BBX 8 16 0 0
BITMAP
1800
1800
1800
1800
1800
1800
1F00
1800
1F00
1800
1800
1800
1800
1800
1800
1800
ENDCHAR
STARTCHAR U+f8c7
ENCODING 63687
SWIDTH 500 0
DWIDTH 8 0
BBX 8 16 0 0
BITMAP
3600
3600
3600
3600
3600
3600
3600
3700
3600
3600
3600
3600
3600
3600
3600
3600
ENDCHAR
STARTCHAR U+f8c8
ENCODING 63688
SWIDTH 500 0
DWIDTH 8 0
BBX 8 16 0 0
BITMAP
3600
3600
3600
3600
3600
3600
3700
3000
3F00
0000
0000
0000
0000
0000
0000
0000
ENDCHAR
STARTCHAR U+f8c9
ENCODING 63689
SWIDTH 500 0
DWIDTH 8 0
BBX 8 10 0 0
BITMAP
3F00
3000
3700
3600
3600
3600
3600
3600
3600
3600
ENDCHAR
STARTCHAR U+f8ca
ENCODING 63690
SWIDTH 500 0
DWIDTH 8 0
BBX 8 16 0 0
BITMAP
3600
3600
3600
3600
3600
3600
F700
0000
FF00
0000
0000
0000
0000
0000
0000
0000
ENDCHAR
STARTCHAR U+f8cb
ENCODING 63691
SWIDTH 500 0
DWIDTH 8 0
BBX 8 10 0 0
BITMAP
FF00
0000
F700
3600
3600
3600
3600
3600
3600
3600
ENDCHAR
STARTCHAR U+f8cc
ENCODING 63692
SWIDTH 500 0
DWIDTH 8 0
BBX 8 16 0 0
BITMAP
3600
3600
3600
3600
3600
3600
3700
3000
3700
3600
3600
3600
3600
3600
3600
3600
ENDCHAR
STARTCHAR U+f8cd
ENCODING 63693
SWIDTH 500 0
DWIDTH 8 0
BBX 8 10 0 0
BITMAP
FF00
0000
FF00
0000
0000
0000
0000
0000
0000
0000
ENDCHAR
STARTCHAR U+f8ce
ENCODING 63694
SWIDTH 500 0
DWIDTH 8 0
BBX 8 16 0 0
BITMAP
3600
3600
3600
3600
3600
3600
F700
0000
F700
3600
3600
3600
3600
3600
3600
3600
ENDCHAR
STARTCHAR U+f8cf
ENCODING 63695
SWIDTH 500 0
DWIDTH 8 0
BBX 8 16 0 0
BITMAP
1800
1800
1800
1800
1800
1800
FF00
0000
FF00
0000
0000
0000
0000
0000
0000
0000
ENDCHAR
STARTCHAR U+f8d0
ENCODING 63696
SWIDTH 500 0
DWIDTH 8 0
BBX 8 16 0 0
BITMAP
3600
3600
3600
3600
3600
3600
3600
FF00
0000
0000
0000
0000
0000
0000
0000
0000
ENDCHAR
STARTCHAR U+f8d1
ENCODING 63697
SWIDTH 500 0
DWIDTH 8 0
BBX 8 10 0 0
BITMAP
FF00
0000
FF00
1800
1800
1800
1800
1800
1800
1800
ENDCHAR
STARTCHAR U+f8d2
ENCODING 63698
SWIDTH 500 0
DWIDTH 8 0
BBX 8 9 0 0
BITMAP
FF00
3600
3600
3600
3600
3600
3600
3600
3600
ENDCHAR
STARTCHAR U+f8d3
ENCODING 63699
SWIDTH 500 0
DWIDTH 8 0
BBX 8 16 0 0
BITMAP
3600
3600
3600
3600
3600
3600
3600
3F00
0000
0000
0000
0000
0000
0000
0000
0000
ENDCHAR
STARTCHAR U+f8d4
ENCODING 63700
SWIDTH 500 0
DWIDTH 8 0
BBX 8 16 0 0
BITMAP
1800
1800
1800
1800
1800
1800
1F00
1800
1F00
0000
0000
0000
0000
0000
0000
0000
ENDCHAR
STARTCHAR U+f8d5
ENCODING 63701
SWIDTH 500 0
DWIDTH 8 0
BBX 8 10 0 0
BITMAP
1F00
1800
1F00
1800
1800
1800
1800
1800
1800
1800
ENDCHAR
STARTCHAR U+f8d6
ENCODING 63702
SWIDTH 500 0
DWIDTH 8 0
BBX 8 9 0 0
BITMAP
3F00
3600
3600
3600
3600
3600
3600
3600
3600
ENDCHAR
STARTCHAR U+f8d7
ENCODING 63703
SWIDTH 500 0
DWIDTH 8 0
BBX 8 16 0 0
BITMAP
3600
3600
3600
3600
3600
3600
3600
FF00
3600
3600
3600
3600
3600
3600
3600
3600
ENDCHAR
STARTCHAR U+f8d8
ENCODING 63704
SWIDTH 500 0
DWIDTH 8 0
BBX 8 16 0 0
BITMAP
1800
1800
1800
1800
1800
1800
FF00
1800
FF00
1800
1800
1800
1800
1800
1800
1800
ENDCHAR
STARTCHAR U+f8d9
ENCODING 63705
SWIDTH 500 0
DWIDTH 8 0
BBX 8 16 0 0
BITMAP
1800
1800
1800
1800
1800
1800
1800
F800
0000
0000
0000
0000
0000
0000
0000
0000
ENDCHAR
STARTCHAR U+f8da
ENCODING 63706
SWIDTH 500 0
DWIDTH 8 0
BBX 8 9 0 0
BITMAP
1F00
1800
1800
1800
1800
1800
1800
1800
1800
ENDCHAR
STARTCHAR U+f8db
ENCODING 63707
SWIDTH 500 0
DWIDTH 8 0
BBX 8 16 0 0
BITMAP
FF00
FF00
FF00
FF00
FF00
FF00
FF00
FF00
FF00
FF00
FF00
FF00
FF00
FF00
FF00
FF00
ENDCHAR
STARTCHAR U+f8dc
ENCODING 63708
SWIDTH 500 0
DWIDTH 8 0
BBX 8 8 0 0
BITMAP
FF00
FF00
FF00
FF00
FF00
FF00
FF00
FF00
ENDCHAR
STARTCHAR U+f8dd
ENCODING 63709
SWIDTH 500 0
DWIDTH 8 0
BBX 8 16 0 0
BITMAP
F000
F000
F000
F000
F000
F000
F000
F000
F000
F000
F000
F000
F000
F000
F000
F000
ENDCHAR
STARTCHAR U+f8de
ENCODING 63710
SWIDTH 500 0
DWIDTH 8 0
BBX 8 16 0 0
BITMAP
0F00
0F00
0F00
0F00
0F00
0F00
0F00
0F00
0F00
0F00
0F00
0F00
0F00
0F00
0F00
0F00
ENDCHAR
STARTCHAR U+f8df
ENCODING 63711
SWIDTH 500 0
DWIDTH 8 0
BBX 8 16 0 0
BITMAP
FF00
FF00
FF00
FF00
FF00
FF00
FF00
FF00
0000
0000
0000
0000
0000
0000
0000
0000
ENDCHAR
STARTCHAR U+f8e0
ENCODING 63712
SWIDTH 500 0
DWIDTH 8 0
BBX 8 12 0 0
BITMAP
1D00
3600
6600
6600
6600
6E00
3B00
0000
0000
0000
0000
0000
ENDCHAR
STARTCHAR U+f8e1
ENCODING 63713
SWIDTH 500 0
DWIDTH 8 0
BBX 8 13 0 0
BITMAP
3C00
6600
6600
7E00
6300
6300
7E00
6000
6000
6000
0000
0000
0000
ENDCHAR
STARTCHAR U+f8e2
ENCODING 63714
SWIDTH 500 0
DWIDTH 8 0
BBX 8 14 0 0
BITMAP
7F00
3100
3000
3000
3000
3000
3000
3000
7800
0000
0000
0000
0000
0000
ENDCHAR
STARTCHAR U+f8e3
ENCODING 63715
SWIDTH 500 0
DWIDTH 8 0
BBX 8 11 0 0
BITMAP
7F00
3600
3600
3600
3600
3600
0000
0000
0000
0000
0000
ENDCHAR
STARTCHAR U+f8e4
ENCODING 63716
SWIDTH 500 0
DWIDTH 8 0
BBX 8 14 0 0
BITMAP
7F00
6100
3000
1800
0C00
1800
3000
6100
7F00
0000
0000
0000
0000
0000
ENDCHAR
STARTCHAR U+f8e5
ENCODING 63717
SWIDTH 500 0
DWIDTH 8 0
BBX 8 11 0 0
BITMAP
3F00
6600
6600
6600
6600
3C00
0000
0000
0000
0000
0000
ENDCHAR
STARTCHAR U+f8e6
ENCODING 63718
SWIDTH 500 0
DWIDTH 8 0
BBX 8 12 0 0
BITMAP
6600
6600
6600
6600
6600
7D00
6000
6000
C000
0000
0000
0000
ENDCHAR
STARTCHAR U+f8e7
ENCODING 63719
SWIDTH 500 0
DWIDTH 8 0
BBX 8 12 0 0
BITMAP
3700
5C00
1800
1800
1800
1800
1800
0000
0000
0000
0000
0000
ENDCHAR
STARTCHAR U+f8e8
ENCODING 63720
SWIDTH 500 0
DWIDTH 8 0
BBX 8 14 0 0
BITMAP
3E00
0800
3E00
6B00
6B00
6B00
3E00
0800
3E00
0000
0000
0000
0000
0000
ENDCHAR
STARTCHAR U+f8e9
ENCODING 63721
SWIDTH 500 0
DWIDTH 8 0
BBX 8 14 0 0
BITMAP
1C00
3600
6300
6300
7F00
6300
6300
3600
1C00
0000
0000
0000
0000
0000
ENDCHAR
STARTCHAR U+f8ea
ENCODING 63722
SWIDTH 500 0
DWIDTH 8 0
BBX 8 14 0 0
BITMAP
1C00
3600
6300
6300
6300
3600
3600
3600
7700
0000
0000
0000
0000
0000
ENDCHAR
STARTCHAR U+f8eb
ENCODING 63723
SWIDTH 500 0
DWIDTH 8 0
BBX 8 14 0 0
BITMAP
1E00
3000
3000
1800
3C00
6600
6600
6600
3C00
0000
0000
0000
0000
0000
ENDCHAR
STARTCHAR U+f8ec
ENCODING 63724
SWIDTH 500 0
DWIDTH 8 0
BBX 8 12 0 0
BITMAP
6600
DB00
9900
DB00
6600
0000
0000
0000
0000
0000
0000
0000
ENDCHAR
STARTCHAR U+f8ed
ENCODING 63725
SWIDTH 500 0
DWIDTH 8 0
BBX 8 14 0 0
BITMAP
0300
0600
3C00
6A00
5200
6E00
3C00
6000
C000
0000
0000
0000
0000
0000
ENDCHAR
STARTCHAR U+f8ee
ENCODING 63726
SWIDTH 500 0
DWIDTH 8 0
BBX 8 14 0 0
BITMAP
1C00
3C00
6000
6000
7C00
6000
6000
3C00
1C00
0000
0000
0000
0000
0000
ENDCHAR
STARTCHAR U+f8ef
ENCODING 63727
SWIDTH 500 0
DWIDTH 8 0
BBX 8 14 0 0
BITMAP
1C00
3E00
6300
6300
6300
6300
6300
6300
6300
0000
0000
0000
0000
0000
ENDCHAR
STARTCHAR U+f8f0
ENCODING 63728
SWIDTH 500 0
DWIDTH 8 0
BBX 8 13 0 0
BITMAP
7E00
7E00
0000
7E00
7E00
0000
7E00
7E00
0000
0000
0000
0000
0000
ENDCHAR
STARTCHAR U+f8f1
ENCODING 63729
SWIDTH 500 0
DWIDTH 8 0
BBX 8 14 0 0
BITMAP
1800
1800
7E00
7E00
1800
1800
0000
7E00
7E00
0000
0000
0000
0000
0000
ENDCHAR
STARTCHAR U+f8f2
ENCODING 63730
SWIDTH 500 0
DWIDTH 8 0
BBX 8 14 0 0
BITMAP
7000
3800
0E00
0E00
3800
7000
0000
7E00
7E00
0000
0000
0000
0000
0000
ENDCHAR
STARTCHAR U+f8f3
ENCODING 63731
SWIDTH 500 0
DWIDTH 8 0
BBX 8 14 0 0
BITMAP
0E00
1C00
7000
7000
1C00
0E00
0000
7E00
7E00
0000
0000
0000
0000
0000
ENDCHAR
STARTCHAR U+f8f4
ENCODING 63732
SWIDTH 500 0
DWIDTH 8 0
BBX 8 14 0 0
BITMAP
0E00
1F00
1B00
1800
1800
1800
1800
1800
1800
1800
1800
1800
1800
1800
ENDCHAR
STARTCHAR U+f8f5
ENCODING 63733
SWIDTH 500 0
DWIDTH 8 0
BBX 8 16 0 0
BITMAP
1800
1800
1800
1800
1800
1800
1800
1800
D800
F800
7000
0000
0000
0000
0000
0000
ENDCHAR
STARTCHAR U+f8f6
ENCODING 63734
SWIDTH 500 0
DWIDTH 8 0
BBX 8 13 0 0
BITMAP
1800
1800
0000
7E00
7E00
0000
1800
1800
0000
0000
0000
0000
0000
ENDCHAR
STARTCHAR U+f8f7
ENCODING 63735
SWIDTH 500 0
DWIDTH 8 0
BBX 8 13 0 0
BITMAP
3900
7F00
4600
0000
3900
7F00
4600
0000
0000
0000
0000
0000
0000
ENDCHAR
STARTCHAR U+f8f8
ENCODING 63736
SWIDTH 500 0
DWIDTH 8 0
BBX 8 15 0 0
BITMAP
3800
6C00
6C00
3800
0000
0000
0000
0000
0000
0000
0000
0000
0000
0000
0000
ENDCHAR
STARTCHAR U+f8f9
ENCODING 63737
SWIDTH 500 0
DWIDTH 8 0
BBX 8 11 0 0
BITMAP
1800
3C00
3C00
1800
0000
0000
0000
0000
0000
0000
0000
ENDCHAR
STARTCHAR U+f8fa
ENCODING 63738
SWIDTH 500 0
DWIDTH 8 0
BBX 8 10 0 0
BITMAP
1800
1800
0000
0000
0000
0000
0000
0000
0000
0000
ENDCHAR
STARTCHAR U+f8fb
ENCODING 63739
SWIDTH 500 0
DWIDTH 8 0
BBX 8 14 0 0
BITMAP
0F00
0F00
0C00
0C00
0C00
0C00
0C00
3C00
1C00
0C00
0000
0000
0000
0000
ENDCHAR
STARTCHAR U+f8fc
ENCODING 63740
SWIDTH 500 0
DWIDTH 8 0
BBX 8 14 0 0
BITMAP
6C00
3600
3600
3600
3600
0000
0000
0000
0000
0000
0000
0000
0000
0000
ENDCHAR
STARTCHAR U+f8fd
ENCODING 63741
SWIDTH 500 0
DWIDTH 8 0
BBX 8 15 0 0
BITMAP
3800
6C00
0C00
1800
3400
7C00
0000
0000
0000
0000
0000
0000
0000
0000
0000
ENDCHAR
STARTCHAR U+f8fe
ENCODING 63742
SWIDTH 500 0
DWIDTH 8 0
BBX 8 12 0 0
BITMAP
7E00
7E00
7E00
7E00
7E00
7E00
0000
0000
0000
0000
0000
0000
ENDCHAR
STARTCHAR U+0000
ENCODING 0
SWIDTH 500 0
DWIDTH 16 0
BBX 16 16 0 0
BITMAP
FFFF
C003
A005
9009
8811
8421
8241
8181
8181
8241
8421
8811
9009
A005
C003
FFFF
ENDCHAR
STARTCHAR U+263a
ENCODING 9786
SWIDTH 500 0
DWIDTH 16 0
BBX 16 14 0 0
BITMAP
07E0
0810
1008
2664
2664
2004
2004
2424
23C4
1008
0810
07E0
0000
0000
ENDCHAR
STARTCHAR U+263b
ENCODING 9787
SWIDTH 500 0
DWIDTH 16 0
BBX 16 14 0 0
BITMAP
07E0
0FF0
1FF8
399C
399C
3FFC
3FFC
3BDC
3C3C
1FF8
0FF0
07E0
0000
0000
ENDCHAR
STARTCHAR U+2665
ENCODING 9829
SWIDTH 500 0
DWIDTH 16 0
BBX 16 14 0 0
BITMAP
1C70
3EF8
7FFC
7FFC
7FFC
3FF8
1FF0
0FE0
07C0
0380
0100
0000
0000
0000
ENDCHAR
STARTCHAR U+2666
ENCODING 9830
SWIDTH 500 0
DWIDTH 16 0
BBX 16 14 0 0
BITMAP
0100
0380
07C0
0FE0
1FF0
3FF8
1FF0
0FE0
07C0
0380
0100
0000
0000
0000
ENDCHAR
STARTCHAR U+2663
ENCODING 9827
SWIDTH 500 0
DWIDTH 16 0
BBX 16 15 0 0
BITMAP
03C0
07E0
07E0
07E0
03C0
3FFC
7FFE
7FFE
7FFE
3DBC
0180
03C0
07E0
0000
0000
ENDCHAR
STARTCHAR U+2660
ENCODING 9824
SWIDTH 500 0
DWIDTH 16 0
BBX 16 15 0 0
BITMAP
0100
0380
07C0
0FE0
1FF0
3FF8
7FFC
7FFC
7FFC
3D78
0100
0380
07C0
0000
0000
ENDCHAR
STARTCHAR U+2022
ENCODING 8226
SWIDTH 500 0
DWIDTH 16 0
BBX 16 10 0 0
BITMAP
0380
07C0
07C0
0380
0000
0000
0000
0000
0000
0000
ENDCHAR
STARTCHAR U+25d8
ENCODING 9688
SWIDTH 500 0
DWIDTH 16 0
BBX 16 16 0 0
BITMAP
FFFF
FFFF
FFFF
FFFF
FFFF
FFFF
FC7F
FBBF
FBBF
FC7F
FFFF
FFFF
FFFF
FFFF
FFFF
FFFF
ENDCHAR
STARTCHAR U+25cb
ENCODING 9675
SWIDTH 500 0
DWIDTH 16 0
BBX 16 14 0 0
BITMAP
03C0
0C30
1008
1008
2004
2004
2004
1008
1008
0C30
03C0
0000
0000
0000
ENDCHAR
STARTCHAR U+25d9
ENCODING 9689
SWIDTH 500 0
DWIDTH 16 0
BBX 16 16 0 0
BITMAP
FFFF
FFFF
FC3F
FBDF
F7EF
EFF7
EFF7
EFF7
EFF7
EFF7
EFF7
F7EF
FBDF
FC3F
FFFF
FFFF
ENDCHAR
STARTCHAR U+2642
ENCODING 9794
SWIDTH 500 0
DWIDTH 16 0
BBX 16 15 0 0
BITMAP
0180
03C0
07E0
0DB0
1998
318C
0180
07E0
0C30
1818
1818
1818
0C30
07E0
0000
ENDCHAR
STARTCHAR U+2640
ENCODING 9792
SWIDTH 500 0
DWIDTH 16 0
BBX 16 14 0 0
BITMAP
07E0
0C30
1818
1818
1818
0C30
07E0
0180
0180
3FFC
0180
0180
0180
0000
ENDCHAR
STARTCHAR U+266a
ENCODING 9834
SWIDTH 500 0
DWIDTH 16 0
BBX 16 14 0 0
BITMAP
0080
00C0
00A0
0090
0090
00A0
0080
0080
0180
0780
0F00
0E00
0000
0000
ENDCHAR
STARTCHAR U+266b
ENCODING 9835
SWIDTH 500 0
DWIDTH 16 0
BBX 16 14 0 0
BITMAP
0700
07C0
0460
07A0
07E0
0460
0420
0420
0420
1C20
3CE0
39E0
01C0
0000
ENDCHAR
STARTCHAR U+263c
ENCODING 9788
SWIDTH 500 0
DWIDTH 16 0
BBX 16 14 0 0
BITMAP
0100
0100
27C8
1830
1010
F01E
1010
1830
27C8
0100
0100
0000
0000
0000
ENDCHAR
STARTCHAR U+25ba
ENCODING 9658
SWIDTH 500 0
DWIDTH 16 0
BBX 16 12 0 0
BITMAP
3000
3E00
3F80
3FE0
3FF0
3FC0
3E00
3000
0000
0000
0000
0000
ENDCHAR
STARTCHAR U+25c4
ENCODING 9668
SWIDTH 500 0
DWIDTH 16 0
BBX 16 13 0 0
BITMAP
000C
003C
00FC
03FC
0FFC
03FC
00FC
003C
000C
0000
0000
0000
0000
ENDCHAR
STARTCHAR U+2195
ENCODING 8597
SWIDTH 500 0
DWIDTH 16 0
BBX 16 16 0 0
BITMAP
0100
0380
07C0
0FE0
0100
0100
0100
0100
0100
0100
0100
0FE0
07C0
0380
0100
0000
ENDCHAR
STARTCHAR U+203c
ENCODING 8252
SWIDTH 500 0
DWIDTH 16 0
BBX 16 14 0 0
BITMAP
1C70
1C70
1C70
1C70
1C70
1C70
1C70
0820
0000
1C70
1C70
0000
0000
0000
ENDCHAR
STARTCHAR U+00b6
ENCODING 182
SWIDTH 500 0
DWIDTH 16 0
BBX 16 14 0 0
BITMAP
0F88
1088
2088
2088
1088
0F88
0088
0088
0088
0088
0088
0000
0000
0000
ENDCHAR
STARTCHAR U+00a7
ENCODING 167
SWIDTH 500 0
DWIDTH 16 0
BBX 16 15 0 0
BITMAP
0380
0C60
0800
0400
0380
0C60
1830
1830
0C60
0380
0040
0020
0C60
0380
0000
ENDCHAR
STARTCHAR U+25ac
ENCODING 9644
SWIDTH 500 0
DWIDTH 16 0
BBX 16 10 0 0
BITMAP
0FF0
0FF0
0FF0
0000
0000
0000
0000
0000
0000
0000
ENDCHAR
STARTCHAR U+21a8
ENCODING 8616
SWIDTH 500 0
DWIDTH 16 0
BBX 16 14 0 0
BITMAP
0100
0380
0540
0920
0100
0100
0920
0540
0380
0100
0000
1FF0
0000
0000
ENDCHAR
STARTCHAR U+2191
ENCODING 8593
SWIDTH 500 0
DWIDTH 16 0
BBX 16 16 0 0
BITMAP
0100
0380
07C0
0FE0
0100
0100
0100
0100
0100
0100
0100
0100
0100
0100
0100
0000
ENDCHAR
STARTCHAR U+2193
ENCODING 8595
SWIDTH 500 0
DWIDTH 16 0
BBX 16 16 0 0
BITMAP
0100
0100
0100
0100
0100
0100
0100
0100
0100
0100
0100
0FE0
07C0
0380
0100
0000
ENDCHAR
STARTCHAR U+2192
ENCODING 8594
SWIDTH 500 0
DWIDTH 16 0
BBX 16 12 0 0
BITMAP
0010
0018
001C
FFFE
001C
0018
0010
0000
0000
0000
0000
0000
ENDCHAR
STARTCHAR U+2190
ENCODING 8592
SWIDTH 500 0
DWIDTH 16 0
BBX 16 12 0 0
BITMAP
1000
3000
7000
FFFE
7000
3000
1000
0000
0000
0000
0000
0000
ENDCHAR
STARTCHAR U+221f
ENCODING 8735
SWIDTH 500 0
DWIDTH 16 0
BBX 16 12 0 0
BITMAP
3000
3000
3000
3000
3000
3000
3000
3FFC
0000
0000
0000
0000
ENDCHAR
STARTCHAR U+2194
ENCODING 8596
SWIDTH 500 0
DWIDTH 16 0
BBX 16 12 0 0
BITMAP
1010
3018
701C
FFFE
701C
3018
1010
0000
0000
0000
0000
0000
ENDCHAR
STARTCHAR U+25b2
ENCODING 9650
SWIDTH 500 0
DWIDTH 16 0
BBX 16 12 0 0
BITMAP
0100
0380
07C0
0FE0
1FF0
3FF8
7FFC
FFFE
0000
0000
0000
0000
ENDCHAR
STARTCHAR U+25bc
ENCODING 9660
SWIDTH 500 0
DWIDTH 16 0
BBX 16 11 0 0
BITMAP
FFFE
7FFC
3FF8
1FF0
0FE0
07C0
0380
0100
0000
0000
0000
ENDCHAR
STARTCHAR U+00c7
ENCODING 199
SWIDTH 500 0
DWIDTH 8 0
BBX 8 12 0 0
BITMAP
3C00
6600
C200
C000
C200
6600
3C00
1800
0E00
0C00
7800
0000
ENDCHAR
STARTCHAR U+00fc
ENCODING 252
SWIDTH 500 0
DWIDTH 8 0
BBX 8 13 0 0
BITMAP
6600
6600
0000
6600
6600
6600
6600
6600
3B00
0000
0000
0000
0000
ENDCHAR
STARTCHAR U+00e9
ENCODING 233
SWIDTH 500 0
DWIDTH 8 0
BBX 8 14 0 0
BITMAP
0600
0C00
1800
0000
3E00
6300
7F00
6000
6300
3E00
0000
0000
0000
0000
ENDCHAR
STARTCHAR U+00e2
ENCODING 226
SWIDTH 500 0
DWIDTH 8 0
BBX 8 14 0 0
BITMAP
0800
1C00
3600
0000
3C00
0600
3E00
6600
6600
3B00
0000
0000
0000
0000
ENDCHAR
STARTCHAR U+00e4
ENCODING 228
SWIDTH 500 0
DWIDTH 8 0
BBX 8 13 0 0
BITMAP
6600
6600
0000
3C00
0600
3E00
6600
6600
3B00
0000
0000
0000
0000
ENDCHAR
STARTCHAR U+00e0
ENCODING 224
SWIDTH 500 0
DWIDTH 8 0
BBX 8 14 0 0
BITMAP
3000
1800
0C00
0000
3C00
0600
3E00
6600
6600
3B00
0000
0000
0000
0000
ENDCHAR
STARTCHAR U+00e5
ENCODING 229
SWIDTH 500 0
DWIDTH 8 0
BBX 8 14 0 0
BITMAP
1C00
3600
1C00
0000
3C00
0600
3E00
6600
6600
3B00
0000
0000
0000
0000
ENDCHAR
STARTCHAR U+00e7
ENCODING 231
SWIDTH 500 0
DWIDTH 8 0
BBX 8 11 0 0
BITMAP
3C00
6600
6000
6600
3C00
0C00
0600
3C00
0000
0000
0000
ENDCHAR
STARTCHAR U+00ea
ENCODING 234
SWIDTH 500 0
DWIDTH 8 0
BBX 8 14 0 0
BITMAP
0800
1C00
3600
0000
3E00
6300
7F00
6000
6300
3E00
0000
0000
0000
0000
ENDCHAR
STARTCHAR U+00eb
ENCODING 235
SWIDTH 500 0
DWIDTH 8 0
BBX 8 13 0 0
BITMAP
6600
6600
0000
3E00
6300
7F00
6000
6300
3E00
0000
0000
0000
0000
ENDCHAR
STARTCHAR U+00e8
ENCODING 232
SWIDTH 500 0
DWIDTH 8 0
BBX 8 14 0 0
BITMAP
3000
1800
0C00
0000
3E00
6300
7F00
6000
6300
3E00
0000
0000
0000
0000
ENDCHAR
STARTCHAR U+00ef
ENCODING 239
SWIDTH 500 0
DWIDTH 8 0
BBX 8 13 0 0
BITMAP
6600
6600
0000
3800
1800
1800
1800
1800
3C00
0000
0000
0000
0000
ENDCHAR
STARTCHAR U+00ee
ENCODING 238
SWIDTH 500 0
DWIDTH 8 0
BBX 8 14 0 0
BITMAP
1800
3C00
6600
0000
3800
1800
1800
1800
1800
3C00
0000
0000
0000
0000
ENDCHAR
STARTCHAR U+00ec
ENCODING 236
SWIDTH 500 0
DWIDTH 8 0
BBX 8 14 0 0
BITMAP
6000
3000
1800
0000
3800
1800
1800
1800
1800
3C00
0000
0000
0000
0000
ENDCHAR
STARTCHAR U+00c4
ENCODING 196
SWIDTH 500 0
DWIDTH 8 0
BBX 8 14 0 0
BITMAP
6300
6300
0800
1C00
3600
6300
6300
7F00
6300
6300
0000
0000
0000
0000
ENDCHAR
STARTCHAR U+00c5
ENCODING 197
SWIDTH 500 0
DWIDTH 8 0
BBX 8 15 0 0
BITMAP
1C00
3600
1C00
0000
1C00
3600
6300
6300
7F00
6300
6300
0000
0000
0000
0000
ENDCHAR
STARTCHAR U+00c9
ENCODING 201
SWIDTH 500 0
DWIDTH 8 0
BBX 8 15 0 0
BITMAP
0C00
1800
3000
0000
7F00
3300
3000
3E00
3000
3300
7F00
0000
0000
0000
0000
ENDCHAR
STARTCHAR U+00e6
ENCODING 230
SWIDTH 500 0
DWIDTH 16 0
BBX 16 12 0 0
BITMAP
7CF8
C78C
030C
030C
7FF8
C300
C30C
C38C
7DF8
0000
0000
0000
ENDCHAR
STARTCHAR U+00c6
ENCODING 198
SWIDTH 500 0
DWIDTH 16 0
BBX 16 13 0 0
BITMAP
07FC
0E00
0E00
1B00
1B00
31FC
3F80
60C0
60C0
60C0
60FC
0000
0000
ENDCHAR
STARTCHAR U+00f4
ENCODING 244
SWIDTH 500 0
DWIDTH 8 0
BBX 8 14 0 0
BITMAP
0800
1C00
3600
0000
3E00
6300
6300
6300
6300
3E00
0000
0000
0000
0000
ENDCHAR
STARTCHAR U+00f6
ENCODING 246
SWIDTH 500 0
DWIDTH 8 0
BBX 8 13 0 0
BITMAP
6300
6300
0000
3E00
6300
6300
6300
6300
3E00
0000
0000
0000
0000
ENDCHAR
STARTCHAR U+00f2
ENCODING 242
SWIDTH 500 0
DWIDTH 8 0
BBX 8 14 0 0
BITMAP
3000
1800
0C00
0000
3E00
6300
6300
6300
6300
3E00
0000
0000
0000
0000
ENDCHAR
STARTCHAR U+00fb
ENCODING 251
SWIDTH 500 0
DWIDTH 8 0
BBX 8 14 0 0
BITMAP
1800
3C00
6600
0000
6600
6600
6600
6600
6600
3B00
0000
0000
0000
0000
ENDCHAR
STARTCHAR U+00f9
ENCODING 249
SWIDTH 500 0
DWIDTH 8 0
BBX 8 14 0 0
BITMAP
3000
1800
0C00
0000
6600
6600
6600
6600
6600
3B00
0000
0000
0000
0000
ENDCHAR
STARTCHAR U+00ff
ENCODING 255
SWIDTH 500 0
DWIDTH 8 0
BBX 8 13 0 0
BITMAP
6300
6300
0000
6300
6300
6300
6300
3F00
0300
0600
3C00
0000
0000
ENDCHAR
STARTCHAR U+00d6
ENCODING 214
SWIDTH 500 0
DWIDTH 8 0
BBX 8 14 0 0
BITMAP
6300
6300
1C00
3600
6300
6300
6300
6300
3600
1C00
0000
0000
0000
0000
ENDCHAR
STARTCHAR U+00dc
ENCODING 220
SWIDTH 500 0
DWIDTH 8 0
BBX 8 14 0 0
BITMAP
6300
6300
0000
6300
6300
6300
6300
6300
6300
3E00
0000
0000
0000
0000
ENDCHAR
STARTCHAR U+00a2
ENCODING 162
SWIDTH 500 0
DWIDTH 8 0
BBX 8 14 0 0
BITMAP
1800
1800
7E00
C300
C000
C000
C300
7E00
1800
1800
0000
0000
0000
0000
ENDCHAR
STARTCHAR U+00a3
ENCODING 163
SWIDTH 500 0
DWIDTH 8 0
BBX 8 14 0 0
BITMAP
1C00
3600
3200
3000
7800
3000
3000
3000
7300
7E00
0000
0000
0000
0000
ENDCHAR
STARTCHAR U+00a5
ENCODING 165
SWIDTH 500 0
DWIDTH 8 0
BBX 8 13 0 0
BITMAP
C300
6600
3C00
1800
FF00
1800
FF00
1800
1800
0000
0000
0000
0000
ENDCHAR
STARTCHAR U+20a7
ENCODING 8359
SWIDTH 500 0
DWIDTH 8 0
BBX 8 14 0 0
BITMAP
FC00
6600
6600
7C00
6200
6600
6F00
6600
6600
F300
0000
0000
0000
0000
ENDCHAR
STARTCHAR U+0192
ENCODING 402
SWIDTH 500 0
DWIDTH 8 0
BBX 8 14 0 0
BITMAP
0E00
1B00
1800
1800
1800
7E00
1800
1800
1800
1800
D800
7000
0000
0000
ENDCHAR
STARTCHAR U+00e1
ENCODING 225
SWIDTH 500 0
DWIDTH 8 0
BBX 8 14 0 0
BITMAP
0C00
1800
3000
0000
3C00
0600
3E00
6600
6600
3B00
0000
0000
0000
0000
ENDCHAR
STARTCHAR U+00ed
ENCODING 237
SWIDTH 500 0
DWIDTH 8 0
BBX 8 14 0 0
BITMAP
0C00
1800
3000
0000
3800
1800
1800
1800
1800
3C00
0000
0000
0000
0000
ENDCHAR
STARTCHAR U+00f3
ENCODING 243
SWIDTH 500 0
DWIDTH 8 0
BBX 8 14 0 0
BITMAP
0C00
1800
3000
0000
3E00
6300
6300
6300
6300
3E00
0000
0000
0000
0000
ENDCHAR
STARTCHAR U+00fa
ENCODING 250
SWIDTH 500 0
DWIDTH 8 0
BBX 8 14 0 0
BITMAP
0C00
1800
3000
0000
6600
6600
6600
6600
6600
3B00
0000
0000
0000
0000
ENDCHAR
STARTCHAR U+00f1
ENCODING 241
SWIDTH 500 0
DWIDTH 8 0
BBX 8 13 0 0
BITMAP
3B00
6E00
0000
6E00
3300
3300
3300
3300
3300
0000
0000
0000
0000
ENDCHAR
STARTCHAR U+00d1
ENCODING 209
SWIDTH 500 0
DWIDTH 8 0
BBX 8 15 0 0
BITMAP
3B00
6E00
0000
6300
7300
7B00
7F00
6F00
6700
6300
6300
0000
0000
0000
0000
ENDCHAR
STARTCHAR U+00aa
ENCODING 170
SWIDTH 500 0
DWIDTH 16 0
BBX 16 12 0 0
BITMAP
07F0
0C18
0018
07F8
0C18
0C18
0C38
07D8
0000
3FFE
0000
0000
ENDCHAR
STARTCHAR U+00ba
ENCODING 186
SWIDTH 500 0
DWIDTH 16 0
BBX 16 12 0 0
BITMAP
01C0
0630
0C18
0C18
0C18
0C18
0630
01C0
0000
3FFE
0000
0000
ENDCHAR
STARTCHAR U+00bf
ENCODING 191
SWIDTH 500 0
DWIDTH 16 0
BBX 16 14 0 0
BITMAP
0180
0180
0000
0180
0180
0180
0180
0300
0630
0C18
0C18
0630
03E0
0000
ENDCHAR
STARTCHAR U+2310
ENCODING 8976
SWIDTH 500 0
DWIDTH 16 0
BBX 16 11 0 0
BITMAP
3FFC
3000
3000
3000
3000
3000
0000
0000
0000
0000
0000
ENDCHAR
STARTCHAR U+00ac
ENCODING 172
SWIDTH 500 0
DWIDTH 16 0
BBX 16 11 0 0
BITMAP
3FFC
000C
000C
000C
000C
000C
0000
0000
0000
0000
0000
ENDCHAR
STARTCHAR U+00bd
ENCODING 189
SWIDTH 500 0
DWIDTH 16 0
BBX 16 14 0 0
BITMAP
1004
3008
1010
1020
1040
10BC
1142
3A02
0404
0808
1010
2022
407E
0000
ENDCHAR
STARTCHAR U+00bc
ENCODING 188
SWIDTH 500 0
DWIDTH 16 0
BBX 16 14 0 0
BITMAP
1004
3008
1010
1020
1040
1088
1118
3A28
0448
0888
11FE
2008
4008
0000
ENDCHAR
STARTCHAR U+00a1
ENCODING 161
SWIDTH 500 0
DWIDTH 16 0
BBX 16 14 0 0
BITMAP
0180
0180
0000
0180
0180
0180
0180
0180
03C0
03C0
03C0
03C0
0180
0000
ENDCHAR
STARTCHAR U+00ab
ENCODING 171
SWIDTH 500 0
DWIDTH 8 0
BBX 8 11 0 0
BITMAP
1B00
3600
6C00
3600
1B00
0000
0000
0000
0000
0000
0000
ENDCHAR
STARTCHAR U+00bb
ENCODING 187
SWIDTH 500 0
DWIDTH 8 0
BBX 8 11 0 0
BITMAP
6C00
3600
1B00
3600
6C00
0000
0000
0000
0000
0000
0000
ENDCHAR
STARTCHAR U+2591
ENCODING 9617
SWIDTH 500 0
DWIDTH 16 0
BBX 16 16 0 0
BITMAP
6666
9999
6666
9999
6666
9999
6666
9999
6666
9999
6666
9999
6666
9999
6666
9999
ENDCHAR
STARTCHAR U+2592
ENCODING 9618
SWIDTH 500 0
DWIDTH 16 0
BBX 16 16 0 0
BITMAP
AAAA
5555
AAAA
5555
AAAA
5555
AAAA
5555
AAAA
5555
AAAA
5555
AAAA
5555
AAAA
5555
ENDCHAR
STARTCHAR U+2593
ENCODING 9619
SWIDTH 500 0
DWIDTH 16 0
BBX 16 16 0 0
BITMAP
CCCC
CCCC
3333
3333
CCCC
CCCC
3333
3333
CCCC
CCCC
3333
3333
CCCC
CCCC
3333
3333
ENDCHAR
STARTCHAR U+2502
ENCODING 9474
SWIDTH 500 0
DWIDTH 8 0
BBX 8 16 0 0
BITMAP
0100
0100
0100
0100
0100
0100
0100
0100
0100
0100
0100
0100
0100
0100
0100
0100
ENDCHAR
STARTCHAR U+2524
ENCODING 9508
SWIDTH 500 0
DWIDTH 8 0
BBX 8 16 0 0
BITMAP
0100
0100
0100
0100
0100
0100
0100
FF00
0100
0100
0100
0100
0100
0100
0100
0100
ENDCHAR
STARTCHAR U+2561
ENCODING 9569
SWIDTH 500 0
DWIDTH 8 0
BBX 8 16 0 0
BITMAP
0100
0100
0100
0100
0100
0100
FF00
0100
0100
FF00
0100
0100
0100
0100
0100
0100
ENDCHAR
STARTCHAR U+2562
ENCODING 9570
SWIDTH 500 0
DWIDTH 16 0
BBX 16 16 0 0
BITMAP
0240
0240
0240
0240
0240
0240
0240
FE40
0240
0240
0240
0240
0240
0240
0240
0240
ENDCHAR
STARTCHAR U+2556
ENCODING 9558
SWIDTH 500 0
DWIDTH 16 0
BBX 16 9 0 0
BITMAP
FFC0
0240
0240
0240
0240
0240
0240
0240
0240
ENDCHAR
STARTCHAR U+2555
ENCODING 9557
SWIDTH 500 0
DWIDTH 8 0
BBX 8 10 0 0
BITMAP
FF00
0100
0100
FF00
0100
0100
0100
0100
0100
0100
ENDCHAR
STARTCHAR U+2563
ENCODING 9571
SWIDTH 500 0
DWIDTH 16 0
BBX 16 16 0 0
BITMAP
0240
0240
0240
0240
0240
0240
FE40
0040
0040
FE40
0240
0240
0240
0240
0240
0240
ENDCHAR
STARTCHAR U+2551
ENCODING 9553
SWIDTH 500 0
DWIDTH 16 0
BBX 16 16 0 0
BITMAP
0240
0240
0240
0240
0240
0240
0240
0240
0240
0240
0240
0240
0240
0240
0240
0240
ENDCHAR
STARTCHAR U+2557
ENCODING 9559
SWIDTH 500 0
DWIDTH 16 0
BBX 16 10 0 0
BITMAP
FFC0
0040
0040
FE40
0240
0240
0240
0240
0240
0240
ENDCHAR
STARTCHAR U+255d
ENCODING 9565
SWIDTH 500 0
DWIDTH 16 0
BBX 16 16 0 0
BITMAP
0240
0240
0240
0240
0240
0240
FE40
0040
0040
FFC0
0000
0000
0000
0000
0000
0000
ENDCHAR
STARTCHAR U+255c
ENCODING 9564
SWIDTH 500 0
DWIDTH 16 0
BBX 16 16 0 0
BITMAP
0240
0240
0240
0240
0240
0240
0240
FFC0
0000
0000
0000
0000
0000
0000
0000
0000
ENDCHAR
STARTCHAR U+255b
ENCODING 9563
SWIDTH 500 0
DWIDTH 8 0
BBX 8 16 0 0
BITMAP
0100
0100
0100
0100
0100
0100
FF00
0100
0100
FF00
0000
0000
0000
0000
0000
0000
ENDCHAR
STARTCHAR U+2510
ENCODING 9488
SWIDTH 500 0
DWIDTH 8 0
BBX 8 9 0 0
BITMAP
FF00
0100
0100
0100
0100
0100
0100
0100
0100
ENDCHAR
STARTCHAR U+2514
ENCODING 9492
SWIDTH 500 0
DWIDTH 16 0
BBX 16 16 0 0
BITMAP
0100
0100
0100
0100
0100
0100
0100
01FF
0000
0000
0000
0000
0000
0000
0000
0000
ENDCHAR
STARTCHAR U+2534
ENCODING 9524
SWIDTH 500 0
DWIDTH 16 0
BBX 16 16 0 0
BITMAP
0100
0100
0100
0100
0100
0100
0100
FFFF
0000
0000
0000
0000
0000
0000
0000
0000
ENDCHAR
STARTCHAR U+252c
ENCODING 9516
SWIDTH 500 0
DWIDTH 16 0
BBX 16 9 0 0
BITMAP
FFFF
0100
0100
0100
0100
0100
0100
0100
0100
ENDCHAR
STARTCHAR U+251c
ENCODING 9500
SWIDTH 500 0
DWIDTH 16 0
BBX 16 16 0 0
BITMAP
0100
0100
0100
0100
0100
0100
0100
01FF
0100
0100
0100
0100
0100
0100
0100
0100
ENDCHAR
STARTCHAR U+2500
ENCODING 9472
SWIDTH 500 0
DWIDTH 16 0
BBX 16 9 0 0
BITMAP
FFFF
0000
0000
0000
0000
0000
0000
0000
0000
ENDCHAR
STARTCHAR U+253c
ENCODING 9532
SWIDTH 500 0
DWIDTH 16 0
BBX 16 16 0 0
BITMAP
0100
0100
0100
0100
0100
0100
0100
FFFF
0100
0100
0100
0100
0100
0100
0100
0100
ENDCHAR
STARTCHAR U+255e
ENCODING 9566
SWIDTH 500 0
DWIDTH 16 0
BBX 16 16 0 0
BITMAP
0100
0100
0100
0100
0100
0100
01FF
0100
0100
01FF
0100
0100
0100
0100
0100
0100
ENDCHAR
STARTCHAR U+255f
ENCODING 9567
SWIDTH 500 0
DWIDTH 16 0
BBX 16 16 0 0
BITMAP
0240
0240
0240
0240
0240
0240
0240
027F
0240
0240
0240
0240
0240
0240
0240
0240
ENDCHAR
STARTCHAR U+255a
ENCODING 9562
SWIDTH 500 0
DWIDTH 16 0
BBX 16 16 0 0
BITMAP
0240
0240
0240
0240
0240
0240
027F
0200
0200
03FF
0000
0000
0000
0000
0000
0000
ENDCHAR
STARTCHAR U+2554
ENCODING 9556
SWIDTH 500 0
DWIDTH 16 0
BBX 16 10 0 0
BITMAP
03FF
0200
0200
027F
0240
0240
0240
0240
0240
0240
ENDCHAR
STARTCHAR U+2569
ENCODING 9577
SWIDTH 500 0
DWIDTH 16 0
BBX 16 16 0 0
BITMAP
0240
0240
0240
0240
0240
0240
FE7F
0000
0000
FFFF
0000
0000
0000
0000
0000
0000
ENDCHAR
STARTCHAR U+2566
ENCODING 9574
SWIDTH 500 0
DWIDTH 16 0
BBX 16 10 0 0
BITMAP
FFFF
0000
0000
FE7F
0240
0240
0240
0240
0240
0240
ENDCHAR
STARTCHAR U+2560
ENCODING 9568
SWIDTH 500 0
DWIDTH 16 0
BBX 16 16 0 0
BITMAP
0240
0240
0240
0240
0240
0240
027F
0200
0200
027F
0240
0240
0240
0240
0240
0240
ENDCHAR
STARTCHAR U+2550
ENCODING 9552
SWIDTH 500 0
DWIDTH 16 0
BBX 16 10 0 0
BITMAP
FFFF
0000
0000
FFFF
0000
0000
0000
0000
0000
0000
ENDCHAR
STARTCHAR U+256c
ENCODING 9580
SWIDTH 500 0
DWIDTH 16 0
BBX 16 16 0 0
BITMAP
0240
0240
0240
0240
0240
0240
FE7F
0000
0000
FE7F
0240
0240
0240
0240
0240
0240
ENDCHAR
STARTCHAR U+2567
ENCODING 9575
SWIDTH 500 0
DWIDTH 16 0
BBX 16 16 0 0
BITMAP
0100
0100
0100
0100
0100
0100
FFFF
0000
0000
FFFF
0000
0000
0000
0000
0000
0000
ENDCHAR
STARTCHAR U+2568
ENCODING 9576
SWIDTH 500 0
DWIDTH 16 0
BBX 16 16 0 0
BITMAP
0240
0240
0240
0240
0240
0240
0240
FFFF
0000
0000
0000
0000
0000
0000
0000
0000
ENDCHAR
STARTCHAR U+2564
ENCODING 9572
SWIDTH 500 0
DWIDTH 16 0
BBX 16 10 0 0
BITMAP
FFFF
0000
0000
FFFF
0100
0100
0100
0100
0100
0100
ENDCHAR
STARTCHAR U+2565
ENCODING 9573
SWIDTH 500 0
DWIDTH 16 0
BBX 16 9 0 0
BITMAP
FFFF
0240
0240
0240
0240
0240
0240
0240
0240
ENDCHAR
STARTCHAR U+2559
ENCODING 9561
SWIDTH 500 0
DWIDTH 16 0
BBX 16 16 0 0
BITMAP
0240
0240
0240
0240
0240
0240
0240
03FF
0000
0000
0000
0000
0000
0000
0000
0000
ENDCHAR
STARTCHAR U+2558
ENCODING 9560
SWIDTH 500 0
DWIDTH 16 0
BBX 16 16 0 0
BITMAP
0100
0100
0100
0100
0100
0100
01FF
0100
0100
01FF
0000
0000
0000
0000
0000
0000
ENDCHAR
STARTCHAR U+2552
ENCODING 9554
SWIDTH 500 0
DWIDTH 16 0
BBX 16 10 0 0
BITMAP
01FF
0100
0100
01FF
0100
0100
0100
0100
0100
0100
ENDCHAR
STARTCHAR U+2553
ENCODING 9555
SWIDTH 500 0
DWIDTH 16 0
BBX 16 9 0 0
BITMAP
03FF
0240
0240
0240
0240
0240
0240
0240
0240
ENDCHAR
STARTCHAR U+256b
ENCODING 9579
SWIDTH 500 0
DWIDTH 16 0
BBX 16 16 0 0
BITMAP
0240
0240
0240
0240
0240
0240
0240
FFFF
0240
0240
0240
0240
0240
0240
0240
0240
ENDCHAR
STARTCHAR U+256a
ENCODING 9578
SWIDTH 500 0
DWIDTH 16 0
BBX 16 16 0 0
BITMAP
0100
0100
0100
0100
0100
0100
FFFF
0100
0100
FFFF
0100
0100
0100
0100
0100
0100
ENDCHAR
STARTCHAR U+2518
ENCODING 9496
SWIDTH 500 0
DWIDTH 8 0
BBX 8 16 0 0
BITMAP
0100
0100
0100
0100
0100
0100
0100
FF00
0000
0000
0000
0000
0000
0000
0000
0000
ENDCHAR
STARTCHAR U+250c
ENCODING 9484
SWIDTH 500 0
DWIDTH 16 0
BBX 16 9 0 0
BITMAP
01FF
0100
0100
0100
0100
0100
0100
0100
0100
ENDCHAR
STARTCHAR U+2588
ENCODING 9608
SWIDTH 500 0
DWIDTH 16 0
BBX 16 16 0 0
BITMAP
FFFF
FFFF
FFFF
FFFF
FFFF
FFFF
FFFF
FFFF
FFFF
FFFF
FFFF
FFFF
FFFF
FFFF
FFFF
FFFF
ENDCHAR
STARTCHAR U+2584
ENCODING 9604
SWIDTH 500 0
DWIDTH 16 0
BBX 16 8 0 0
BITMAP
FFFF
FFFF
FFFF
FFFF
FFFF
FFFF
FFFF
FFFF
ENDCHAR
STARTCHAR U+258c
ENCODING 9612
SWIDTH 500 0
DWIDTH 8 0
BBX 8 16 0 0
BITMAP
FF00
FF00
FF00
FF00
FF00
FF00
FF00
FF00
FF00
FF00
FF00
FF00
FF00
FF00
FF00
FF00
ENDCHAR
STARTCHAR U+2590
ENCODING 9616
SWIDTH 500 0
DWIDTH 16 0
BBX 16 16 0 0
BITMAP
01FF
01FF
01FF
01FF
01FF
01FF
01FF
01FF
01FF
01FF
01FF
01FF
01FF
01FF
01FF
01FF
ENDCHAR
STARTCHAR U+2580
ENCODING 9600
SWIDTH 500 0
DWIDTH 16 0
BBX 16 16 0 0
BITMAP
FFFF
FFFF
FFFF
FFFF
FFFF
FFFF
FFFF
FFFF
0000
0000
0000
0000
0000
0000
0000
0000
ENDCHAR
STARTCHAR U+03b1
ENCODING 945
SWIDTH 500 0
DWIDTH 16 0
BBX 16 11 0 0
BITMAP
03C4
0E68
1830
1830
3060
3060
18F0
0F9C
0000
0000
0000
ENDCHAR
STARTCHAR U+00df
ENCODING 223
SWIDTH 500 0
DWIDTH 16 0
BBX 16 14 0 0
BITMAP
0F00
1980
30C0
30C0
31C0
3380
3060
3030
3030
3460
33C0
F000
0000
0000
ENDCHAR
STARTCHAR U+0393
ENCODING 915
SWIDTH 500 0
DWIDTH 16 0
BBX 16 14 0 0
BITMAP
1FFC
0C0C
0C04
0C00
0C00
0C00
1800
1800
1800
1800
3C00
0000
0000
0000
ENDCHAR
STARTCHAR U+03c0
ENCODING 960
SWIDTH 500 0
DWIDTH 16 0
BBX 16 11 0 0
BITMAP
3FFE
4630
4630
0630
0C60
0C60
1864
3038
0000
0000
0000
ENDCHAR
STARTCHAR U+03a3
ENCODING 931
SWIDTH 500 0
DWIDTH 16 0
BBX 16 14 0 0
BITMAP
3FFC
180C
0C04
0600
0300
0300
0400
0800
1008
3FF8
7FF8
0000
0000
0000
ENDCHAR
STARTCHAR U+03c3
ENCODING 963
SWIDTH 500 0
DWIDTH 16 0
BBX 16 12 0 0
BITMAP
0004
03F8
0C80
1860
3020
3030
3030
1860
0F80
0000
0000
0000
ENDCHAR
STARTCHAR U+00b5
ENCODING 181
SWIDTH 500 0
DWIDTH 16 0
BBX 16 13 0 0
BITMAP
0318
0318
0318
0398
03D8
0370
0300
0300
1B00
0E00
0000
0000
0000
ENDCHAR
STARTCHAR U+03c4
ENCODING 964
SWIDTH 500 0
DWIDTH 16 0
BBX 16 11 0 0
BITMAP
3FFC
4060
0060
00C0
00C0
0180
0188
00F0
0000
0000
0000
ENDCHAR
STARTCHAR U+03a6
ENCODING 934
SWIDTH 500 0
DWIDTH 16 0
BBX 16 14 0 0
BITMAP
01E0
00C0
07F8
0CCC
18C6
30C6
318C
1998
0FF0
0180
03C0
0000
0000
0000
ENDCHAR
STARTCHAR U+0398
ENCODING 920
SWIDTH 500 0
DWIDTH 16 0
BBX 16 14 0 0
BITMAP
03B8
060C
0C06
0D16
0DF6
1BEC
1A2C
180C
180C
0C18
0770
0000
0000
0000
ENDCHAR
STARTCHAR U+03a9
ENCODING 937
SWIDTH 500 0
DWIDTH 16 0
BBX 16 14 0 0
BITMAP
03F0
0E18
180C
300C
300C
3018
1830
0C60
26C4
3EF8
7EF8
0000
0000
0000
ENDCHAR
STARTCHAR U+03b4
ENCODING 948
SWIDTH 500 0
DWIDTH 16 0
BBX 16 14 0 0
BITMAP
03E0
0C10
0C00
0300
0180
06C0
0C60
1820
1060
18C0
0F80
0000
0000
0000
ENDCHAR
STARTCHAR U+221e
ENCODING 8734
SWIDTH 500 0
DWIDTH 16 0
BBX 16 11 0 0
BITMAP
1C70
2288
4104
4104
4104
2288
1C70
0000
0000
0000
0000
ENDCHAR
STARTCHAR U+03c6
ENCODING 966
SWIDTH 500 0
DWIDTH 16 0
BBX 16 11 0 0
BITMAP
0060
0498
188C
188C
3118
3118
1930
07C0
0100
0100
0200
ENDCHAR
STARTCHAR U+03b5
ENCODING 949
SWIDTH 500 0
DWIDTH 16 0
BBX 16 11 0 0
BITMAP
0780
1860
1810
0FC0
3800
3010
3060
0F80
0000
0000
0000
ENDCHAR
STARTCHAR U+2229
ENCODING 8745
SWIDTH 500 0
DWIDTH 16 0
BBX 16 13 0 0
BITMAP
03C0
0C30
1008
1008
1008
1008
1008
1008
1008
1008
0000
0000
0000
ENDCHAR
STARTCHAR U+2261
ENCODING 8801
SWIDTH 500 0
DWIDTH 16 0
BBX 16 11 0 0
BITMAP
3FFC
0000
0000
3FFC
0000
0000
3FFC
0000
0000
0000
0000
ENDCHAR
STARTCHAR U+00b1
ENCODING 177
SWIDTH 500 0
DWIDTH 16 0
BBX 16 14 0 0
BITMAP
0180
0180
0180
0180
1FF8
0180
0180
0180
0180
0000
1FF8
0000
0000
0000
ENDCHAR
STARTCHAR U+2265
ENCODING 8805
SWIDTH 500 0
DWIDTH 16 0
BBX 16 14 0 0
BITMAP
0C00
0300
00C0
0030
000C
0030
00C0
0300
0C00
0000
1FFC
0000
0000
0000
ENDCHAR
STARTCHAR U+2264
ENCODING 8804
SWIDTH 500 0
DWIDTH 16 0
BBX 16 14 0 0
BITMAP
0030
00C0
0300
0C00
3000
0C00
0300
00C0
0030
0000
7FF8
0000
0000
0000
ENDCHAR
STARTCHAR U+2320
ENCODING 8992
SWIDTH 500 0
DWIDTH 16 0
BBX 16 13 0 0
BITMAP
00E0
01B0
0330
0300
0300
0300
0300
0300
0300
0300
0300
0300
0300
ENDCHAR
STARTCHAR U+2321
ENCODING 8993
SWIDTH 500 0
DWIDTH 8 0
BBX 8 16 0 0
BITMAP
0300
0300
0300
0300
0300
0300
0300
0300
0300
0300
0300
0600
1C00
0000
0000
0000
ENDCHAR
STARTCHAR U+00f7
ENCODING 247
SWIDTH 500 0
DWIDTH 16 0
BBX 16 13 0 0
BITMAP
0180
03C0
0180
0000
0000
3FFC
0000
0000
0180
03C0
0180
0000
0000
ENDCHAR
STARTCHAR U+2248
ENCODING 8776
SWIDTH 500 0
DWIDTH 16 0
BBX 16 14 0 0
BITMAP
0018
3E0C
630C
6198
30F0
0000
0018
3E0C
630C
6198
30F0
0000
0000
0000
ENDCHAR
STARTCHAR U+00b0
ENCODING 176
SWIDTH 500 0
DWIDTH 16 0
BBX 16 13 0 0
BITMAP
0300
0480
0480
0300
0000
0000
0000
0000
0000
0000
0000
0000
0000
ENDCHAR
STARTCHAR U+2219
ENCODING 8729
SWIDTH 500 0
DWIDTH 16 0
BBX 16 11 0 0
BITMAP
0380
07C0
0FE0
0FE0
07C0
0380
0000
0000
0000
0000
0000
ENDCHAR
STARTCHAR U+00b7
ENCODING 183
SWIDTH 500 0
DWIDTH 16 0
BBX 16 10 0 0
BITMAP
0180
03C0
0180
0000
0000
0000
0000
0000
0000
0000
ENDCHAR
STARTCHAR U+221a
ENCODING 8730
SWIDTH 500 0
DWIDTH 16 0
BBX 16 13 0 0
BITMAP
03FE
0300
0300
0300
0300
2300
7300
DB00
8F00
0700
0300
0000
0000
ENDCHAR
STARTCHAR U+207f
ENCODING 8319
SWIDTH 500 0
DWIDTH 8 0
BBX 8 14 0 0
BITMAP
1600
0900
0900
0900
0900
0000
0000
0000
0000
0000
0000
0000
0000
0000
ENDCHAR
STARTCHAR U+00b2
ENCODING 178
SWIDTH 500 0
DWIDTH 8 0
BBX 8 14 0 0
BITMAP
0600
0900
0200
0400
0F00
0000
0000
0000
0000
0000
0000
0000
0000
0000
ENDCHAR
STARTCHAR U+25a0
ENCODING 9632
SWIDTH 500 0
DWIDTH 16 0
BBX 16 14 0 0
BITMAP
3FFC
3FFC
3FFC
3FFC
3FFC
3FFC
3FFC
3FFC
3FFC
3FFC
3FFC
3FFC
0000
0000
ENDCHAR
STARTCHAR U+00a0
ENCODING 160
SWIDTH 500 0
DWIDTH 8 0
BBX 8 0 0 0
BITMAP

ENDCHAR
STARTCHAR U+20a9
ENCODING 8361
SWIDTH 500 0
DWIDTH 8 0
BBX 8 14 0 0
BITMAP
6300
6300
6300
FF00
6300
FF00
6300
6B00
7F00
7700
6300
0000
0000
0000
ENDCHAR
STARTCHAR U+3000
ENCODING 12288
SWIDTH 500 0
DWIDTH 8 0
BBX 8 0 0 0
BITMAP

ENDCHAR
STARTCHAR U+f700
ENCODING 63232
SWIDTH 500 0
DWIDTH 16 0
BBX 16 15 0 0
BITMAP
5554
2AA8
5554
2AA8
5554
2AA8
5554
2AA8
5554
2AA8
5554
2AA8
5554
0000
0000
ENDCHAR
STARTCHAR U+f701
ENCODING 63233
SWIDTH 500 0
DWIDTH 16 0
BBX 16 14 0 0
BITMAP
07E0
0810
1008
2664
2664
2004
2004
2424
23C4
1008
0810
07E0
0000
0000
ENDCHAR
STARTCHAR U+f702
ENCODING 63234
SWIDTH 500 0
DWIDTH 16 0
BBX 16 14 0 0
BITMAP
07E0
0FF0
1FF8
399C
399C
3FFC
3FFC
3BDC
3C3C
1FF8
0FF0
07E0
0000
0000
ENDCHAR
STARTCHAR U+f703
ENCODING 63235
SWIDTH 500 0
DWIDTH 16 0
BBX 16 14 0 0
BITMAP
1C70
3EF8
7EFC
7FFC
7FFC
7FFC
7FFC
3FF8
1FF0
0FE0
07C0
0380
0100
0000
ENDCHAR
STARTCHAR U+f704
ENCODING 63236
SWIDTH 500 0
DWIDTH 16 0
BBX 16 14 0 0
BITMAP
0100
0380
07C0
0FE0
1FF0
3FF8
1FF0
0FE0
07C0
0380
0100
0000
0000
0000
ENDCHAR
STARTCHAR U+f705
ENCODING 63237
SWIDTH 500 0
DWIDTH 16 0
BBX 16 14 0 0
BITMAP
0180
03C0
07E0
07E0
1BD8
3FFC
7FFE
7FFE
3DBC
1998
0180
07E0
0000
0000
ENDCHAR
STARTCHAR U+f706
ENCODING 63238
SWIDTH 500 0
DWIDTH 16 0
BBX 16 14 0 0
BITMAP
0100
0380
07C0
0FE0
1FF0
3FF8
7FFC
7FFC
3D78
0100
0100
0FE0
0000
0000
ENDCHAR
STARTCHAR U+f707
ENCODING 63239
SWIDTH 500 0
DWIDTH 16 0
BBX 16 10 0 0
BITMAP
0380
07C0
07C0
0380
0000
0000
0000
0000
0000
0000
ENDCHAR
STARTCHAR U+f708
ENCODING 63240
SWIDTH 500 0
DWIDTH 16 0
BBX 16 16 0 0
BITMAP
FFFF
FFFF
FFFF
FFFF
FFFF
FFFF
FC7F
FBBF
FBBF
FC7F
FFFF
FFFF
FFFF
FFFF
FFFF
FFFF
ENDCHAR
STARTCHAR U+f709
ENCODING 63241
SWIDTH 500 0
DWIDTH 16 0
BBX 16 14 0 0
BITMAP
0FF0
1FF8
381C
300C
300C
300C
300C
300C
300C
381C
1FF8
0FF0
0000
0000
ENDCHAR
STARTCHAR U+f70a
ENCODING 63242
SWIDTH 500 0
DWIDTH 16 0
BBX 16 16 0 0
BITMAP
FFFF
FFFF
FC3F
FBDF
F7EF
EFF7
EFF7
EFF7
EFF7
EFF7
EFF7
F7EF
FBDF
FC3F
FFFF
FFFF
ENDCHAR
STARTCHAR U+f70b
ENCODING 63243
SWIDTH 500 0
DWIDTH 16 0
BBX 16 13 0 0
BITMAP
007C
000C
0014
0024
1F44
2080
4040
4040
4040
2080
1F00
0000
0000
ENDCHAR
STARTCHAR U+f70c
ENCODING 63244
SWIDTH 500 0
DWIDTH 16 0
BBX 16 14 0 0
BITMAP
07C0
0820
1010
1010
1010
0820
07C0
0100
1FF0
0100
0100
0100
0000
0000
ENDCHAR
STARTCHAR U+f70d
ENCODING 63245
SWIDTH 500 0
DWIDTH 16 0
BBX 16 14 0 0
BITMAP
0300
03C0
0260
0210
0210
0210
0210
0220
0E00
1E00
3E00
1C00
0000
0000
ENDCHAR
STARTCHAR U+f70e
ENCODING 63246
SWIDTH 500 0
DWIDTH 16 0
BBX 16 14 0 0
BITMAP
0700
07C0
0460
07A0
07E0
0460
0420
0420
0420
1C20
3CE0
39E0
01C0
0000
ENDCHAR
STARTCHAR U+f70f
ENCODING 63247
SWIDTH 500 0
DWIDTH 16 0
BBX 16 14 0 0
BITMAP
0100
0100
27C8
1830
1010
F01E
1010
1830
27C8
0100
0100
0000
0000
0000
ENDCHAR
STARTCHAR U+f710
ENCODING 63248
SWIDTH 500 0
DWIDTH 16 0
BBX 16 12 0 0
BITMAP
3000
3E00
3F80
3FE0
3FF0
3FC0
3E00
3000
0000
0000
0000
0000
ENDCHAR
STARTCHAR U+f711
ENCODING 63249
SWIDTH 500 0
DWIDTH 16 0
BBX 16 13 0 0
BITMAP
000C
003C
00FC
03FC
0FFC
03FC
00FC
003C
000C
0000
0000
0000
0000
ENDCHAR
STARTCHAR U+f712
ENCODING 63250
SWIDTH 500 0
DWIDTH 16 0
BBX 16 14 0 0
BITMAP
0100
0380
0540
0920
0100
0100
0100
0100
0920
0540
0380
0100
0000
0000
ENDCHAR
STARTCHAR U+f713
ENCODING 63251
SWIDTH 500 0
DWIDTH 16 0
BBX 16 14 0 0
BITMAP
1C70
1C70
1C70
1C70
1C70
1C70
1C70
0820
0000
1C70
1C70
0000
0000
0000
ENDCHAR
STARTCHAR U+f714
ENCODING 63252
SWIDTH 500 0
DWIDTH 16 0
BBX 16 14 0 0
BITMAP
0FFE
1B18
3318
3318
3318
1F18
0F18
0318
0318
0318
0318
0318
0000
0000
ENDCHAR
STARTCHAR U+f715
ENCODING 63253
SWIDTH 500 0
DWIDTH 16 0
BBX 16 14 0 0
BITMAP
03E0
0630
0C18
0C00
1FE0
3630
3330
31B0
1FE0
0030
0C18
0630
03E0
0000
ENDCHAR
STARTCHAR U+f716
ENCODING 63254
SWIDTH 500 0
DWIDTH 16 0
BBX 16 10 0 0
BITMAP
0FF0
0FF0
0FF0
0000
0000
0000
0000
0000
0000
0000
ENDCHAR
STARTCHAR U+f717
ENCODING 63255
SWIDTH 500 0
DWIDTH 16 0
BBX 16 14 0 0
BITMAP
0100
0380
0540
0920
0100
0100
0920
0540
0380
0100
0000
1FF0
0000
0000
ENDCHAR
STARTCHAR U+f718
ENCODING 63256
SWIDTH 500 0
DWIDTH 16 0
BBX 16 14 0 0
BITMAP
0100
0380
0540
0920
0100
0100
0100
0100
0100
0100
0100
0100
0000
0000
ENDCHAR
STARTCHAR U+f719
ENCODING 63257
SWIDTH 500 0
DWIDTH 16 0
BBX 16 14 0 0
BITMAP
0100
0100
0100
0100
0100
0100
0100
0100
0920
0540
0380
0100
0000
0000
ENDCHAR
STARTCHAR U+f71a
ENCODING 63258
SWIDTH 500 0
DWIDTH 16 0
BBX 16 12 0 0
BITMAP
0020
0010
0008
3FFC
0008
0010
0020
0000
0000
0000
0000
0000
ENDCHAR
STARTCHAR U+f71b
ENCODING 63259
SWIDTH 500 0
DWIDTH 16 0
BBX 16 12 0 0
BITMAP
0400
0800
1000
3FFC
1000
0800
0400
0000
0000
0000
0000
0000
ENDCHAR
STARTCHAR U+f71c
ENCODING 63260
SWIDTH 500 0
DWIDTH 16 0
BBX 16 12 0 0
BITMAP
3000
3000
3000
3000
3000
3000
3000
3FFC
0000
0000
0000
0000
ENDCHAR
STARTCHAR U+f71d
ENCODING 63261
SWIDTH 500 0
DWIDTH 16 0
BBX 16 11 0 0
BITMAP
0810
1008
3FFC
1008
0810
0000
0000
0000
0000
0000
0000
ENDCHAR
STARTCHAR U+f71e
ENCODING 63262
SWIDTH 500 0
DWIDTH 16 0
BBX 16 12 0 0
BITMAP
0100
0380
07C0
0FE0
1FF0
3FF8
7FFC
0000
0000
0000
0000
0000
ENDCHAR
STARTCHAR U+f71f
ENCODING 63263
SWIDTH 500 0
DWIDTH 16 0
BBX 16 12 0 0
BITMAP
7FFC
3FF8
1FF0
0FE0
07C0
0380
0100
0000
0000
0000
0000
0000
ENDCHAR
STARTCHAR U+f7a0
ENCODING 63392
SWIDTH 500 0
DWIDTH 16 0
BBX 16 15 0 0
BITMAP
1FF8
1008
1008
1008
1008
1008
1FF8
1008
1008
1008
1008
1008
1FF8
1008
0000
ENDCHAR
STARTCHAR U+f7a1
ENCODING 63393
SWIDTH 500 0
DWIDTH 16 0
BBX 16 15 0 0
BITMAP
0FF8
0808
0808
0808
0FF8
0808
0808
0808
0FF8
0808
1008
1008
1008
2038
0000
ENDCHAR
STARTCHAR U+f7a2
ENCODING 63394
SWIDTH 500 0
DWIDTH 16 0
BBX 16 15 0 0
BITMAP
0100
4104
2104
2104
1108
1110
0280
0280
0280
0440
0440
0820
1010
600C
0000
ENDCHAR
STARTCHAR U+f7a3
ENCODING 63395
SWIDTH 500 0
DWIDTH 16 0
BBX 16 15 0 0
BITMAP
0080
0080
0082
008C
7FB0
21C0
02A0
02A0
0490
0490
0888
1084
6083
0080
0000
ENDCHAR
STARTCHAR U+f7a4
ENCODING 63396
SWIDTH 500 0
DWIDTH 16 0
BBX 16 15 0 0
BITMAP
0080
0080
0080
0080
7FFF
01C0
02A0
02A0
0490
0490
0888
1084
6183
0080
0000
ENDCHAR
STARTCHAR U+f7a5
ENCODING 63397
SWIDTH 500 0
DWIDTH 16 0
BBX 16 15 0 0
BITMAP
0100
0280
0440
1830
600C
0FE0
0100
0100
1FF0
0100
1110
0920
0100
FFFE
0000
ENDCHAR
STARTCHAR U+f7a6
ENCODING 63398
SWIDTH 500 0
DWIDTH 16 0
BBX 16 15 0 0
BITMAP
0080
0080
0080
0080
0080
1FFC
0080
0080
0080
0080
0080
0080
0080
3FFE
0000
ENDCHAR
STARTCHAR U+f7a7
ENCODING 63399
SWIDTH 500 0
DWIDTH 16 0
BBX 16 15 0 0
BITMAP
0400
0400
0FF8
1080
0080
0FF8
0880
0880
7FFE
0080
0080
0080
0080
0080
0000
ENDCHAR
STARTCHAR U+f7a8
ENCODING 63400
SWIDTH 500 0
DWIDTH 16 0
BBX 16 15 0 0
BITMAP
1FF8
2004
4002
43C2
4422
399C
1248
2244
4242
4182
4002
6006
3FFC
0C30
0000
ENDCHAR
STARTCHAR U+f7a9
ENCODING 63401
SWIDTH 500 0
DWIDTH 16 0
BBX 16 11 0 0
BITMAP
3FFC
3000
3000
3000
3000
3000
0000
0000
0000
0000
0000
ENDCHAR
STARTCHAR U+f7aa
ENCODING 63402
SWIDTH 500 0
DWIDTH 16 0
BBX 16 11 0 0
BITMAP
3FFC
000C
000C
000C
000C
000C
0000
0000
0000
0000
0000
ENDCHAR
STARTCHAR U+f7ab
ENCODING 63403
SWIDTH 500 0
DWIDTH 16 0
BBX 16 14 0 0
BITMAP
1004
3008
1010
1020
1040
10B8
1144
3A04
0438
0840
1040
207C
0000
0000
ENDCHAR
STARTCHAR U+f7ac
ENCODING 63404
SWIDTH 500 0
DWIDTH 16 0
BBX 16 14 0 0
BITMAP
1004
3008
1010
1020
1048
1098
1128
3A48
0488
08FC
1008
2008
0000
0000
ENDCHAR
STARTCHAR U+f7ad
ENCODING 63405
SWIDTH 500 0
DWIDTH 16 0
BBX 16 1 0 0
BITMAP
FFFF
ENDCHAR
STARTCHAR U+f7ae
ENCODING 63406
SWIDTH 500 0
DWIDTH 16 0
BBX 16 11 0 0
BITMAP
0E00
1F04
318C
20F8
0070
0000
0000
0000
0000
0000
0000
ENDCHAR
STARTCHAR U+f7af
ENCODING 63407
SWIDTH 500 0
DWIDTH 16 0
BBX 16 16 0 0
BITMAP
FFFF
B43F
B43F
B7BF
843F
843F
B5FF
8421
8421
FFED
CE61
CE61
FFFF
FFFF
FFFF
FFFF
ENDCHAR
STARTCHAR U+f7b0
ENCODING 63408
SWIDTH 500 0
DWIDTH 16 0
BBX 16 16 0 0
BITMAP
6666
9999
6666
9999
6666
9999
6666
9999
6666
9999
6666
9999
6666
9999
6666
9999
ENDCHAR
STARTCHAR U+f7b1
ENCODING 63409
SWIDTH 500 0
DWIDTH 16 0
BBX 16 16 0 0
BITMAP
AAAA
5555
AAAA
5555
AAAA
5555
AAAA
5555
AAAA
5555
AAAA
5555
AAAA
5555
AAAA
5555
ENDCHAR
STARTCHAR U+f7b2
ENCODING 63410
SWIDTH 500 0
DWIDTH 16 0
BBX 16 16 0 0
BITMAP
CCCC
CCCC
3333
3333
CCCC
CCCC
3333
3333
CCCC
CCCC
3333
3333
CCCC
CCCC
3333
3333
ENDCHAR
STARTCHAR U+f7b3
ENCODING 63411
SWIDTH 500 0
DWIDTH 8 0
BBX 8 16 0 0
BITMAP
0100
0100
0100
0100
0100
0100
0100
0100
0100
0100
0100
0100
0100
0100
0100
0100
ENDCHAR
STARTCHAR U+f7b4
ENCODING 63412
SWIDTH 500 0
DWIDTH 8 0
BBX 8 16 0 0
BITMAP
0100
0100
0100
0100
0100
0100
0100
FF00
0100
0100
0100
0100
0100
0100
0100
0100
ENDCHAR
STARTCHAR U+f7b5
ENCODING 63413
SWIDTH 500 0
DWIDTH 8 0
BBX 8 16 0 0
BITMAP
0100
0100
0100
0100
0100
0100
FF00
0100
0100
FF00
0100
0100
0100
0100
0100
0100
ENDCHAR
STARTCHAR U+f7b6
ENCODING 63414
SWIDTH 500 0
DWIDTH 16 0
BBX 16 16 0 0
BITMAP
0240
0240
0240
0240
0240
0240
0240
FE40
0240
0240
0240
0240
0240
0240
0240
0240
ENDCHAR
STARTCHAR U+f7b7
ENCODING 63415
SWIDTH 500 0
DWIDTH 16 0
BBX 16 9 0 0
BITMAP
FFC0
0240
0240
0240
0240
0240
0240
0240
0240
ENDCHAR
STARTCHAR U+f7b8
ENCODING 63416
SWIDTH 500 0
DWIDTH 8 0
BBX 8 10 0 0
BITMAP
FF00
0100
0100
FF00
0100
0100
0100
0100
0100
0100
ENDCHAR
STARTCHAR U+f7b9
ENCODING 63417
SWIDTH 500 0
DWIDTH 16 0
BBX 16 16 0 0
BITMAP
0240
0240
0240
0240
0240
0240
FE40
0040
0040
FE40
0240
0240
0240
0240
0240
0240
ENDCHAR
STARTCHAR U+f7ba
ENCODING 63418
SWIDTH 500 0
DWIDTH 16 0
BBX 16 16 0 0
BITMAP
0240
0240
0240
0240
0240
0240
0240
0240
0240
0240
0240
0240
0240
0240
0240
0240
ENDCHAR
STARTCHAR U+f7bb
ENCODING 63419
SWIDTH 500 0
DWIDTH 16 0
BBX 16 10 0 0
BITMAP
FFC0
0040
0040
FE40
0240
0240
0240
0240
0240
0240
ENDCHAR
STARTCHAR U+f7bc
ENCODING 63420
SWIDTH 500 0
DWIDTH 16 0
BBX 16 16 0 0
BITMAP
0240
0240
0240
0240
0240
0240
FE40
0040
0040
FFC0
0000
0000
0000
0000
0000
0000
ENDCHAR
STARTCHAR U+f7bd
ENCODING 63421
SWIDTH 500 0
DWIDTH 16 0
BBX 16 16 0 0
BITMAP
0240
0240
0240
0240
0240
0240
0240
FFC0
0000
0000
0000
0000
0000
0000
0000
0000
ENDCHAR
STARTCHAR U+f7be
ENCODING 63422
SWIDTH 500 0
DWIDTH 8 0
BBX 8 16 0 0
BITMAP
0100
0100
0100
0100
0100
0100
FF00
0100
0100
FF00
0000
0000
0000
0000
0000
0000
ENDCHAR
STARTCHAR U+f7bf
ENCODING 63423
SWIDTH 500 0
DWIDTH 8 0
BBX 8 9 0 0
BITMAP
FF00
0100
0100
0100
0100
0100
0100
0100
0100
ENDCHAR
STARTCHAR U+f7c0
ENCODING 63424
SWIDTH 500 0
DWIDTH 16 0
BBX 16 16 0 0
BITMAP
0100
0100
0100
0100
0100
0100
0100
01FF
0000
0000
0000
0000
0000
0000
0000
0000
ENDCHAR
STARTCHAR U+f7c1
ENCODING 63425
SWIDTH 500 0
DWIDTH 16 0
BBX 16 16 0 0
BITMAP
0100
0100
0100
0100
0100
0100
0100
FFFF
0000
0000
0000
0000
0000
0000
0000
0000
ENDCHAR
STARTCHAR U+f7c2
ENCODING 63426
SWIDTH 500 0
DWIDTH 16 0
BBX 16 9 0 0
BITMAP
FFFF
0100
0100
0100
0100
0100
0100
0100
0100
ENDCHAR
STARTCHAR U+f7c3
ENCODING 63427
SWIDTH 500 0
DWIDTH 16 0
BBX 16 16 0 0
BITMAP
0100
0100
0100
0100
0100
0100
0100
01FF
0100
0100
0100
0100
0100
0100
0100
0100
ENDCHAR
STARTCHAR U+f7c4
ENCODING 63428
SWIDTH 500 0
DWIDTH 16 0
BBX 16 9 0 0
BITMAP
FFFF
0000
0000
0000
0000
0000
0000
0000
0000
ENDCHAR
STARTCHAR U+f7c5
ENCODING 63429
SWIDTH 500 0
DWIDTH 16 0
BBX 16 16 0 0
BITMAP
0100
0100
0100
0100
0100
0100
0100
FFFF
0100
0100
0100
0100
0100
0100
0100
0100
ENDCHAR
STARTCHAR U+f7c6
ENCODING 63430
SWIDTH 500 0
DWIDTH 16 0
BBX 16 16 0 0
BITMAP
0100
0100
0100
0100
0100
0100
01FF
0100
0100
01FF
0100
0100
0100
0100
0100
0100
ENDCHAR
STARTCHAR U+f7c7
ENCODING 63431
SWIDTH 500 0
DWIDTH 16 0
BBX 16 16 0 0
BITMAP
0240
0240
0240
0240
0240
0240
0240
027F
0240
0240
0240
0240
0240
0240
0240
0240
ENDCHAR
STARTCHAR U+f7c8
ENCODING 63432
SWIDTH 500 0
DWIDTH 16 0
BBX 16 16 0 0
BITMAP
0240
0240
0240
0240
0240
0240
027F
0200
0200
03FF
0000
0000
0000
0000
0000
0000
ENDCHAR
STARTCHAR U+f7c9
ENCODING 63433
SWIDTH 500 0
DWIDTH 16 0
BBX 16 10 0 0
BITMAP
03FF
0200
0200
027F
0240
0240
0240
0240
0240
0240
ENDCHAR
STARTCHAR U+f7ca
ENCODING 63434
SWIDTH 500 0
DWIDTH 16 0
BBX 16 16 0 0
BITMAP
0240
0240
0240
0240
0240
0240
FE7F
0000
0000
FFFF
0000
0000
0000
0000
0000
0000
ENDCHAR
STARTCHAR U+f7cb
ENCODING 63435
SWIDTH 500 0
DWIDTH 16 0
BBX 16 10 0 0
BITMAP
FFFF
0000
0000
FE7F
0240
0240
0240
0240
0240
0240
ENDCHAR
STARTCHAR U+f7cc
ENCODING 63436
SWIDTH 500 0
DWIDTH 16 0
BBX 16 16 0 0
BITMAP
0240
0240
0240
0240
0240
0240
027F
0200
0200
027F
0240
0240
0240
0240
0240
0240
ENDCHAR
STARTCHAR U+f7cd
ENCODING 63437
SWIDTH 500 0
DWIDTH 16 0
BBX 16 10 0 0
BITMAP
FFFF
0000
0000
FFFF
0000
0000
0000
0000
0000
0000
ENDCHAR
STARTCHAR U+f7ce
ENCODING 63438
SWIDTH 500 0
DWIDTH 16 0
BBX 16 16 0 0
BITMAP
0240
0240
0240
0240
0240
0240
FE7F
0000
0000
FE7F
0240
0240
0240
0240
0240
0240
ENDCHAR
STARTCHAR U+f7cf
ENCODING 63439
SWIDTH 500 0
DWIDTH 16 0
BBX 16 16 0 0
BITMAP
0100
0100
0100
0100
0100
0100
FFFF
0000
0000
FFFF
0000
0000
0000
0000
0000
0000
ENDCHAR
STARTCHAR U+f7d0
ENCODING 63440
SWIDTH 500 0
DWIDTH 16 0
BBX 16 16 0 0
BITMAP
0240
0240
0240
0240
0240
0240
0240
FFFF
0000
0000
0000
0000
0000
0000
0000
0000
ENDCHAR
STARTCHAR U+f7d1
ENCODING 63441
SWIDTH 500 0
DWIDTH 16 0
BBX 16 10 0 0
BITMAP
FFFF
0000
0000
FFFF
0100
0100
0100
0100
0100
0100
ENDCHAR
STARTCHAR U+f7d2
ENCODING 63442
SWIDTH 500 0
DWIDTH 16 0
BBX 16 9 0 0
BITMAP
FFFF
0240
0240
0240
0240
0240
0240
0240
0240
ENDCHAR
STARTCHAR U+f7d3
ENCODING 63443
SWIDTH 500 0
DWIDTH 16 0
BBX 16 16 0 0
BITMAP
0240
0240
0240
0240
0240
0240
0240
03FF
0000
0000
0000
0000
0000
0000
0000
0000
ENDCHAR
STARTCHAR U+f7d4
ENCODING 63444
SWIDTH 500 0
DWIDTH 16 0
BBX 16 16 0 0
BITMAP
0100
0100
0100
0100
0100
0100
01FF
0100
0100
01FF
0000
0000
0000
0000
0000
0000
ENDCHAR
STARTCHAR U+f7d5
ENCODING 63445
SWIDTH 500 0
DWIDTH 16 0
BBX 16 10 0 0
BITMAP
01FF
0100
0100
01FF
0100
0100
0100
0100
0100
0100
ENDCHAR
STARTCHAR U+f7d6
ENCODING 63446
SWIDTH 500 0
DWIDTH 16 0
BBX 16 9 0 0
BITMAP
03FF
0240
0240
0240
0240
0240
0240
0240
0240
ENDCHAR
STARTCHAR U+f7d7
ENCODING 63447
SWIDTH 500 0
DWIDTH 16 0
BBX 16 16 0 0
BITMAP
0240
0240
0240
0240
0240
0240
0240
FFFF
0240
0240
0240
0240
0240
0240
0240
0240
ENDCHAR
STARTCHAR U+f7d8
ENCODING 63448
SWIDTH 500 0
DWIDTH 16 0
BBX 16 16 0 0
BITMAP
0100
0100
0100
0100
0100
0100
FFFF
0100
0100
FFFF
0100
0100
0100
0100
0100
0100
ENDCHAR
STARTCHAR U+f7d9
ENCODING 63449
SWIDTH 500 0
DWIDTH 8 0
BBX 8 16 0 0
BITMAP
0100
0100
0100
0100
0100
0100
0100
FF00
0000
0000
0000
0000
0000
0000
0000
0000
ENDCHAR
STARTCHAR U+f7da
ENCODING 63450
SWIDTH 500 0
DWIDTH 16 0
BBX 16 9 0 0
BITMAP
01FF
0100
0100
0100
0100
0100
0100
0100
0100
ENDCHAR
STARTCHAR U+f7db
ENCODING 63451
SWIDTH 500 0
DWIDTH 16 0
BBX 16 16 0 0
BITMAP
FFFF
FFFF
FFFF
FFFF
FFFF
FFFF
FFFF
FFFF
FFFF
FFFF
FFFF
FFFF
FFFF
FFFF
FFFF
FFFF
ENDCHAR
STARTCHAR U+f7dc
ENCODING 63452
SWIDTH 500 0
DWIDTH 16 0
BBX 16 8 0 0
BITMAP
FFFF
FFFF
FFFF
FFFF
FFFF
FFFF
FFFF
FFFF
ENDCHAR
STARTCHAR U+f7dd
ENCODING 63453
SWIDTH 500 0
DWIDTH 8 0
BBX 8 16 0 0
BITMAP
FF00
FF00
FF00
FF00
FF00
FF00
FF00
FF00
FF00
FF00
FF00
FF00
FF00
FF00
FF00
FF00
ENDCHAR
STARTCHAR U+f7de
ENCODING 63454
SWIDTH 500 0
DWIDTH 16 0
BBX 16 16 0 0
BITMAP
01FF
01FF
01FF
01FF
01FF
01FF
01FF
01FF
01FF
01FF
01FF
01FF
01FF
01FF
01FF
01FF
ENDCHAR
STARTCHAR U+f7df
ENCODING 63455
SWIDTH 500 0
DWIDTH 16 0
BBX 16 16 0 0
BITMAP
FFFF
FFFF
FFFF
FFFF
FFFF
FFFF
FFFF
FFFF
0000
0000
0000
0000
0000
0000
0000
0000
ENDCHAR
STARTCHAR U+f7e0
ENCODING 63456
SWIDTH 500 0
DWIDTH 16 0
BBX 16 14 0 0
BITMAP
0008
0018
0798
0CF8
1870
3060
3060
3060
18E0
0FFC
0738
0000
0000
0000
ENDCHAR
STARTCHAR U+f7e1
ENCODING 63457
SWIDTH 500 0
DWIDTH 16 0
BBX 16 14 0 0
BITMAP
01E0
0330
0618
0618
0630
07E0
0630
0618
0E18
0E18
1F30
39E0
3000
0000
ENDCHAR
STARTCHAR U+f7e2
ENCODING 63458
SWIDTH 500 0
DWIDTH 16 0
BBX 16 14 0 0
BITMAP
3FFC
180C
1800
1800
1800
1800
1800
1800
1800
1800
1800
3C00
0000
0000
ENDCHAR
STARTCHAR U+f7e3
ENCODING 63459
SWIDTH 500 0
DWIDTH 16 0
BBX 16 13 0 0
BITMAP
0006
1FFE
7360
6660
0660
0660
0C60
0C60
1860
303C
0000
0000
0000
ENDCHAR
STARTCHAR U+f7e4
ENCODING 63460
SWIDTH 500 0
DWIDTH 16 0
BBX 16 15 0 0
BITMAP
3FFC
300C
1800
0C00
0600
0300
0180
0180
0300
0600
0C00
1800
300C
3FFC
0000
ENDCHAR
STARTCHAR U+f7e5
ENCODING 63461
SWIDTH 500 0
DWIDTH 16 0
BBX 16 13 0 0
BITMAP
07F8
0D80
18C0
18C0
18C0
18C0
18C0
18C0
0D80
0700
0000
0000
0000
ENDCHAR
STARTCHAR U+f7e6
ENCODING 63462
SWIDTH 500 0
DWIDTH 16 0
BBX 16 13 0 0
BITMAP
0318
0318
0318
0398
03D8
0370
0300
0300
1B00
0E00
0000
0000
0000
ENDCHAR
STARTCHAR U+f7e7
ENCODING 63463
SWIDTH 500 0
DWIDTH 16 0
BBX 16 12 0 0
BITMAP
0F38
1FF0
01C0
0180
0300
0300
0300
0300
0380
0180
0000
0000
ENDCHAR
STARTCHAR U+f7e8
ENCODING 63464
SWIDTH 500 0
DWIDTH 16 0
BBX 16 15 0 0
BITMAP
07E0
0180
0180
03C0
0660
0C30
0C30
0C30
0660
03C0
0180
0180
07E0
0000
0000
ENDCHAR
STARTCHAR U+f7e9
ENCODING 63465
SWIDTH 500 0
DWIDTH 16 0
BBX 16 14 0 0
BITMAP
03C0
0660
0C30
0C30
0C30
0FF0
0C30
0C30
0C30
0660
03C0
0000
0000
0000
ENDCHAR
STARTCHAR U+f7ea
ENCODING 63466
SWIDTH 500 0
DWIDTH 16 0
BBX 16 14 0 0
BITMAP
07E0
0C30
1818
1818
1818
1818
1818
0C30
0660
0660
366C
3E7C
0000
0000
ENDCHAR
STARTCHAR U+f7eb
ENCODING 63467
SWIDTH 500 0
DWIDTH 16 0
BBX 16 14 0 0
BITMAP
01C0
0360
0330
0318
0198
0180
0780
0CC0
18C0
30C0
3180
1F00
0000
0000
ENDCHAR
STARTCHAR U+f7ec
ENCODING 63468
SWIDTH 500 0
DWIDTH 16 0
BBX 16 11 0 0
BITMAP
1830
3C78
66CC
638C
66CC
3C78
1830
0000
0000
0000
0000
ENDCHAR
STARTCHAR U+f7ed
ENCODING 63469
SWIDTH 500 0
DWIDTH 16 0
BBX 16 14 0 0
BITMAP
000C
0018
07F0
0C70
18D8
1998
1B18
0E30
0FE0
1800
3000
0000
0000
0000
ENDCHAR
STARTCHAR U+f7ee
ENCODING 63470
SWIDTH 500 0
DWIDTH 16 0
BBX 16 14 0 0
BITMAP
07F8
0C00
1800
1800
1800
1FF8
1800
1800
1800
0C00
07F8
0000
0000
0000
ENDCHAR
STARTCHAR U+f7ef
ENCODING 63471
SWIDTH 500 0
DWIDTH 16 0
BBX 16 13 0 0
BITMAP
07E0
0FF0
1C38
1818
1818
1818
1818
1818
1818
1818
0000
0000
0000
ENDCHAR
STARTCHAR U+f7f0
ENCODING 63472
SWIDTH 500 0
DWIDTH 16 0
BBX 16 12 0 0
BITMAP
3FFC
0000
0000
3FFC
0000
0000
3FFC
0000
0000
0000
0000
0000
ENDCHAR
STARTCHAR U+f7f1
ENCODING 63473
SWIDTH 500 0
DWIDTH 16 0
BBX 16 14 0 0
BITMAP
0180
0180
0180
0180
3FFC
0180
0180
0180
0180
0000
0000
3FFC
0000
0000
ENDCHAR
STARTCHAR U+f7f2
ENCODING 63474
SWIDTH 500 0
DWIDTH 16 0
BBX 16 14 0 0
BITMAP
0180
00C0
0060
0030
0018
0030
0060
00C0
0180
0000
0000
1FF8
0000
0000
ENDCHAR
STARTCHAR U+f7f3
ENCODING 63475
SWIDTH 500 0
DWIDTH 16 0
BBX 16 14 0 0
BITMAP
00C0
0180
0300
0600
0C00
0600
0300
0180
00C0
0000
0000
1FF8
0000
0000
ENDCHAR
STARTCHAR U+f7f4
ENCODING 63476
SWIDTH 500 0
DWIDTH 16 0
BBX 16 13 0 0
BITMAP
00E0
01B0
0330
0300
0300
0300
0300
0300
0300
0300
0300
0300
0300
ENDCHAR
STARTCHAR U+f7f5
ENCODING 63477
SWIDTH 500 0
DWIDTH 8 0
BBX 8 16 0 0
BITMAP
0300
0300
0300
0300
0300
0300
0300
0300
0300
0300
0300
0600
1C00
0000
0000
0000
ENDCHAR
STARTCHAR U+f7f6
ENCODING 63478
SWIDTH 500 0
DWIDTH 16 0
BBX 16 14 0 0
BITMAP
0180
03C0
03C0
0180
0000
3FFC
0000
0180
03C0
03C0
0180
0000
0000
0000
ENDCHAR
STARTCHAR U+f7f7
ENCODING 63479
SWIDTH 500 0
DWIDTH 16 0
BBX 16 14 0 0
BITMAP
0018
3E0C
630C
6198
30F0
0000
0018
3E0C
630C
6198
30F0
0000
0000
0000
ENDCHAR
STARTCHAR U+f7f8
ENCODING 63480
SWIDTH 500 0
DWIDTH 16 0
BBX 16 13 0 0
BITMAP
0380
0440
0440
0380
0000
0000
0000
0000
0000
0000
0000
0000
0000
ENDCHAR
STARTCHAR U+f7f9
ENCODING 63481
SWIDTH 500 0
DWIDTH 16 0
BBX 16 11 0 0
BITMAP
0380
07C0
0FE0
0FE0
07C0
0380
0000
0000
0000
0000
0000
ENDCHAR
STARTCHAR U+f7fa
ENCODING 63482
SWIDTH 500 0
DWIDTH 16 0
BBX 16 15 0 0
BITMAP
7FFE
4002
4002
4032
4032
4032
4432
4C32
5FF2
4C02
4402
4002
4002
7FFE
0000
ENDCHAR
STARTCHAR U+f7fb
ENCODING 63483
SWIDTH 500 0
DWIDTH 16 0
BBX 16 14 0 0
BITMAP
07FF
0600
0600
0600
0600
0600
0C00
0C00
0C00
6C00
3C00
1800
0800
0000
ENDCHAR
STARTCHAR U+f7fc
ENCODING 63484
SWIDTH 500 0
DWIDTH 16 0
BBX 16 13 0 0
BITMAP
3700
3D80
3180
3180
3180
3180
7BC0
0000
0000
0000
0000
0000
0000
ENDCHAR
STARTCHAR U+f7fd
ENCODING 63485
SWIDTH 500 0
DWIDTH 8 0
BBX 8 14 0 0
BITMAP
0C00
1200
0200
0400
0800
1000
1E00
0000
0000
0000
0000
0000
0000
0000
ENDCHAR
STARTCHAR U+f7fe
ENCODING 63486
SWIDTH 500 0
DWIDTH 16 0
BBX 16 9 0 0
BITMAP
07E0
07E0
07E0
07E0
07E0
0000
0000
0000
0000
ENDCHAR
STARTCHAR U+f7ff
ENCODING 63487
SWIDTH 500 0
DWIDTH 8 0
BBX 8 0 0 0
BITMAP

ENDCHAR
STARTCHAR U+21b5
ENCODING 8629
SWIDTH 500 0
DWIDTH 16 0
BBX 16 15 0 0
BITMAP
7FFE
4002
4002
4032
4032
4032
4432
4C32
5FF2
4C02
4402
4002
4002
7FFE
0000
ENDCHAR
STARTCHAR U+f000
ENCODING 61440
SWIDTH 500 0
DWIDTH 16 0
BBX 16 16 0 0
BITMAP
0C00
FFCC
FFCC
1E0F
3F0F
738C
618C
738C
3F0C
1E0C
000C
600C
6000
7FFC
7FFC
0000
ENDCHAR
STARTCHAR U+f001
ENCODING 61441
SWIDTH 500 0
DWIDTH 16 0
BBX 16 15 0 0
BITMAP
7FFC
7FFC
000C
7FFC
7FFC
0000
7FFC
7FFC
000C
7FFC
7FFC
6000
7FFC
7FFC
0000
ENDCHAR
STARTCHAR U+f002
ENCODING 61442
SWIDTH 500 0
DWIDTH 16 0
BBX 16 15 0 0
BITMAP
C198
C198
C19E
C19E
FF98
FF98
C198
C198
C198
FF98
FF98
0000
0000
0000
0000
ENDCHAR
STARTCHAR U+f003
ENCODING 61443
SWIDTH 500 0
DWIDTH 16 0
BBX 16 15 0 0
BITMAP
FF98
FF98
019E
FF9E
FF98
C018
FF98
FF98
0000
7FF8
7FF8
6018
7FF8
7FF8
0000
ENDCHAR
STARTCHAR U+f004
ENCODING 61444
SWIDTH 500 0
DWIDTH 8 0
BBX 8 0 0 0
BITMAP

ENDCHAR
STARTCHAR U+f005
ENCODING 61445
SWIDTH 500 0
DWIDTH 8 0
BBX 8 0 0 0
BITMAP

ENDCHAR
STARTCHAR U+f006
ENCODING 61446
SWIDTH 500 0
DWIDTH 8 0
BBX 8 0 0 0
BITMAP

ENDCHAR
STARTCHAR U+f007
ENCODING 61447
SWIDTH 500 0
DWIDTH 16 0
BBX 16 15 0 0
BITMAP
180E
381B
781B
181B
181B
181B
181B
181B
181B
181B
181B
18DB
7ECE
0000
0000
ENDCHAR
STARTCHAR U+f008
ENCODING 61448
SWIDTH 500 0
DWIDTH 8 0
BBX 8 0 0 0
BITMAP

ENDCHAR
STARTCHAR U+f009
ENCODING 61449
SWIDTH 500 0
DWIDTH 8 0
BBX 8 0 0 0
BITMAP

ENDCHAR
STARTCHAR U+f00a
ENCODING 61450
SWIDTH 500 0
DWIDTH 8 0
BBX 8 0 0 0
BITMAP

ENDCHAR
STARTCHAR U+f00b
ENCODING 61451
SWIDTH 500 0
DWIDTH 16 0
BBX 16 14 0 0
BITMAP
067F
067F
0C03
0C07
187E
187C
1800
0C7F
0C7F
0603
0603
0000
0000
0000
ENDCHAR
STARTCHAR U+f00c
ENCODING 61452
SWIDTH 500 0
DWIDTH 16 0
BBX 16 14 0 0
BITMAP
FCC0
FCC0
8060
C060
FC30
7C30
0030
FC60
FC60
80C0
80C0
0000
0000
0000
ENDCHAR
STARTCHAR U+f00d
ENCODING 61453
SWIDTH 500 0
DWIDTH 16 0
BBX 16 15 0 0
BITMAP
60CC
60CC
60CF
60CF
7FCC
7FCC
60CC
60CC
60CC
7FCC
7FCC
000C
0000
0000
0000
ENDCHAR
STARTCHAR U+f00e
ENCODING 61454
SWIDTH 500 0
DWIDTH 16 0
BBX 16 15 0 0
BITMAP
7FCC
7FCC
00CF
7FCF
7FCC
600C
7FCC
7FCC
0000
7FFC
7FFC
600C
7FFC
7FFC
0000
ENDCHAR
STARTCHAR U+f00f
ENCODING 61455
SWIDTH 500 0
DWIDTH 16 0
BBX 16 15 0 0
BITMAP
0606
0606
0F06
0F06
1986
1986
30C6
30C6
6066
6066
0006
0006
0000
0000
0000
ENDCHAR
STARTCHAR U+f010
ENCODING 61456
SWIDTH 500 0
DWIDTH 16 0
BBX 16 15 0 0
BITMAP
0180
03C0
07E0
0E70
1C38
381C
700E
6006
0000
0000
7FFE
7FFE
0000
0000
0000
ENDCHAR
STARTCHAR U+f011
ENCODING 61457
SWIDTH 500 0
DWIDTH 16 0
BBX 16 15 0 0
BITMAP
FE6C
FE6C
C1EC
FFEC
FE6C
C06C
FE6C
FE6C
0000
7FFC
7FFC
600C
7FFC
7FFC
0000
ENDCHAR
STARTCHAR U+f012
ENCODING 61458
SWIDTH 500 0
DWIDTH 8 0
BBX 8 0 0 0
BITMAP

ENDCHAR
STARTCHAR U+f013
ENCODING 61459
SWIDTH 500 0
DWIDTH 8 0
BBX 8 0 0 0
BITMAP

ENDCHAR
STARTCHAR U+f014
ENCODING 61460
SWIDTH 500 0
DWIDTH 8 0
BBX 8 0 0 0
BITMAP

ENDCHAR
STARTCHAR U+f015
ENCODING 61461
SWIDTH 500 0
DWIDTH 8 0
BBX 8 0 0 0
BITMAP

ENDCHAR
STARTCHAR U+f016
ENCODING 61462
SWIDTH 500 0
DWIDTH 8 0
BBX 8 0 0 0
BITMAP

ENDCHAR
STARTCHAR U+f017
ENCODING 61463
SWIDTH 500 0
DWIDTH 8 0
BBX 8 0 0 0
BITMAP

ENDCHAR
STARTCHAR U+f018
ENCODING 61464
SWIDTH 500 0
DWIDTH 8 0
BBX 8 0 0 0
BITMAP

ENDCHAR
STARTCHAR U+f019
ENCODING 61465
SWIDTH 500 0
DWIDTH 8 0
BBX 8 0 0 0
BITMAP

ENDCHAR
STARTCHAR U+f01a
ENCODING 61466
SWIDTH 500 0
DWIDTH 8 0
BBX 8 0 0 0
BITMAP

ENDCHAR
STARTCHAR U+f01b
ENCODING 61467
SWIDTH 500 0
DWIDTH 8 0
BBX 8 0 0 0
BITMAP

ENDCHAR
STARTCHAR U+f01c
ENCODING 61468
SWIDTH 500 0
DWIDTH 8 0
BBX 8 0 0 0
BITMAP

ENDCHAR
STARTCHAR U+f01d
ENCODING 61469
SWIDTH 500 0
DWIDTH 8 0
BBX 8 0 0 0
BITMAP

ENDCHAR
STARTCHAR U+f01e
ENCODING 61470
SWIDTH 500 0
DWIDTH 8 0
BBX 8 0 0 0
BITMAP

ENDCHAR
STARTCHAR U+f01f
ENCODING 61471
SWIDTH 500 0
DWIDTH 8 0
BBX 8 0 0 0
BITMAP

ENDCHAR
STARTCHAR U+f020
ENCODING 61472
SWIDTH 500 0
DWIDTH 8 0
BBX 8 0 0 0
BITMAP

ENDCHAR
STARTCHAR U+f021
ENCODING 61473
SWIDTH 500 0
DWIDTH 8 0
BBX 8 0 0 0
BITMAP

ENDCHAR
STARTCHAR U+f022
ENCODING 61474
SWIDTH 500 0
DWIDTH 8 0
BBX 8 0 0 0
BITMAP

ENDCHAR
STARTCHAR U+f023
ENCODING 61475
SWIDTH 500 0
DWIDTH 8 0
BBX 8 0 0 0
BITMAP

ENDCHAR
STARTCHAR U+f024
ENCODING 61476
SWIDTH 500 0
DWIDTH 8 0
BBX 8 0 0 0
BITMAP

ENDCHAR
STARTCHAR U+f025
ENCODING 61477
SWIDTH 500 0
DWIDTH 8 0
BBX 8 0 0 0
BITMAP

ENDCHAR
STARTCHAR U+f026
ENCODING 61478
SWIDTH 500 0
DWIDTH 16 0
BBX 16 16 0 0
BITMAP
FFFF
FFFF
F0F0
F0F0
F0F0
F0F0
F0F0
F0F0
F0F0
F0F0
F000
F000
F000
F000
F0F0
F0F0
ENDCHAR
STARTCHAR U+f027
ENCODING 61479
SWIDTH 500 0
DWIDTH 16 0
BBX 16 16 0 0
BITMAP
FFFF
FFFF
C003
C003
C003
C003
FFC3
FFC3
FFC3
FFC3
C003
C003
C003
C003
C3FF
C3FF
ENDCHAR
STARTCHAR U+f028
ENCODING 61480
SWIDTH 500 0
DWIDTH 16 0
BBX 16 16 0 0
BITMAP
FFFF
FFFF
FFFF
FFFF
FFFF
FFFF
FFFF
FFFF
FFFF
FFFF
FFFF
FFFF
FFFF
FFFF
FFFF
FFFF
ENDCHAR
STARTCHAR U+f029
ENCODING 61481
SWIDTH 500 0
DWIDTH 16 0
BBX 16 16 0 0
BITMAP
F0F0
F0F0
F000
F000
F000
F000
FFFF
FFFF
FFFF
FFFF
FF07
FF07
FF07
FF07
FFFF
FFFF
ENDCHAR
STARTCHAR U+f02a
ENCODING 61482
SWIDTH 500 0
DWIDTH 16 0
BBX 16 16 0 0
BITMAP
C3FF
C3FF
C003
C003
C003
C003
FFFF
FFFF
FFFF
FFFF
FC1F
FC1F
FC1F
FC1F
FFFF
FFFF
ENDCHAR
STARTCHAR U+f02b
ENCODING 61483
SWIDTH 500 0
DWIDTH 16 0
BBX 16 16 0 0
BITMAP
FFFF
FFFF
000F
000F
000F
000F
0F0F
0F0F
0F0F
0F0F
000F
000F
000F
000F
FFFF
FFFF
ENDCHAR
STARTCHAR U+f02c
ENCODING 61484
SWIDTH 500 0
DWIDTH 16 0
BBX 16 16 0 0
BITMAP
0FFF
0CC8
0CC8
0CCF
0CCF
0C08
0C08
0CC9
0CC9
0C08
0C08
0FFF
0F3E
0F3E
0FFF
0000
ENDCHAR
STARTCHAR U+f02d
ENCODING 61485
SWIDTH 500 0
DWIDTH 16 0
BBX 16 16 0 0
BITMAP
FFF0
1FF0
1FF0
9FF0
9FF0
1FF0
1FF0
FFF0
F030
1030
1330
F330
7030
7030
FFF0
0000
ENDCHAR
STARTCHAR U+f02e
ENCODING 61486
SWIDTH 500 0
DWIDTH 16 0
BBX 16 14 0 0
BITMAP
01C7
01C7
01C7
01CF
01DE
01FC
01F8
01F0
01E0
01C0
0000
0000
0000
0000
ENDCHAR
STARTCHAR U+f02f
ENCODING 61487
SWIDTH 500 0
DWIDTH 16 0
BBX 16 14 0 0
BITMAP
038E
038E
038E
038E
038E
038E
03DE
01FC
00F8
0070
0000
0000
0000
0000
ENDCHAR
STARTCHAR U+f030
ENCODING 61488
SWIDTH 500 0
DWIDTH 16 0
BBX 16 14 0 0
BITMAP
3FE0
3FE0
38E0
38E0
38E0
38E0
38E0
38E0
3FE6
3FE6
0000
0000
0000
0000
ENDCHAR
STARTCHAR U+f031
ENCODING 61489
SWIDTH 500 0
DWIDTH 16 0
BBX 16 14 0 0
BITMAP
0700
3F00
3F00
0700
0700
0700
0700
0700
3FE6
3FE6
0000
0000
0000
0000
ENDCHAR
STARTCHAR U+f032
ENCODING 61490
SWIDTH 500 0
DWIDTH 16 0
BBX 16 14 0 0
BITMAP
3FE0
3FE0
00E0
00E0
3FE0
3FE0
3800
3800
3FE6
3FE6
0000
0000
0000
0000
ENDCHAR
STARTCHAR U+f033
ENCODING 61491
SWIDTH 500 0
DWIDTH 16 0
BBX 16 14 0 0
BITMAP
3FE0
3FE0
00E0
00E0
3FE0
3FE0
00E0
00E0
3FE6
3FE6
0000
0000
0000
0000
ENDCHAR
STARTCHAR U+f034
ENCODING 61492
SWIDTH 500 0
DWIDTH 16 0
BBX 16 14 0 0
BITMAP
38E0
38E0
38E0
38E0
3FE0
3FE0
00E0
00E0
00E6
00E6
0000
0000
0000
0000
ENDCHAR
STARTCHAR U+f035
ENCODING 61493
SWIDTH 500 0
DWIDTH 16 0
BBX 16 14 0 0
BITMAP
3FE0
3FE0
3800
3800
3FE0
3FE0
00E0
00E0
3FE6
3FE6
0000
0000
0000
0000
ENDCHAR
STARTCHAR U+f036
ENCODING 61494
SWIDTH 500 0
DWIDTH 16 0
BBX 16 14 0 0
BITMAP
3FE0
3FE0
3800
3800
3FE0
3FE0
38E0
38E0
3FE6
3FE6
0000
0000
0000
0000
ENDCHAR
STARTCHAR U+f037
ENCODING 61495
SWIDTH 500 0
DWIDTH 16 0
BBX 16 14 0 0
BITMAP
3FE0
3FE0
00E0
00E0
00E0
00E0
00E0
00E0
00E6
00E6
0000
0000
0000
0000
ENDCHAR
STARTCHAR U+f038
ENCODING 61496
SWIDTH 500 0
DWIDTH 16 0
BBX 16 14 0 0
BITMAP
3FE0
3FE0
38E0
38E0
3FE0
3FE0
38E0
38E0
3FE6
3FE6
0000
0000
0000
0000
ENDCHAR
STARTCHAR U+f039
ENCODING 61497
SWIDTH 500 0
DWIDTH 16 0
BBX 16 14 0 0
BITMAP
3FE0
3FE0
38E0
38E0
3FE0
3FE0
00E0
00E0
3FE6
3FE6
0000
0000
0000
0000
ENDCHAR
STARTCHAR U+f03a
ENCODING 61498
SWIDTH 500 0
DWIDTH 16 0
BBX 16 14 0 0
BITMAP
1FC0
3FE0
38E0
38E0
3FE0
3FE0
38E0
38E0
38E6
38E6
0000
0000
0000
0000
ENDCHAR
STARTCHAR U+f03b
ENCODING 61499
SWIDTH 500 0
DWIDTH 16 0
BBX 16 14 0 0
BITMAP
3FC0
3FE0
38E0
38E0
3FC0
3FC0
38E0
38E0
3FE6
3FC6
0000
0000
0000
0000
ENDCHAR
STARTCHAR U+f03c
ENCODING 61500
SWIDTH 500 0
DWIDTH 16 0
BBX 16 14 0 0
BITMAP
1FC0
3FE0
38E0
38E0
3800
3800
38E0
38E0
3FE6
1FC6
0000
0000
0000
0000
ENDCHAR
STARTCHAR U+f03d
ENCODING 61501
SWIDTH 500 0
DWIDTH 16 0
BBX 16 14 0 0
BITMAP
3FC0
3FE0
38E0
38E0
38E0
38E0
38E0
38E0
3FE6
3FC6
0000
0000
0000
0000
ENDCHAR
STARTCHAR U+f03e
ENCODING 61502
SWIDTH 500 0
DWIDTH 16 0
BBX 16 14 0 0
BITMAP
3FE0
3FE0
3800
3800
3F80
3F80
3800
3800
3FE6
3FE6
0000
0000
0000
0000
ENDCHAR
STARTCHAR U+f03f
ENCODING 61503
SWIDTH 500 0
DWIDTH 16 0
BBX 16 14 0 0
BITMAP
3FE0
3FE0
3800
3800
3F80
3F80
3800
3800
3806
3806
0000
0000
0000
0000
ENDCHAR
STARTCHAR U+f040
ENCODING 61504
SWIDTH 500 0
DWIDTH 16 0
BBX 16 14 0 0
BITMAP
7FC0
7FC0
71C0
71C0
71C0
71C0
71C0
71C0
7FC0
7FC0
0000
0000
0000
0000
ENDCHAR
STARTCHAR U+f041
ENCODING 61505
SWIDTH 500 0
DWIDTH 16 0
BBX 16 14 0 0
BITMAP
1C00
FC00
FC00
1C00
1C00
1C00
1C00
1C00
FF80
FF80
0000
0000
0000
0000
ENDCHAR
STARTCHAR U+f042
ENCODING 61506
SWIDTH 500 0
DWIDTH 16 0
BBX 16 14 0 0
BITMAP
7FC0
7FC0
01C0
01C0
7FC0
7FC0
7000
7000
7FC0
7FC0
0000
0000
0000
0000
ENDCHAR
STARTCHAR U+f043
ENCODING 61507
SWIDTH 500 0
DWIDTH 16 0
BBX 16 14 0 0
BITMAP
7FC0
7FC0
01C0
01C0
7FC0
7FC0
01C0
01C0
7FC0
7FC0
0000
0000
0000
0000
ENDCHAR
STARTCHAR U+f044
ENCODING 61508
SWIDTH 500 0
DWIDTH 16 0
BBX 16 14 0 0
BITMAP
71C0
71C0
71C0
71C0
7FC0
7FC0
01C0
01C0
01C0
01C0
0000
0000
0000
0000
ENDCHAR
STARTCHAR U+f045
ENCODING 61509
SWIDTH 500 0
DWIDTH 16 0
BBX 16 14 0 0
BITMAP
7FC0
7FC0
7000
7000
7FC0
7FC0
01C0
01C0
7FC0
7FC0
0000
0000
0000
0000
ENDCHAR
STARTCHAR U+f046
ENCODING 61510
SWIDTH 500 0
DWIDTH 16 0
BBX 16 14 0 0
BITMAP
7FC0
7FC0
7000
7000
7FC0
7FC0
71C0
71C0
7FC0
7FC0
0000
0000
0000
0000
ENDCHAR
STARTCHAR U+f047
ENCODING 61511
SWIDTH 500 0
DWIDTH 16 0
BBX 16 14 0 0
BITMAP
7FC0
7FC0
01C0
01C0
01C0
01C0
01C0
01C0
01C0
01C0
0000
0000
0000
0000
ENDCHAR
STARTCHAR U+f048
ENCODING 61512
SWIDTH 500 0
DWIDTH 16 0
BBX 16 14 0 0
BITMAP
7FC0
7FC0
71C0
71C0
7FC0
7FC0
71C0
71C0
7FC0
7FC0
0000
0000
0000
0000
ENDCHAR
STARTCHAR U+f049
ENCODING 61513
SWIDTH 500 0
DWIDTH 16 0
BBX 16 14 0 0
BITMAP
7FC0
7FC0
71C0
71C0
7FC0
7FC0
01C0
01C0
7FC0
7FC0
0000
0000
0000
0000
ENDCHAR
STARTCHAR U+f04a
ENCODING 61514
SWIDTH 500 0
DWIDTH 16 0
BBX 16 14 0 0
BITMAP
3F80
7FC0
71C0
71C0
71C0
7FC0
7FC0
71C0
71C0
71C0
0000
0000
0000
0000
ENDCHAR
STARTCHAR U+f04b
ENCODING 61515
SWIDTH 500 0
DWIDTH 16 0
BBX 16 14 0 0
BITMAP
7F80
7FC0
71C0
71C0
7F80
7F80
71C0
71C0
7FC0
7F80
0000
0000
0000
0000
ENDCHAR
STARTCHAR U+f04c
ENCODING 61516
SWIDTH 500 0
DWIDTH 16 0
BBX 16 14 0 0
BITMAP
3F80
7FC0
71C0
71C0
7000
7000
71C0
71C0
7FC0
3F80
0000
0000
0000
0000
ENDCHAR
STARTCHAR U+f04d
ENCODING 61517
SWIDTH 500 0
DWIDTH 16 0
BBX 16 14 0 0
BITMAP
7F80
7FC0
71C0
71C0
71C0
71C0
71C0
71C0
7FC0
7F80
0000
0000
0000
0000
ENDCHAR
STARTCHAR U+f04e
ENCODING 61518
SWIDTH 500 0
DWIDTH 16 0
BBX 16 14 0 0
BITMAP
7FC0
7FC0
7000
7000
7F00
7F00
7000
7000
7FC0
7FC0
0000
0000
0000
0000
ENDCHAR
STARTCHAR U+f04f
ENCODING 61519
SWIDTH 500 0
DWIDTH 16 0
BBX 16 14 0 0
BITMAP
7FC0
7FC0
7000
7000
7F00
7F00
7000
7000
7000
7000
0000
0000
0000
0000
ENDCHAR
STARTCHAR U+f050
ENCODING 61520
SWIDTH 500 0
DWIDTH 16 0
BBX 16 13 0 0
BITMAP
1EC0
3FE0
3BC0
7380
6380
6780
7F80
7DC0
39C0
0000
0000
0000
0000
ENDCHAR
STARTCHAR U+f051
ENCODING 61521
SWIDTH 500 0
DWIDTH 16 0
BBX 16 14 0 0
BITMAP
3F00
7F80
71C0
71C0
7780
7780
71C0
71C0
77C0
7780
7000
0000
0000
0000
ENDCHAR
STARTCHAR U+f052
ENCODING 61522
SWIDTH 500 0
DWIDTH 16 0
BBX 16 16 0 0
BITMAP
F000
F000
F3FF
F200
F2AA
F255
F2AA
F255
F2AA
F255
F2AA
F255
F3FF
F3FF
F000
F000
ENDCHAR
STARTCHAR U+f053
ENCODING 61523
SWIDTH 500 0
DWIDTH 8 0
BBX 8 14 0 0
BITMAP
C000
C000
C000
C000
C000
C000
C000
C000
C000
C000
C000
C000
0000
0000
ENDCHAR
STARTCHAR U+f054
ENCODING 61524
SWIDTH 500 0
DWIDTH 16 0
BBX 16 14 0 0
BITMAP
0003
0002
0002
0002
0002
0002
0002
0002
0002
0002
0003
0003
0000
0000
ENDCHAR
STARTCHAR U+f055
ENCODING 61525
SWIDTH 500 0
DWIDTH 16 0
BBX 16 16 0 0
BITMAP
000F
000F
FFCF
00CF
AACF
55CF
AACF
55CF
AACF
55CF
AACF
55CF
FFCF
FFCF
000F
000F
ENDCHAR
STARTCHAR U+f056
ENCODING 61526
SWIDTH 500 0
DWIDTH 16 0
BBX 16 16 0 0
BITMAP
F000
F000
F006
F00A
F016
F02A
F056
F0AA
F0D6
F06A
F036
F01A
F00E
F006
F000
F000
ENDCHAR
STARTCHAR U+f057
ENCODING 61527
SWIDTH 500 0
DWIDTH 8 0
BBX 8 14 0 0
BITMAP
C000
E000
B000
D800
AC00
D600
AA00
D400
A800
D000
A000
C000
0000
0000
ENDCHAR
STARTCHAR U+f058
ENCODING 61528
SWIDTH 500 0
DWIDTH 16 0
BBX 16 14 0 0
BITMAP
0003
0005
000B
0015
002B
0055
006B
0035
001B
000D
0007
0003
0000
0000
ENDCHAR
STARTCHAR U+f059
ENCODING 61529
SWIDTH 500 0
DWIDTH 16 0
BBX 16 16 0 0
BITMAP
000F
000F
600F
700F
580F
6C0F
560F
6B0F
550F
6A0F
540F
680F
500F
600F
000F
000F
ENDCHAR
STARTCHAR U+f05a
ENCODING 61530
SWIDTH 500 0
DWIDTH 16 0
BBX 16 16 0 0
BITMAP
FFFF
FFFF
FFFF
FFFF
FFF0
FFEF
FFD4
FFA7
FF44
FE84
FD04
FA04
F404
F7FC
F500
F500
ENDCHAR
STARTCHAR U+f05b
ENCODING 61531
SWIDTH 500 0
DWIDTH 16 0
BBX 16 16 0 0
BITMAP
FFFF
FFFF
FFFF
FFFF
0000
FFFF
0000
FFFF
0000
0000
0000
0000
0000
0000
0000
0000
ENDCHAR
STARTCHAR U+f05c
ENCODING 61532
SWIDTH 500 0
DWIDTH 16 0
BBX 16 16 0 0
BITMAP
FFFF
FFFF
FFFF
FFFF
000F
FFEF
006F
FFEF
00EF
00EF
00EF
00EF
00EF
00EF
00EF
00EF
ENDCHAR
STARTCHAR U+f05d
ENCODING 61533
SWIDTH 500 0
DWIDTH 8 0
BBX 8 16 0 0
BITMAP
F500
F500
F500
F500
F500
F500
F500
F500
F500
F500
F500
F500
F500
F500
F500
F500
ENDCHAR
STARTCHAR U+f05e
ENCODING 61534
SWIDTH 500 0
DWIDTH 16 0
BBX 16 16 0 0
BITMAP
00EF
00EF
00EF
00EF
00EF
00EF
00EF
00EF
00EF
00EF
00EF
00EF
00EF
00EF
00EF
00EF
ENDCHAR
STARTCHAR U+f05f
ENCODING 61535
SWIDTH 500 0
DWIDTH 16 0
BBX 16 16 0 0
BITMAP
F500
F500
F500
F500
F500
F500
F500
F500
F5FF
F7FF
F7FF
F000
FFFF
FFFF
FFFF
FFFF
ENDCHAR
STARTCHAR U+f060
ENCODING 61536
SWIDTH 500 0
DWIDTH 16 0
BBX 16 8 0 0
BITMAP
FFFF
FFFF
FFFF
0000
FFFF
FFFF
FFFF
FFFF
ENDCHAR
STARTCHAR U+f061
ENCODING 61537
SWIDTH 500 0
DWIDTH 16 0
BBX 16 16 0 0
BITMAP
00EF
00EF
00EF
00EF
00EF
00EF
00EF
00EF
FFEF
FFEF
FFEF
000F
FFFF
FFFF
FFFF
FFFF
ENDCHAR
STARTCHAR U+f062
ENCODING 61538
SWIDTH 500 0
DWIDTH 16 0
BBX 16 16 0 0
BITMAP
A000
D000
A3FF
D200
A2AA
D255
A2AA
D255
A2AA
D255
A2AA
D255
A3FF
D3FF
A000
D000
ENDCHAR
STARTCHAR U+f063
ENCODING 61539
SWIDTH 500 0
DWIDTH 8 0
BBX 8 14 0 0
BITMAP
C000
C000
C000
C000
C000
C000
C000
C000
C000
C000
C000
C000
0000
0000
ENDCHAR
STARTCHAR U+f064
ENCODING 61540
SWIDTH 500 0
DWIDTH 16 0
BBX 16 14 0 0
BITMAP
0003
0002
0002
0002
0002
0002
0002
0002
0002
0002
0003
0003
0000
0000
ENDCHAR
STARTCHAR U+f065
ENCODING 61541
SWIDTH 500 0
DWIDTH 16 0
BBX 16 16 0 0
BITMAP
000B
0005
FFCB
00C5
AACB
55C5
AACB
55C5
AACB
55C5
AACB
55C5
FFCB
FFC5
000B
0005
ENDCHAR
STARTCHAR U+f066
ENCODING 61542
SWIDTH 500 0
DWIDTH 16 0
BBX 16 16 0 0
BITMAP
A000
D000
A006
D00A
A016
D02A
A056
D0AA
A0D6
D06A
A036
D01A
A00E
D006
A000
D000
ENDCHAR
STARTCHAR U+f067
ENCODING 61543
SWIDTH 500 0
DWIDTH 8 0
BBX 8 14 0 0
BITMAP
C000
E000
B000
D800
AC00
D600
AA00
D400
A800
D000
A000
C000
0000
0000
ENDCHAR
STARTCHAR U+f068
ENCODING 61544
SWIDTH 500 0
DWIDTH 16 0
BBX 16 14 0 0
BITMAP
0003
0005
000B
0015
002B
0055
006B
0035
001B
000D
0007
0003
0000
0000
ENDCHAR
STARTCHAR U+f069
ENCODING 61545
SWIDTH 500 0
DWIDTH 16 0
BBX 16 16 0 0
BITMAP
000B
0005
600B
7005
580B
6C05
560B
6B05
550B
6A05
540B
6805
500B
6005
000B
0005
ENDCHAR
STARTCHAR U+f06a
ENCODING 61546
SWIDTH 500 0
DWIDTH 16 0
BBX 16 16 0 0
BITMAP
AFFF
D000
A000
D000
A000
D00F
A014
D027
A044
D084
A104
D204
A404
D7FC
A500
D500
ENDCHAR
STARTCHAR U+f06b
ENCODING 61547
SWIDTH 500 0
DWIDTH 16 0
BBX 16 16 0 0
BITMAP
FFFF
0000
0000
0000
0000
FFFF
0000
FFFF
0000
0000
0000
0000
0000
0000
0000
0000
ENDCHAR
STARTCHAR U+f06c
ENCODING 61548
SWIDTH 500 0
DWIDTH 16 0
BBX 16 16 0 0
BITMAP
FFFB
0005
000B
0005
000B
FFE5
006B
FFE5
00EB
00E5
00EB
00E5
00EB
00E5
00EB
00E5
ENDCHAR
STARTCHAR U+f06d
ENCODING 61549
SWIDTH 500 0
DWIDTH 8 0
BBX 8 16 0 0
BITMAP
A500
D500
A500
D500
A500
D500
A500
D500
A500
D500
A500
D500
A500
D500
A500
D500
ENDCHAR
STARTCHAR U+f06e
ENCODING 61550
SWIDTH 500 0
DWIDTH 16 0
BBX 16 16 0 0
BITMAP
00EB
00E5
00EB
00E5
00EB
00E5
00EB
00E5
00EB
00E5
00EB
00E5
00EB
00E5
00EB
00E5
ENDCHAR
STARTCHAR U+f06f
ENCODING 61551
SWIDTH 500 0
DWIDTH 16 0
BBX 16 16 0 0
BITMAP
A500
D500
A500
D500
A500
D500
A500
D500
A5FF
D7FF
A7FF
D000
AAAA
D555
AAAA
FFFF
ENDCHAR
STARTCHAR U+f070
ENCODING 61552
SWIDTH 500 0
DWIDTH 16 0
BBX 16 8 0 0
BITMAP
FFFF
FFFF
FFFF
0000
AAAA
5555
AAAA
FFFF
ENDCHAR
STARTCHAR U+f071
ENCODING 61553
SWIDTH 500 0
DWIDTH 16 0
BBX 16 16 0 0
BITMAP
00EB
00E5
00EB
00E5
00EB
00E5
00EB
00E5
FFEB
FFE5
FFEB
0005
AAAB
5555
AAAB
FFFF
ENDCHAR
STARTCHAR U+f072
ENCODING 61554
SWIDTH 500 0
DWIDTH 16 0
BBX 16 11 0 0
BITMAP
07FF
0420
05FF
0500
0500
0700
0500
0500
0500
0500
0500
ENDCHAR
STARTCHAR U+f073
ENCODING 61555
SWIDTH 500 0
DWIDTH 16 0
BBX 16 11 0 0
BITMAP
FFFF
0000
FDFF
0500
0500
0500
0500
0500
0500
0500
0500
ENDCHAR
STARTCHAR U+f074
ENCODING 61556
SWIDTH 500 0
DWIDTH 16 0
BBX 16 11 0 0
BITMAP
FFFF
0000
FFFF
0000
0000
0000
0000
0000
0000
0000
0000
ENDCHAR
STARTCHAR U+f075
ENCODING 61557
SWIDTH 500 0
DWIDTH 16 0
BBX 16 11 0 0
BITMAP
FFFF
0000
FFBF
00A0
00A0
00A0
00A0
00A0
00A0
00A0
00A0
ENDCHAR
STARTCHAR U+f076
ENCODING 61558
SWIDTH 500 0
DWIDTH 16 0
BBX 16 11 0 0
BITMAP
FFE0
0420
FFA0
00A0
00A0
00E0
00A0
00A0
00A0
00A0
00A0
ENDCHAR
STARTCHAR U+f077
ENCODING 61559
SWIDTH 500 0
DWIDTH 16 0
BBX 16 16 0 0
BITMAP
0500
0500
0500
0500
0500
0500
0500
05FF
0400
05FF
0500
0500
0500
0500
0500
0500
ENDCHAR
STARTCHAR U+f078
ENCODING 61560
SWIDTH 500 0
DWIDTH 16 0
BBX 16 16 0 0
BITMAP
0500
0500
0500
0500
0500
0500
0500
FDFF
0000
FDFF
0500
0500
0500
0500
0500
0500
ENDCHAR
STARTCHAR U+f079
ENCODING 61561
SWIDTH 500 0
DWIDTH 16 0
BBX 16 9 0 0
BITMAP
FFFF
0000
FFFF
0000
0000
0000
0000
0000
0000
ENDCHAR
STARTCHAR U+f07a
ENCODING 61562
SWIDTH 500 0
DWIDTH 16 0
BBX 16 16 0 0
BITMAP
00A0
00A0
00A0
00A0
00A0
00A0
00A0
FFBF
0000
FFFF
0000
0000
0000
0000
0000
0000
ENDCHAR
STARTCHAR U+f07b
ENCODING 61563
SWIDTH 500 0
DWIDTH 8 0
BBX 8 16 0 0
BITMAP
0500
0500
0500
0500
0500
0500
0500
FD00
0100
FD00
0500
0500
0500
0500
0500
0500
ENDCHAR
STARTCHAR U+f07c
ENCODING 61564
SWIDTH 500 0
DWIDTH 16 0
BBX 16 16 0 0
BITMAP
0500
0500
0500
0500
0500
0700
0500
0500
05FF
0420
07FF
0000
0000
0000
0000
0000
ENDCHAR
STARTCHAR U+f07d
ENCODING 61565
SWIDTH 500 0
DWIDTH 16 0
BBX 16 16 0 0
BITMAP
0500
0500
0500
0500
0500
0500
0500
0500
FDFF
0000
FFFF
0000
0000
0000
0000
0000
ENDCHAR
STARTCHAR U+f07e
ENCODING 61566
SWIDTH 500 0
DWIDTH 16 0
BBX 16 8 0 0
BITMAP
FFFF
0000
FFFF
0000
0000
0000
0000
0000
ENDCHAR
STARTCHAR U+f07f
ENCODING 61567
SWIDTH 500 0
DWIDTH 16 0
BBX 16 16 0 0
BITMAP
00A0
00A0
00A0
00A0
00A0
00A0
00A0
00A0
FFBF
0000
FFFF
0000
0000
0000
0000
0000
ENDCHAR
STARTCHAR U+f080
ENCODING 61568
SWIDTH 500 0
DWIDTH 16 0
BBX 16 16 0 0
BITMAP
00A0
00A0
00A0
00A0
00A0
00E0
00A0
00A0
FFA0
0420
FFE0
0000
0000
0000
0000
0000
ENDCHAR
STARTCHAR U+f081
ENCODING 61569
SWIDTH 500 0
DWIDTH 8 0
BBX 8 16 0 0
BITMAP
0500
0500
0500
0500
0500
0500
0500
0500
0500
0500
0500
0500
0500
0500
0500
0500
ENDCHAR
STARTCHAR U+f082
ENCODING 61570
SWIDTH 500 0
DWIDTH 16 0
BBX 16 16 0 0
BITMAP
00A0
00A0
00A0
00A0
00A0
00A0
00A0
00A0
00A0
00A0
00A0
00A0
00A0
00A0
00A0
00A0
ENDCHAR
STARTCHAR U+f083
ENCODING 61571
SWIDTH 500 0
DWIDTH 16 0
BBX 16 12 0 0
BITMAP
380C
4402
4402
45F2
2A0E
5404
8004
FFE8
18F0
0000
0000
0000
ENDCHAR
STARTCHAR U+f084
ENCODING 61572
SWIDTH 500 0
DWIDTH 16 0
BBX 16 16 0 0
BITMAP
0100
0100
0FF0
1018
17D8
1558
1558
17D8
1018
1018
1018
1038
1558
0AB0
07E0
0000
ENDCHAR
STARTCHAR U+f085
ENCODING 61573
SWIDTH 500 0
DWIDTH 16 0
BBX 16 13 0 0
BITMAP
0002
0006
020C
0318
07B8
07F0
0FE0
1CE0
1840
3000
2000
0000
0000
ENDCHAR
STARTCHAR U+f086
ENCODING 61574
SWIDTH 500 0
DWIDTH 16 0
BBX 16 15 0 0
BITMAP
1020
3FF0
2850
2010
2850
2010
2850
2010
7FF8
400E
4CEA
400E
3FF8
0000
0000
ENDCHAR
STARTCHAR U+f087
ENCODING 61575
SWIDTH 500 0
DWIDTH 16 0
BBX 16 13 0 0
BITMAP
1E66
3F66
3376
337E
336E
3366
3366
3F66
1E66
0000
0000
0000
0000
ENDCHAR
STARTCHAR U+f088
ENCODING 61576
SWIDTH 500 0
DWIDTH 16 0
BBX 16 13 0 0
BITMAP
39EF
7DEF
6D8C
6D8C
6DEF
6DEF
6D8C
7D8C
398C
0000
0000
0000
0000
ENDCHAR
STARTCHAR U+f089
ENCODING 61577
SWIDTH 500 0
DWIDTH 16 0
BBX 16 15 0 0
BITMAP
0080
0888
0490
2002
13E4
0410
0908
0A88
0908
0808
0808
1FFC
0220
0220
0000
ENDCHAR
STARTCHAR U+f08a
ENCODING 61578
SWIDTH 500 0
DWIDTH 16 0
BBX 16 11 0 0
BITMAP
03E0
07F0
0CF8
0CF8
0FF8
0FF8
0FF8
1FFC
0220
0220
0000
ENDCHAR
STARTCHAR U+f08b
ENCODING 61579
SWIDTH 500 0
DWIDTH 16 0
BBX 16 15 0 0
BITMAP
07C0
0FE0
1830
3018
3218
650C
688C
650C
3218
3018
183C
0FFE
07CF
0007
0003
ENDCHAR
STARTCHAR U+f08c
ENCODING 61580
SWIDTH 500 0
DWIDTH 16 0
BBX 16 14 0 0
BITMAP
7FFE
4002
4002
700E
4C32
43C2
4422
4812
500A
6006
7FFE
0000
0000
0000
ENDCHAR
STARTCHAR U+f08d
ENCODING 61581
SWIDTH 500 0
DWIDTH 16 0
BBX 16 15 0 0
BITMAP
0E00
3180
2E80
4A40
4C40
4A40
2A80
3180
0E00
0000
0000
0000
0000
0000
0000
ENDCHAR
STARTCHAR U+f08e
ENCODING 61582
SWIDTH 500 0
DWIDTH 16 0
BBX 16 15 0 0
BITMAP
0180
0180
03C0
0420
0810
0AB0
0D50
0950
0950
0950
0FF0
0FF0
07E0
0000
0000
ENDCHAR
STARTCHAR U+f08f
ENCODING 61583
SWIDTH 500 0
DWIDTH 16 0
BBX 16 15 0 0
BITMAP
00C0
01E0
0330
0618
0C0C
180C
301C
303C
3878
3CF0
1FE0
0FC0
0780
0300
0000
ENDCHAR
STARTCHAR U+f090
ENCODING 61584
SWIDTH 500 0
DWIDTH 16 0
BBX 16 15 0 0
BITMAP
07F0
0808
12A4
22A2
22AA
4AA9
4AA9
4FF9
4FF9
27FA
27F2
13E4
0808
07F0
0000
ENDCHAR
STARTCHAR U+f091
ENCODING 61585
SWIDTH 500 0
DWIDTH 16 0
BBX 16 15 0 0
BITMAP
0180
0180
0240
0240
0420
05A0
0990
0990
1188
1008
2184
2184
4002
7FFE
0000
ENDCHAR
STARTCHAR U+f092
ENCODING 61586
SWIDTH 500 0
DWIDTH 16 0
BBX 16 15 0 0
BITMAP
0FF8
1004
1004
0AA8
0550
02A0
0140
0140
0220
0410
0888
1144
12A4
0FF8
0000
ENDCHAR
STARTCHAR U+f093
ENCODING 61587
SWIDTH 500 0
DWIDTH 16 0
BBX 16 15 0 0
BITMAP
3838
47C4
4824
3118
2108
2108
23E8
2108
2008
1010
0820
37D8
4284
7EFC
0000
ENDCHAR
STARTCHAR U+f094
ENCODING 61588
SWIDTH 500 0
DWIDTH 16 0
BBX 16 16 0 0
BITMAP
7FFF
7007
6083
4491
4491
52A5
4AA9
47F1
43E1
4001
4361
4481
6763
7517
7B6F
0000
ENDCHAR
STARTCHAR U+f095
ENCODING 61589
SWIDTH 500 0
DWIDTH 16 0
BBX 16 15 0 0
BITMAP
03E0
0770
0770
0410
0770
0360
3F7E
7777
77F7
4081
77F7
7777
3E3E
0000
0000
ENDCHAR
STARTCHAR U+f096
ENCODING 61590
SWIDTH 500 0
DWIDTH 16 0
BBX 16 14 0 0
BITMAP
0360
0770
1B6C
3B6E
3D5E
2D5A
6D5B
7557
7557
3776
1FFC
0000
0000
0000
ENDCHAR
STARTCHAR U+f097
ENCODING 61591
SWIDTH 500 0
DWIDTH 16 0
BBX 16 14 0 0
BITMAP
0FF8
1FFC
3FFE
7FFF
0000
7F7F
3F7E
1F7C
0F78
0770
0360
0140
0000
0000
ENDCHAR
STARTCHAR U+f098
ENCODING 61592
SWIDTH 500 0
DWIDTH 16 0
BBX 16 14 0 0
BITMAP
0140
02A0
02A0
0450
0450
0828
0828
1014
1014
200A
200A
3FFE
0000
0000
ENDCHAR
STARTCHAR U+f099
ENCODING 61593
SWIDTH 500 0
DWIDTH 16 0
BBX 16 16 0 0
BITMAP
3FFF
6000
5FFF
5000
51F7
5186
5186
51F7
5180
5184
51F7
5000
5FFF
7FFF
3FFF
0000
ENDCHAR
STARTCHAR U+f09a
ENCODING 61594
SWIDTH 500 0
DWIDTH 16 0
BBX 16 16 0 0
BITMAP
FFFC
0006
FFFE
000E
CF0E
590E
180E
D80E
D80E
D90E
CF0E
000E
FFFE
FFFE
FFFC
0000
ENDCHAR
STARTCHAR U+f09b
ENCODING 61595
SWIDTH 500 0
DWIDTH 16 0
BBX 16 16 0 0
BITMAP
3FFF
6000
5FFF
5000
50F7
5195
5191
5181
5191
5191
50F3
5000
5FFF
7FFF
3FFF
0000
ENDCHAR
STARTCHAR U+f09c
ENCODING 61596
SWIDTH 500 0
DWIDTH 16 0
BBX 16 16 0 0
BITMAP
FFFC
0006
FFFE
000E
EC0E
AC0E
8C0E
8C0E
8C0E
8C8E
CF8E
000E
FFFE
FFFE
FFFC
0000
ENDCHAR
STARTCHAR U+f09d
ENCODING 61597
SWIDTH 500 0
DWIDTH 16 0
BBX 16 16 0 0
BITMAP
3FFF
6000
5FFF
5000
50E6
51B6
51B6
51F6
51B6
51B6
51B7
5000
5FFF
7FFF
3FFF
0000
ENDCHAR
STARTCHAR U+f09e
ENCODING 61598
SWIDTH 500 0
DWIDTH 16 0
BBX 16 16 0 0
BITMAP
FFFC
0006
FFFE
000E
3F0E
2D0E
0C0E
0C0E
0C0E
4C0E
DE0E
000E
FFFE
FFFE
FFFC
0000
ENDCHAR
STARTCHAR U+f09f
ENCODING 61599
SWIDTH 500 0
DWIDTH 16 0
BBX 16 16 0 0
BITMAP
3FFF
6000
5FFF
5000
510D
5291
5451
56C9
5285
5285
5399
5000
5FFF
7FFF
3FFF
0000
ENDCHAR
STARTCHAR U+f0a0
ENCODING 61600
SWIDTH 500 0
DWIDTH 16 0
BBX 16 16 0 0
BITMAP
FFFC
0006
FFFE
000E
020E
154E
044E
DEEE
544E
544E
546E
000E
FFFE
FFFE
FFFC
0000
ENDCHAR
STARTCHAR U+f0a1
ENCODING 61601
SWIDTH 500 0
DWIDTH 16 0
BBX 16 16 0 0
BITMAP
3FFF
6000
5FFF
5000
5340
5445
5441
5277
5155
5155
5655
5000
5FFF
7FFF
3FFF
0000
ENDCHAR
STARTCHAR U+f0a2
ENCODING 61602
SWIDTH 500 0
DWIDTH 16 0
BBX 16 16 0 0
BITMAP
FFFC
0006
FFFE
000E
808E
514E
122E
BB6E
114E
114E
19CE
000E
FFFE
FFFE
FFFC
0000
ENDCHAR
STARTCHAR U+f0a3
ENCODING 61603
SWIDTH 500 0
DWIDTH 16 0
BBX 16 16 0 0
BITMAP
3FFF
6000
5FFF
5000
51D0
53F1
5159
51D2
5012
5104
51F4
5000
5FFF
7FFF
3FFF
0000
ENDCHAR
STARTCHAR U+f0a4
ENCODING 61604
SWIDTH 500 0
DWIDTH 16 0
BBX 16 16 0 0
BITMAP
FFFC
0006
FFFE
000E
920E
AE0E
2A0E
160E
0C0E
120E
0C0E
000E
FFFE
FFFE
FFFC
0000
ENDCHAR
STARTCHAR U+f0a5
ENCODING 61605
SWIDTH 500 0
DWIDTH 16 0
BBX 16 16 0 0
BITMAP
3FFF
6000
5FFF
5000
5024
50FC
5056
5074
5004
5040
507C
5000
5FFF
7FFF
3FFF
0000
ENDCHAR
STARTCHAR U+f0a6
ENCODING 61606
SWIDTH 500 0
DWIDTH 16 0
BBX 16 16 0 0
BITMAP
FFFC
0006
FFFE
000E
020E
7A0E
0A0E
130E
320E
4A0E
020E
000E
FFFE
FFFE
FFFC
0000
ENDCHAR
STARTCHAR U+f0a7
ENCODING 61607
SWIDTH 500 0
DWIDTH 16 0
BBX 16 16 0 0
BITMAP
3FFF
6000
5FFF
5000
5000
5000
5000
5000
5000
5000
5000
5000
5FFF
7FFF
3FFF
0000
ENDCHAR
STARTCHAR U+f0a8
ENCODING 61608
SWIDTH 500 0
DWIDTH 16 0
BBX 16 16 0 0
BITMAP
FFFF
0000
FFFF
0000
0000
0000
0000
0000
0000
0000
0000
0000
FFFF
FFFF
FFFF
0000
ENDCHAR
STARTCHAR U+f0a9
ENCODING 61609
SWIDTH 500 0
DWIDTH 16 0
BBX 16 16 0 0
BITMAP
FFFF
0000
FFFF
0000
0000
0000
0000
0000
0000
0000
0000
0000
FFFF
FFFF
FFFF
0000
ENDCHAR
STARTCHAR U+f0aa
ENCODING 61610
SWIDTH 500 0
DWIDTH 16 0
BBX 16 16 0 0
BITMAP
FFFC
0006
FFFE
000E
000E
000E
000E
000E
000E
000E
000E
000E
FFFE
FFFE
FFFC
0000
ENDCHAR
STARTCHAR U+f0ab
ENCODING 61611
SWIDTH 500 0
DWIDTH 16 0
BBX 16 16 0 0
BITMAP
3FFF
6000
5FFF
5000
53E0
5080
508E
5092
5092
5096
508A
5000
5FFF
7FFF
3FFF
0000
ENDCHAR
STARTCHAR U+f0ac
ENCODING 61612
SWIDTH 500 0
DWIDTH 16 0
BBX 16 16 0 0
BITMAP
FFFC
0006
FFFE
000E
040E
8FCE
840E
E00E
904E
97EE
E04E
000E
FFFE
FFFE
FFFC
0000
ENDCHAR
STARTCHAR U+f0ad
ENCODING 61613
SWIDTH 500 0
DWIDTH 16 0
BBX 16 16 0 0
BITMAP
3FFF
6000
5FFF
5000
51E7
51B6
51B6
51E7
51B6
51B6
51B7
5000
5FFF
7FFF
3FFF
0000
ENDCHAR
STARTCHAR U+f0ae
ENCODING 61614
SWIDTH 500 0
DWIDTH 16 0
BBX 16 16 0 0
BITMAP
FFFC
0006
FFFE
000E
DF8E
168E
060E
860E
060E
060E
CF0E
000E
FFFE
FFFE
FFFC
0000
ENDCHAR
STARTCHAR U+f0af
ENCODING 61615
SWIDTH 500 0
DWIDTH 16 0
BBX 16 16 0 0
BITMAP
3FFF
6000
5FFF
5000
503E
5030
5030
503C
5030
5030
5030
5000
5FFF
7FFF
3FFF
0000
ENDCHAR
STARTCHAR U+f0b0
ENCODING 61616
SWIDTH 500 0
DWIDTH 16 0
BBX 16 16 0 0
BITMAP
FFFC
0006
FFFE
000E
300E
700E
300E
300E
300E
300E
780E
000E
FFFE
FFFE
FFFC
0000
ENDCHAR
STARTCHAR U+f0b1
ENCODING 61617
SWIDTH 500 0
DWIDTH 16 0
BBX 16 16 0 0
BITMAP
3FFF
6000
5FFF
5000
503E
5030
5030
503C
5030
5030
5030
5000
5FFF
7FFF
3FFF
0000
ENDCHAR
STARTCHAR U+f0b2
ENCODING 61618
SWIDTH 500 0
DWIDTH 16 0
BBX 16 16 0 0
BITMAP
FFFC
0006
FFFE
000E
380E
6C0E
6C0E
180E
300E
640E
7C0E
000E
FFFE
FFFE
FFFC
0000
ENDCHAR
STARTCHAR U+f0b3
ENCODING 61619
SWIDTH 500 0
DWIDTH 16 0
BBX 16 16 0 0
BITMAP
3FFF
6000
5FFF
5000
503E
5030
5030
503C
5030
5030
5030
5000
5FFF
7FFF
3FFF
0000
ENDCHAR
STARTCHAR U+f0b4
ENCODING 61620
SWIDTH 500 0
DWIDTH 16 0
BBX 16 16 0 0
BITMAP
FFFC
0006
FFFE
000E
380E
6C0E
0C0E
380E
0C0E
6C0E
380E
000E
FFFE
FFFE
FFFC
0000
ENDCHAR
STARTCHAR U+f0b5
ENCODING 61621
SWIDTH 500 0
DWIDTH 16 0
BBX 16 16 0 0
BITMAP
3FFF
6000
5FFF
5000
503E
5030
5030
503C
5030
5030
5030
5000
5FFF
7FFF
3FFF
0000
ENDCHAR
STARTCHAR U+f0b6
ENCODING 61622
SWIDTH 500 0
DWIDTH 16 0
BBX 16 16 0 0
BITMAP
FFFC
0006
FFFE
000E
1C0E
3C0E
6C0E
6C0E
7E0E
0C0E
0C0E
000E
FFFE
FFFE
FFFC
0000
ENDCHAR
STARTCHAR U+f0b7
ENCODING 61623
SWIDTH 500 0
DWIDTH 16 0
BBX 16 16 0 0
BITMAP
3FFF
6000
5FFF
5000
503E
5030
5030
503C
5030
5030
5030
5000
5FFF
7FFF
3FFF
0000
ENDCHAR
STARTCHAR U+f0b8
ENCODING 61624
SWIDTH 500 0
DWIDTH 16 0
BBX 16 16 0 0
BITMAP
FFFC
0006
FFFE
000E
7C0E
600E
600E
780E
0C0E
0C0E
780E
000E
FFFE
FFFE
FFFC
0000
ENDCHAR
STARTCHAR U+f0b9
ENCODING 61625
SWIDTH 500 0
DWIDTH 16 0
BBX 16 16 0 0
BITMAP
3FFF
6000
5FFF
5000
503E
5030
5030
503C
5030
5030
5030
5000
5FFF
7FFF
3FFF
0000
ENDCHAR
STARTCHAR U+f0ba
ENCODING 61626
SWIDTH 500 0
DWIDTH 16 0
BBX 16 16 0 0
BITMAP
FFFC
0006
FFFE
000E
380E
640E
600E
780E
6C0E
6C0E
380E
000E
FFFE
FFFE
FFFC
0000
ENDCHAR
STARTCHAR U+f0bb
ENCODING 61627
SWIDTH 500 0
DWIDTH 16 0
BBX 16 16 0 0
BITMAP
3FFF
6000
5FFF
5000
503E
5030
5030
503C
5030
5030
5030
5000
5FFF
7FFF
3FFF
0000
ENDCHAR
STARTCHAR U+f0bc
ENCODING 61628
SWIDTH 500 0
DWIDTH 16 0
BBX 16 16 0 0
BITMAP
FFFC
0006
FFFE
000E
7C0E
6C0E
6C0E
0C0E
180E
300E
300E
000E
FFFE
FFFE
FFFC
0000
ENDCHAR
STARTCHAR U+f0bd
ENCODING 61629
SWIDTH 500 0
DWIDTH 16 0
BBX 16 16 0 0
BITMAP
3FFF
6000
5FFF
5000
503E
5030
5030
503C
5030
5030
5030
5000
5FFF
7FFF
3FFF
0000
ENDCHAR
STARTCHAR U+f0be
ENCODING 61630
SWIDTH 500 0
DWIDTH 16 0
BBX 16 16 0 0
BITMAP
FFFC
0006
FFFE
000E
380E
6C0E
6C0E
380E
6C0E
6C0E
380E
000E
FFFE
FFFE
FFFC
0000
ENDCHAR
STARTCHAR U+f0bf
ENCODING 61631
SWIDTH 500 0
DWIDTH 16 0
BBX 16 16 0 0
BITMAP
3FFF
6000
5FFF
5000
503E
5030
5030
503C
5030
5030
5030
5000
5FFF
7FFF
3FFF
0000
ENDCHAR
STARTCHAR U+f0c0
ENCODING 61632
SWIDTH 500 0
DWIDTH 16 0
BBX 16 16 0 0
BITMAP
FFFC
0006
FFFE
000E
380E
6C0E
6C0E
3C0E
0C0E
6C0E
380E
000E
FFFE
FFFE
FFFC
0000
ENDCHAR
STARTCHAR U+f0c1
ENCODING 61633
SWIDTH 500 0
DWIDTH 16 0
BBX 16 16 0 0
BITMAP
3FFF
6000
5FFF
5000
503E
5030
5030
503C
5030
5030
5030
5000
5FFF
7FFF
3FFF
0000
ENDCHAR
STARTCHAR U+f0c2
ENCODING 61634
SWIDTH 500 0
DWIDTH 16 0
BBX 16 16 0 0
BITMAP
FFFC
0006
FFFE
000E
670E
ED8E
6D8E
6D8E
6D8E
6D8E
F70E
000E
FFFE
FFFE
FFFC
0000
ENDCHAR
STARTCHAR U+f0c3
ENCODING 61635
SWIDTH 500 0
DWIDTH 16 0
BBX 16 16 0 0
BITMAP
3FFF
6000
5FFF
5000
503E
5030
5030
503C
5030
5030
5030
5000
5FFF
7FFF
3FFF
0000
ENDCHAR
STARTCHAR U+f0c4
ENCODING 61636
SWIDTH 500 0
DWIDTH 16 0
BBX 16 16 0 0
BITMAP
FFFC
0006
FFFE
000E
630E
E70E
630E
630E
630E
630E
F78E
000E
FFFE
FFFE
FFFC
0000
ENDCHAR
STARTCHAR U+f0c5
ENCODING 61637
SWIDTH 500 0
DWIDTH 16 0
BBX 16 16 0 0
BITMAP
3FFF
6000
5FFF
5000
503E
5030
5030
503C
5030
5030
5030
5000
5FFF
7FFF
3FFF
0000
ENDCHAR
STARTCHAR U+f0c6
ENCODING 61638
SWIDTH 500 0
DWIDTH 16 0
BBX 16 16 0 0
BITMAP
FFFC
0006
FFFE
000E
670E
ED8E
6D8E
630E
660E
6C8E
FF8E
000E
FFFE
FFFE
FFFC
0000
ENDCHAR
STARTCHAR U+f0c7
ENCODING 61639
SWIDTH 500 0
DWIDTH 16 0
BBX 16 16 0 0
BITMAP
3FFF
6000
5FFF
5000
5000
5006
5007
5001
5000
5000
5000
5000
5FFF
7FFF
3FFF
0000
ENDCHAR
STARTCHAR U+f0c8
ENCODING 61640
SWIDTH 500 0
DWIDTH 16 0
BBX 16 16 0 0
BITMAP
FFFC
0006
FFFE
000E
000E
000E
000E
800E
000E
000E
000E
000E
FFFE
FFFE
FFFC
0000
ENDCHAR
STARTCHAR U+f0c9
ENCODING 61641
SWIDTH 500 0
DWIDTH 16 0
BBX 16 16 0 0
BITMAP
3FFF
6000
5FFF
5000
5000
5007
5007
5000
5007
5007
5000
5000
5FFF
7FFF
3FFF
0000
ENDCHAR
STARTCHAR U+f0ca
ENCODING 61642
SWIDTH 500 0
DWIDTH 16 0
BBX 16 16 0 0
BITMAP
FFFC
0006
FFFE
000E
000E
E00E
E00E
000E
E00E
E00E
000E
000E
FFFE
FFFE
FFFC
0000
ENDCHAR
STARTCHAR U+f0cb
ENCODING 61643
SWIDTH 500 0
DWIDTH 16 0
BBX 16 16 0 0
BITMAP
3FFF
6000
5FFF
5000
5000
5001
5001
5007
5007
5001
5001
5000
5FFF
7FFF
3FFF
0000
ENDCHAR
STARTCHAR U+f0cc
ENCODING 61644
SWIDTH 500 0
DWIDTH 16 0
BBX 16 16 0 0
BITMAP
FFFC
0006
FFFE
000E
000E
800E
800E
E00E
E00E
800E
800E
000E
FFFE
FFFE
FFFC
0000
ENDCHAR
STARTCHAR U+f0cd
ENCODING 61645
SWIDTH 500 0
DWIDTH 16 0
BBX 16 16 0 0
BITMAP
3FFF
6000
5FFF
5000
5000
5000
5000
5007
5007
5000
5000
5000
5FFF
7FFF
3FFF
0000
ENDCHAR
STARTCHAR U+f0ce
ENCODING 61646
SWIDTH 500 0
DWIDTH 16 0
BBX 16 16 0 0
BITMAP
FFFC
0006
FFFE
000E
000E
000E
000E
E00E
E00E
000E
000E
000E
FFFE
FFFE
FFFC
0000
ENDCHAR
STARTCHAR U+f0cf
ENCODING 61647
SWIDTH 500 0
DWIDTH 16 0
BBX 16 16 0 0
BITMAP
3FFF
6000
5FFF
5000
5000
5005
5003
5007
5003
5005
5000
5000
5FFF
7FFF
3FFF
0000
ENDCHAR
STARTCHAR U+f0d0
ENCODING 61648
SWIDTH 500 0
DWIDTH 16 0
BBX 16 16 0 0
BITMAP
FFFC
0006
FFFE
000E
000E
400E
800E
C00E
800E
400E
000E
000E
FFFE
FFFE
FFFC
0000
ENDCHAR
STARTCHAR U+f0d1
ENCODING 61649
SWIDTH 500 0
DWIDTH 16 0
BBX 16 16 0 0
BITMAP
3FFF
6000
5FFF
5000
5000
5000
5000
5000
5001
5003
5000
5000
5FFF
7FFF
3FFF
0000
ENDCHAR
STARTCHAR U+f0d2
ENCODING 61650
SWIDTH 500 0
DWIDTH 16 0
BBX 16 16 0 0
BITMAP
FFFC
0006
FFFE
000E
000E
200E
600E
C00E
800E
000E
000E
000E
FFFE
FFFE
FFFC
0000
ENDCHAR
STARTCHAR U+f0d3
ENCODING 61651
SWIDTH 500 0
DWIDTH 16 0
BBX 16 16 0 0
BITMAP
3FFF
6000
5FFF
5000
5000
5004
500A
5004
5001
5002
5004
5000
5FFF
7FFF
3FFF
0000
ENDCHAR
STARTCHAR U+f0d4
ENCODING 61652
SWIDTH 500 0
DWIDTH 16 0
BBX 16 16 0 0
BITMAP
FFFC
0006
FFFE
000E
000E
200E
400E
800E
200E
500E
200E
000E
FFFE
FFFE
FFFC
0000
ENDCHAR
STARTCHAR U+f0d5
ENCODING 61653
SWIDTH 500 0
DWIDTH 16 0
BBX 16 16 0 0
BITMAP
3FFF
6000
5FFF
5000
5000
5004
5006
5003
5001
5000
5000
5000
5FFF
7FFF
3FFF
0000
ENDCHAR
STARTCHAR U+f0d6
ENCODING 61654
SWIDTH 500 0
DWIDTH 16 0
BBX 16 16 0 0
BITMAP
FFFC
0006
FFFE
000E
000E
000E
000E
000E
800E
C00E
000E
000E
FFFE
FFFE
FFFC
0000
ENDCHAR
STARTCHAR U+f0d7
ENCODING 61655
SWIDTH 500 0
DWIDTH 16 0
BBX 16 16 0 0
BITMAP
3FFF
6000
5FFF
5000
5366
536D
536D
53ED
536D
536D
5366
5000
5FFF
7FFF
3FFF
0000
ENDCHAR
STARTCHAR U+f0d8
ENCODING 61656
SWIDTH 500 0
DWIDTH 16 0
BBX 16 16 0 0
BITMAP
FFFC
0006
FFFE
000E
4BCE
7B0E
7B0E
6BCE
6B0E
6B0E
6BCE
000E
FFFE
FFFE
FFFC
0000
ENDCHAR
STARTCHAR U+f0d9
ENCODING 61657
SWIDTH 500 0
DWIDTH 16 0
BBX 16 16 0 0
BITMAP
3FFF
6000
5FFF
5000
51F6
5187
5187
51E6
5186
5186
51F6
5000
5FFF
7FFF
3FFF
0000
ENDCHAR
STARTCHAR U+f0da
ENCODING 61658
SWIDTH 500 0
DWIDTH 16 0
BBX 16 16 0 0
BITMAP
FFFC
0006
FFFE
000E
5C0E
5A0E
DA0E
DA0E
5A0E
5A0E
5C0E
000E
FFFE
FFFE
FFFC
0000
ENDCHAR
STARTCHAR U+f0db
ENCODING 61659
SWIDTH 500 0
DWIDTH 16 0
BBX 16 16 0 0
BITMAP
3FFF
6000
5FFF
5000
578E
5659
5658
579B
5619
561F
560D
5000
5FFF
7FFF
3FFF
0000
ENDCHAR
STARTCHAR U+f0dc
ENCODING 61660
SWIDTH 500 0
DWIDTH 16 0
BBX 16 16 0 0
BITMAP
FFFC
0006
FFFE
000E
6BCE
6B2E
6B2E
6BCE
6B0E
7B0E
7B0E
000E
FFFE
FFFE
FFFC
0000
ENDCHAR
STARTCHAR U+f0dd
ENCODING 61661
SWIDTH 500 0
DWIDTH 16 0
BBX 16 16 0 0
BITMAP
3FFF
6000
5FFF
5000
578E
5659
5658
579B
5619
561F
560D
5000
5FFF
7FFF
3FFF
0000
ENDCHAR
STARTCHAR U+f0de
ENCODING 61662
SWIDTH 500 0
DWIDTH 16 0
BBX 16 16 0 0
BITMAP
FFFC
0006
FFFE
000E
732E
6BAE
6BEE
6B6E
6B2E
6B2E
732E
000E
FFFE
FFFE
FFFC
0000
ENDCHAR
STARTCHAR U+f0df
ENCODING 61663
SWIDTH 500 0
DWIDTH 16 0
BBX 16 16 0 0
BITMAP
3FFF
6000
5FFF
5000
51E6
50C7
50C7
50C6
50C6
50C6
51E6
5000
5FFF
7FFF
3FFF
0000
ENDCHAR
STARTCHAR U+f0e0
ENCODING 61664
SWIDTH 500 0
DWIDTH 16 0
BBX 16 16 0 0
BITMAP
FFFC
0006
FFFE
000E
4E0E
590E
D80E
CE0E
430E
530E
4E0E
000E
FFFE
FFFE
FFFC
0000
ENDCHAR
STARTCHAR U+f0e1
ENCODING 61665
SWIDTH 500 0
DWIDTH 16 0
BBX 16 16 0 0
BITMAP
3FFF
6000
5FFF
5000
51E7
5196
5196
5197
5196
5196
51E7
5000
5FFF
7FFF
3FFF
0000
ENDCHAR
STARTCHAR U+f0e2
ENCODING 61666
SWIDTH 500 0
DWIDTH 16 0
BBX 16 16 0 0
BITMAP
FFFC
0006
FFFE
000E
D80E
180E
180E
980E
180E
180E
DF0E
000E
FFFE
FFFE
FFFC
0000
ENDCHAR
STARTCHAR U+f0e3
ENCODING 61667
SWIDTH 500 0
DWIDTH 16 0
BBX 16 16 0 0
BITMAP
3FFF
6000
5FFF
5000
5700
5480
54A9
5734
5420
5420
5420
5000
5FFF
7FFF
3FFF
0000
ENDCHAR
STARTCHAR U+f0e4
ENCODING 61668
SWIDTH 500 0
DWIDTH 16 0
BBX 16 16 0 0
BITMAP
FFFC
0006
FFFE
000E
800E
800E
EE6E
888E
848E
828E
EE6E
000E
FFFE
FFFE
FFFC
0000
ENDCHAR
STARTCHAR U+f0e5
ENCODING 61669
SWIDTH 500 0
DWIDTH 16 0
BBX 16 11 0 0
BITMAP
07FF
0420
05FF
0500
0500
0700
0500
0500
0500
0500
0500
ENDCHAR
STARTCHAR U+f0e6
ENCODING 61670
SWIDTH 500 0
DWIDTH 16 0
BBX 16 11 0 0
BITMAP
FFFF
0000
FFFF
0000
0000
0000
0000
0000
0FFF
0CC8
0CC8
ENDCHAR
STARTCHAR U+f0e7
ENCODING 61671
SWIDTH 500 0
DWIDTH 16 0
BBX 16 11 0 0
BITMAP
FFFF
0000
FFFF
0000
0000
0000
0000
0000
FFF0
1FF0
1FF0
ENDCHAR
STARTCHAR U+f0e8
ENCODING 61672
SWIDTH 500 0
DWIDTH 16 0
BBX 16 11 0 0
BITMAP
FFFF
0000
FFFF
0000
0000
0000
0000
0000
0000
0000
0000
ENDCHAR
STARTCHAR U+f0e9
ENCODING 61673
SWIDTH 500 0
DWIDTH 16 0
BBX 16 11 0 0
BITMAP
FFFF
0000
FFFF
0000
0000
0000
0000
0000
0000
0000
0000
ENDCHAR
STARTCHAR U+f0ea
ENCODING 61674
SWIDTH 500 0
DWIDTH 16 0
BBX 16 11 0 0
BITMAP
FFFF
0000
FFFF
0000
0000
0000
0000
0000
0000
0000
0000
ENDCHAR
STARTCHAR U+f0eb
ENCODING 61675
SWIDTH 500 0
DWIDTH 16 0
BBX 16 11 0 0
BITMAP
FFFF
0000
FFFF
0000
0000
0000
0000
0000
0000
0000
0000
ENDCHAR
STARTCHAR U+f0ec
ENCODING 61676
SWIDTH 500 0
DWIDTH 16 0
BBX 16 11 0 0
BITMAP
FFFF
0000
FFFF
0000
0000
0000
0000
0000
0000
0000
0000
ENDCHAR
STARTCHAR U+f0ed
ENCODING 61677
SWIDTH 500 0
DWIDTH 16 0
BBX 16 11 0 0
BITMAP
FFFF
0000
FFFF
0000
0000
0000
0000
0000
0000
0000
0000
ENDCHAR
STARTCHAR U+f0ee
ENCODING 61678
SWIDTH 500 0
DWIDTH 16 0
BBX 16 11 0 0
BITMAP
FFFF
0000
FFFF
0000
0000
0000
0000
0000
0000
0000
0000
ENDCHAR
STARTCHAR U+f0ef
ENCODING 61679
SWIDTH 500 0
DWIDTH 16 0
BBX 16 11 0 0
BITMAP
FFFF
0000
FFFF
0000
0000
0000
0000
0000
0000
0000
0000
ENDCHAR
STARTCHAR U+f0f0
ENCODING 61680
SWIDTH 500 0
DWIDTH 16 0
BBX 16 11 0 0
BITMAP
FFFF
0000
FFFF
0000
0000
0000
0000
0000
0000
0000
0000
ENDCHAR
STARTCHAR U+f0f1
ENCODING 61681
SWIDTH 500 0
DWIDTH 16 0
BBX 16 11 0 0
BITMAP
FFFF
0000
FFFF
0000
0000
0000
0000
0000
0000
0000
0000
ENDCHAR
STARTCHAR U+f0f2
ENCODING 61682
SWIDTH 500 0
DWIDTH 16 0
BBX 16 11 0 0
BITMAP
FFFF
0000
FFFF
0000
0000
0000
0000
0000
0000
0000
0000
ENDCHAR
STARTCHAR U+f0f3
ENCODING 61683
SWIDTH 500 0
DWIDTH 16 0
BBX 16 11 0 0
BITMAP
FFFF
0000
FFFF
0000
0000
0000
0000
0000
0000
0000
0000
ENDCHAR
STARTCHAR U+f0f4
ENCODING 61684
SWIDTH 500 0
DWIDTH 16 0
BBX 16 11 0 0
BITMAP
FFFF
0000
FFFF
0000
0000
0000
0000
0000
0000
0000
0000
ENDCHAR
STARTCHAR U+f0f5
ENCODING 61685
SWIDTH 500 0
DWIDTH 16 0
BBX 16 11 0 0
BITMAP
FFFF
0000
FFFF
0000
0000
0000
0000
0000
0000
0000
0000
ENDCHAR
STARTCHAR U+f0f6
ENCODING 61686
SWIDTH 500 0
DWIDTH 16 0
BBX 16 11 0 0
BITMAP
FFFF
0000
FFFF
0000
0000
0000
0000
0000
0000
0000
0000
ENDCHAR
STARTCHAR U+f0f7
ENCODING 61687
SWIDTH 500 0
DWIDTH 16 0
BBX 16 11 0 0
BITMAP
FFFF
0000
FFFF
0000
0000
0000
0000
0000
0000
0000
0000
ENDCHAR
STARTCHAR U+f0f8
ENCODING 61688
SWIDTH 500 0
DWIDTH 16 0
BBX 16 11 0 0
BITMAP
FFFF
0000
FFFF
0000
0000
0000
0000
0000
0000
0000
0000
ENDCHAR
STARTCHAR U+f0f9
ENCODING 61689
SWIDTH 500 0
DWIDTH 16 0
BBX 16 11 0 0
BITMAP
FFFF
0000
FFFF
0000
0000
0000
0000
0000
0000
0000
0000
ENDCHAR
STARTCHAR U+f0fa
ENCODING 61690
SWIDTH 500 0
DWIDTH 16 0
BBX 16 11 0 0
BITMAP
FFFF
0000
FFFF
0000
0000
0000
0000
0000
0000
0000
0000
ENDCHAR
STARTCHAR U+f0fb
ENCODING 61691
SWIDTH 500 0
DWIDTH 16 0
BBX 16 11 0 0
BITMAP
FFFF
0000
FFFF
0000
0000
0000
0000
0000
0000
0000
0000
ENDCHAR
STARTCHAR U+f0fc
ENCODING 61692
SWIDTH 500 0
DWIDTH 16 0
BBX 16 11 0 0
BITMAP
FFFF
0000
FFFF
0000
0000
0000
0000
0000
0000
0000
0000
ENDCHAR
STARTCHAR U+f0fd
ENCODING 61693
SWIDTH 500 0
DWIDTH 16 0
BBX 16 11 0 0
BITMAP
FFFF
0000
FFFF
0000
0000
0000
0000
0000
0000
0000
0000
ENDCHAR
STARTCHAR U+f0fe
ENCODING 61694
SWIDTH 500 0
DWIDTH 16 0
BBX 16 11 0 0
BITMAP
FFE0
0420
FFA0
00A0
00A0
00E0
00A0
00A0
00A0
00A0
00A0
ENDCHAR
STARTCHAR U+f0ff
ENCODING 61695
SWIDTH 500 0
DWIDTH 8 0
BBX 8 16 0 0
BITMAP
0500
0500
0500
0500
0500
0500
0500
0500
0500
0500
0500
0500
0500
0500
0500
0500
ENDCHAR
STARTCHAR U+f100
ENCODING 61696
SWIDTH 500 0
DWIDTH 16 0
BBX 16 16 0 0
BITMAP
0CCF
0CCF
0C08
0C08
0CC9
0CC9
0C08
0C08
0FFF
0F3E
0F3E
0FFF
0000
0000
0000
0000
ENDCHAR
STARTCHAR U+f101
ENCODING 61697
SWIDTH 500 0
DWIDTH 16 0
BBX 16 16 0 0
BITMAP
1FF0
1FF0
1FF0
1FF0
FFF0
F030
1030
1330
F330
7030
7030
FFF0
0000
0000
0000
0000
ENDCHAR
STARTCHAR U+f102
ENCODING 61698
SWIDTH 500 0
DWIDTH 8 0
BBX 8 0 0 0
BITMAP

ENDCHAR
STARTCHAR U+f103
ENCODING 61699
SWIDTH 500 0
DWIDTH 8 0
BBX 8 0 0 0
BITMAP

ENDCHAR
STARTCHAR U+f104
ENCODING 61700
SWIDTH 500 0
DWIDTH 8 0
BBX 8 0 0 0
BITMAP

ENDCHAR
STARTCHAR U+f105
ENCODING 61701
SWIDTH 500 0
DWIDTH 8 0
BBX 8 0 0 0
BITMAP

ENDCHAR
STARTCHAR U+f106
ENCODING 61702
SWIDTH 500 0
DWIDTH 8 0
BBX 8 0 0 0
BITMAP

ENDCHAR
STARTCHAR U+f107
ENCODING 61703
SWIDTH 500 0
DWIDTH 8 0
BBX 8 0 0 0
BITMAP

ENDCHAR
STARTCHAR U+f108
ENCODING 61704
SWIDTH 500 0
DWIDTH 8 0
BBX 8 0 0 0
BITMAP

ENDCHAR
STARTCHAR U+f109
ENCODING 61705
SWIDTH 500 0
DWIDTH 8 0
BBX 8 0 0 0
BITMAP

ENDCHAR
STARTCHAR U+f10a
ENCODING 61706
SWIDTH 500 0
DWIDTH 8 0
BBX 8 0 0 0
BITMAP

ENDCHAR
STARTCHAR U+f10b
ENCODING 61707
SWIDTH 500 0
DWIDTH 8 0
BBX 8 0 0 0
BITMAP

ENDCHAR
STARTCHAR U+f10c
ENCODING 61708
SWIDTH 500 0
DWIDTH 8 0
BBX 8 0 0 0
BITMAP

ENDCHAR
STARTCHAR U+f10d
ENCODING 61709
SWIDTH 500 0
DWIDTH 8 0
BBX 8 0 0 0
BITMAP

ENDCHAR
STARTCHAR U+f10e
ENCODING 61710
SWIDTH 500 0
DWIDTH 8 0
BBX 8 0 0 0
BITMAP

ENDCHAR
STARTCHAR U+f10f
ENCODING 61711
SWIDTH 500 0
DWIDTH 8 0
BBX 8 0 0 0
BITMAP

ENDCHAR
STARTCHAR U+f110
ENCODING 61712
SWIDTH 500 0
DWIDTH 8 0
BBX 8 0 0 0
BITMAP

ENDCHAR
STARTCHAR U+f111
ENCODING 61713
SWIDTH 500 0
DWIDTH 8 0
BBX 8 0 0 0
BITMAP

ENDCHAR
STARTCHAR U+f112
ENCODING 61714
SWIDTH 500 0
DWIDTH 8 0
BBX 8 0 0 0
BITMAP

ENDCHAR
STARTCHAR U+f113
ENCODING 61715
SWIDTH 500 0
DWIDTH 8 0
BBX 8 0 0 0
BITMAP

ENDCHAR
STARTCHAR U+f114
ENCODING 61716
SWIDTH 500 0
DWIDTH 8 0
BBX 8 0 0 0
BITMAP

ENDCHAR
STARTCHAR U+f115
ENCODING 61717
SWIDTH 500 0
DWIDTH 8 0
BBX 8 0 0 0
BITMAP

ENDCHAR
STARTCHAR U+f116
ENCODING 61718
SWIDTH 500 0
DWIDTH 8 0
BBX 8 0 0 0
BITMAP

ENDCHAR
STARTCHAR U+f117
ENCODING 61719
SWIDTH 500 0
DWIDTH 8 0
BBX 8 0 0 0
BITMAP

ENDCHAR
STARTCHAR U+f118
ENCODING 61720
SWIDTH 500 0
DWIDTH 16 0
BBX 16 16 0 0
BITMAP
00A0
00A0
00A0
00A0
00A0
00A0
00A0
00A0
00A0
00A0
00A0
00A0
00A0
00A0
00A0
00A0
ENDCHAR
STARTCHAR U+f119
ENCODING 61721
SWIDTH 500 0
DWIDTH 8 0
BBX 8 16 0 0
BITMAP
0500
0500
0500
0500
0500
0500
0500
0500
0500
0500
0500
0500
0500
0500
0500
0500
ENDCHAR
STARTCHAR U+f11a
ENCODING 61722
SWIDTH 500 0
DWIDTH 16 0
BBX 16 16 0 0
BITMAP
3FFC
6006
5FFE
500E
570E
540E
56EE
54AE
57AE
500E
500E
500E
5FFE
7FFE
3FFC
0000
ENDCHAR
STARTCHAR U+f11b
ENCODING 61723
SWIDTH 500 0
DWIDTH 16 0
BBX 16 16 0 0
BITMAP
3FFC
6006
5FFE
500E
570E
544E
544E
574E
544E
544E
544E
500E
5FFE
7FFE
3FFC
0000
ENDCHAR
STARTCHAR U+f11c
ENCODING 61724
SWIDTH 500 0
DWIDTH 16 0
BBX 16 16 0 0
BITMAP
3FFC
6006
5FFE
500E
574E
54AE
542E
572E
544E
548E
54EE
500E
5FFE
7FFE
3FFC
0000
ENDCHAR
STARTCHAR U+f11d
ENCODING 61725
SWIDTH 500 0
DWIDTH 16 0
BBX 16 16 0 0
BITMAP
3FFC
6006
5FFE
500E
574E
54AE
542E
574E
542E
54AE
544E
500E
5FFE
7FFE
3FFC
0000
ENDCHAR
STARTCHAR U+f11e
ENCODING 61726
SWIDTH 500 0
DWIDTH 16 0
BBX 16 16 0 0
BITMAP
3FFC
6006
5FFE
500E
572E
546E
54AE
57AE
54EE
542E
542E
500E
5FFE
7FFE
3FFC
0000
ENDCHAR
STARTCHAR U+f11f
ENCODING 61727
SWIDTH 500 0
DWIDTH 8 0
BBX 8 0 0 0
BITMAP

ENDCHAR
STARTCHAR U+f120
ENCODING 61728
SWIDTH 500 0
DWIDTH 16 0
BBX 16 16 0 0
BITMAP
3FFC
6006
5FFE
500E
576E
548E
548E
576E
542E
54AE
544E
500E
5FFE
7FFE
3FFC
0000
ENDCHAR
STARTCHAR U+f121
ENCODING 61729
SWIDTH 500 0
DWIDTH 16 0
BBX 16 16 0 0
BITMAP
3FFC
6006
5FFE
500E
574E
54AE
548E
57CE
54AE
54AE
544E
500E
5FFE
7FFE
3FFC
0000
ENDCHAR
STARTCHAR U+f122
ENCODING 61730
SWIDTH 500 0
DWIDTH 16 0
BBX 16 16 0 0
BITMAP
3FFC
6006
5FFE
500E
56EE
54AE
54AE
562E
544E
544E
544E
500E
5FFE
7FFE
3FFC
0000
ENDCHAR
STARTCHAR U+f123
ENCODING 61731
SWIDTH 500 0
DWIDTH 16 0
BBX 16 16 0 0
BITMAP
3FFC
6006
5FFE
500E
574E
54AE
54AE
574E
54AE
54AE
544E
500E
5FFE
7FFE
3FFC
0000
ENDCHAR
STARTCHAR U+f124
ENCODING 61732
SWIDTH 500 0
DWIDTH 8 0
BBX 8 0 0 0
BITMAP

ENDCHAR
STARTCHAR U+f125
ENCODING 61733
SWIDTH 500 0
DWIDTH 16 0
BBX 16 16 0 0
BITMAP
3FFC
6006
5FFE
500E
574E
54AE
54AE
576E
542E
54AE
544E
500E
5FFE
7FFE
3FFC
0000
ENDCHAR
STARTCHAR U+f126
ENCODING 61734
SWIDTH 500 0
DWIDTH 16 0
BBX 16 16 0 0
BITMAP
3FFC
6006
5FFE
500E
560E
540E
556E
576E
556E
556E
556E
500E
5FFE
7FFE
3FFC
0000
ENDCHAR
STARTCHAR U+f127
ENCODING 61735
SWIDTH 500 0
DWIDTH 16 0
BBX 16 16 0 0
BITMAP
3FFC
6006
5FFE
500E
560E
540E
556E
576E
556E
556E
556E
500E
5FFE
7FFE
3FFC
0000
ENDCHAR
STARTCHAR U+f128
ENCODING 61736
SWIDTH 500 0
DWIDTH 16 0
BBX 16 16 0 0
BITMAP
3FFC
6006
5FFE
500E
560E
540E
556E
576E
556E
556E
556E
500E
5FFE
7FFE
3FFC
0000
ENDCHAR
STARTCHAR U+f129
ENCODING 61737
SWIDTH 500 0
DWIDTH 8 0
BBX 8 0 0 0
BITMAP

ENDCHAR
STARTCHAR U+f12a
ENCODING 61738
SWIDTH 500 0
DWIDTH 16 0
BBX 16 16 0 0
BITMAP
3FFC
6006
5FFE
500E
560E
550E
550E
564E
54EE
55EE
55EE
500E
5FFE
7FFE
3FFC
0000
ENDCHAR
STARTCHAR U+f12b
ENCODING 61739
SWIDTH 500 0
DWIDTH 16 0
BBX 16 16 0 0
BITMAP
3FFC
6006
5FFE
500E
530E
540E
546E
53EE
51EE
56EE
500E
500E
5FFE
7FFE
3FFC
0000
ENDCHAR
STARTCHAR U+f12c
ENCODING 61740
SWIDTH 500 0
DWIDTH 16 0
BBX 16 16 0 0
BITMAP
3FFC
6006
5FFE
500E
560E
550E
550E
560E
54EE
55EE
55EE
500E
5FFE
7FFE
3FFC
0000
ENDCHAR
STARTCHAR U+f12d
ENCODING 61741
SWIDTH 500 0
DWIDTH 8 0
BBX 8 0 0 0
BITMAP

ENDCHAR
STARTCHAR U+f12e
ENCODING 61742
SWIDTH 500 0
DWIDTH 16 0
BBX 16 16 0 0
BITMAP
7FFF
7FFF
6000
6480
66A5
65A5
6499
6000
6000
607E
6042
607E
6000
7FFF
7FFF
0000
ENDCHAR
STARTCHAR U+f12f
ENCODING 61743
SWIDTH 500 0
DWIDTH 16 0
BBX 16 16 0 0
BITMAP
FFFF
FFFF
0600
0630
6643
A645
A637
0600
0600
0607
0604
0607
0600
FFFF
FFFF
0000
ENDCHAR
STARTCHAR U+f130
ENCODING 61744
SWIDTH 500 0
DWIDTH 16 0
BBX 16 16 0 0
BITMAP
FFFF
FFFF
0060
0063
6C64
7C63
5867
4060
0060
E060
2060
E060
0060
FFFF
FFFF
0000
ENDCHAR
STARTCHAR U+f131
ENCODING 61745
SWIDTH 500 0
DWIDTH 16 0
BBX 16 16 0 0
BITMAP
FFFE
FFFE
0006
0086
6A86
8C86
6846
0006
0006
7E06
4206
7E06
0006
FFFE
FFFE
0000
ENDCHAR
STARTCHAR U+f132
ENCODING 61746
SWIDTH 500 0
DWIDTH 16 0
BBX 16 16 0 0
BITMAP
00A0
00A0
00A0
00A0
00A0
00A0
00A0
00A0
00A0
00A0
00A0
00A0
00A0
00A0
00A0
00A0
ENDCHAR
STARTCHAR U+f133
ENCODING 61747
SWIDTH 500 0
DWIDTH 8 0
BBX 8 16 0 0
BITMAP
0500
0500
0500
0500
0500
0500
0500
0500
0500
0500
0500
0500
0500
0500
0500
0500
ENDCHAR
STARTCHAR U+f134
ENCODING 61748
SWIDTH 500 0
DWIDTH 8 0
BBX 8 0 0 0
BITMAP

ENDCHAR
STARTCHAR U+f135
ENCODING 61749
SWIDTH 500 0
DWIDTH 8 0
BBX 8 0 0 0
BITMAP

ENDCHAR
STARTCHAR U+f136
ENCODING 61750
SWIDTH 500 0
DWIDTH 8 0
BBX 8 0 0 0
BITMAP

ENDCHAR
STARTCHAR U+f137
ENCODING 61751
SWIDTH 500 0
DWIDTH 8 0
BBX 8 0 0 0
BITMAP

ENDCHAR
STARTCHAR U+f138
ENCODING 61752
SWIDTH 500 0
DWIDTH 8 0
BBX 8 0 0 0
BITMAP

ENDCHAR
STARTCHAR U+f139
ENCODING 61753
SWIDTH 500 0
DWIDTH 8 0
BBX 8 0 0 0
BITMAP

ENDCHAR
STARTCHAR U+f13a
ENCODING 61754
SWIDTH 500 0
DWIDTH 8 0
BBX 8 0 0 0
BITMAP

ENDCHAR
STARTCHAR U+f13b
ENCODING 61755
SWIDTH 500 0
DWIDTH 8 0
BBX 8 0 0 0
BITMAP

ENDCHAR
STARTCHAR U+f13c
ENCODING 61756
SWIDTH 500 0
DWIDTH 8 0
BBX 8 0 0 0
BITMAP

ENDCHAR
STARTCHAR U+f13d
ENCODING 61757
SWIDTH 500 0
DWIDTH 8 0
BBX 8 0 0 0
BITMAP

ENDCHAR
STARTCHAR U+f13e
ENCODING 61758
SWIDTH 500 0
DWIDTH 8 0
BBX 8 0 0 0
BITMAP

ENDCHAR
STARTCHAR U+f13f
ENCODING 61759
SWIDTH 500 0
DWIDTH 8 0
BBX 8 0 0 0
BITMAP

ENDCHAR
STARTCHAR U+f140
ENCODING 61760
SWIDTH 500 0
DWIDTH 8 0
BBX 8 0 0 0
BITMAP

ENDCHAR
STARTCHAR U+f141
ENCODING 61761
SWIDTH 500 0
DWIDTH 8 0
BBX 8 0 0 0
BITMAP

ENDCHAR
STARTCHAR U+f142
ENCODING 61762
SWIDTH 500 0
DWIDTH 8 0
BBX 8 0 0 0
BITMAP

ENDCHAR
STARTCHAR U+f143
ENCODING 61763
SWIDTH 500 0
DWIDTH 8 0
BBX 8 0 0 0
BITMAP

ENDCHAR
STARTCHAR U+f144
ENCODING 61764
SWIDTH 500 0
DWIDTH 8 0
BBX 8 0 0 0
BITMAP

ENDCHAR
STARTCHAR U+f145
ENCODING 61765
SWIDTH 500 0
DWIDTH 8 0
BBX 8 0 0 0
BITMAP

ENDCHAR
STARTCHAR U+f146
ENCODING 61766
SWIDTH 500 0
DWIDTH 8 0
BBX 8 0 0 0
BITMAP

ENDCHAR
STARTCHAR U+f147
ENCODING 61767
SWIDTH 500 0
DWIDTH 8 0
BBX 8 0 0 0
BITMAP

ENDCHAR
STARTCHAR U+f148
ENCODING 61768
SWIDTH 500 0
DWIDTH 8 0
BBX 8 0 0 0
BITMAP

ENDCHAR
STARTCHAR U+f149
ENCODING 61769
SWIDTH 500 0
DWIDTH 8 0
BBX 8 0 0 0
BITMAP

ENDCHAR
STARTCHAR U+f14a
ENCODING 61770
SWIDTH 500 0
DWIDTH 8 0
BBX 8 0 0 0
BITMAP

ENDCHAR
STARTCHAR U+f14b
ENCODING 61771
SWIDTH 500 0
DWIDTH 8 0
BBX 8 0 0 0
BITMAP

ENDCHAR
STARTCHAR U+f14c
ENCODING 61772
SWIDTH 500 0
DWIDTH 16 0
BBX 16 16 0 0
BITMAP
00A0
00A0
00A0
00A0
00A0
00A0
00A0
00A0
00A0
00A0
00A0
00A0
00A0
00A0
00A0
00A0
ENDCHAR
STARTCHAR U+f14d
ENCODING 61773
SWIDTH 500 0
DWIDTH 8 0
BBX 8 16 0 0
BITMAP
0500
0500
0500
0500
0500
0500
0500
0500
0500
0500
0500
0500
0500
0500
0500
0500
ENDCHAR
STARTCHAR U+f14e
ENCODING 61774
SWIDTH 500 0
DWIDTH 16 0
BBX 16 16 0 0
BITMAP
3FFC
6006
5FFE
500E
500E
518E
518E
50CE
500E
500E
500E
500E
5FFE
7FFE
3FFC
0000
ENDCHAR
STARTCHAR U+f14f
ENCODING 61775
SWIDTH 500 0
DWIDTH 16 0
BBX 16 16 0 0
BITMAP
3FFC
6006
5FFE
500E
508E
518E
508E
508E
508E
508E
51CE
500E
5FFE
7FFE
3FFC
0000
ENDCHAR
STARTCHAR U+f150
ENCODING 61776
SWIDTH 500 0
DWIDTH 16 0
BBX 16 16 0 0
BITMAP
3FFC
6006
5FFE
500E
518E
524E
524E
504E
508E
510E
53CE
500E
5FFE
7FFE
3FFC
0000
ENDCHAR
STARTCHAR U+f151
ENCODING 61777
SWIDTH 500 0
DWIDTH 16 0
BBX 16 16 0 0
BITMAP
3FFC
6006
5FFE
500E
518E
524E
504E
508E
504E
524E
518E
500E
5FFE
7FFE
3FFC
0000
ENDCHAR
STARTCHAR U+f152
ENCODING 61778
SWIDTH 500 0
DWIDTH 16 0
BBX 16 16 0 0
BITMAP
3FFC
6006
5FFE
500E
508E
518E
518E
528E
53CE
508E
508E
500E
5FFE
7FFE
3FFC
0000
ENDCHAR
STARTCHAR U+f153
ENCODING 61779
SWIDTH 500 0
DWIDTH 16 0
BBX 16 16 0 0
BITMAP
3FFC
6006
5FFE
500E
53CE
520E
520E
538E
504E
504E
538E
500E
5FFE
7FFE
3FFC
0000
ENDCHAR
STARTCHAR U+f154
ENCODING 61780
SWIDTH 500 0
DWIDTH 16 0
BBX 16 16 0 0
BITMAP
3FFC
6006
5FFE
500E
518E
524E
520E
538E
524E
524E
518E
500E
5FFE
7FFE
3FFC
0000
ENDCHAR
STARTCHAR U+f155
ENCODING 61781
SWIDTH 500 0
DWIDTH 16 0
BBX 16 16 0 0
BITMAP
3FFC
6006
5FFE
500E
53CE
524E
524E
508E
508E
510E
510E
500E
5FFE
7FFE
3FFC
0000
ENDCHAR
STARTCHAR U+f156
ENCODING 61782
SWIDTH 500 0
DWIDTH 16 0
BBX 16 16 0 0
BITMAP
3FFC
6006
5FFE
500E
518E
524E
524E
518E
524E
524E
518E
500E
5FFE
7FFE
3FFC
0000
ENDCHAR
STARTCHAR U+f157
ENCODING 61783
SWIDTH 500 0
DWIDTH 16 0
BBX 16 16 0 0
BITMAP
3FFC
6006
5FFE
500E
518E
524E
524E
51CE
504E
504E
518E
500E
5FFE
7FFE
3FFC
0000
ENDCHAR
STARTCHAR U+f158
ENCODING 61784
SWIDTH 500 0
DWIDTH 16 0
BBX 16 16 0 0
BITMAP
3FFC
6006
5FFE
500E
518E
524E
524E
524E
524E
524E
518E
500E
5FFE
7FFE
3FFC
0000
ENDCHAR
STARTCHAR U+f159
ENCODING 61785
SWIDTH 500 0
DWIDTH 16 0
BBX 16 16 0 0
BITMAP
3FFC
6006
5FFE
500E
500E
500E
500E
53CE
500E
500E
500E
500E
5FFE
7FFE
3FFC
0000
ENDCHAR
STARTCHAR U+f15a
ENCODING 61786
SWIDTH 500 0
DWIDTH 16 0
BBX 16 16 0 0
BITMAP
3FFC
6006
5FFE
500E
500E
500E
53CE
500E
53CE
500E
500E
500E
5FFE
7FFE
3FFC
0000
ENDCHAR
STARTCHAR U+f15b
ENCODING 61787
SWIDTH 500 0
DWIDTH 16 0
BBX 16 16 0 0
BITMAP
3FFF
6000
5FFF
5000
500C
5014
5027
5040
5027
5014
500C
5000
5FFF
7FFF
3FFF
0000
ENDCHAR
STARTCHAR U+f15c
ENCODING 61788
SWIDTH 500 0
DWIDTH 16 0
BBX 16 16 0 0
BITMAP
FFFC
0006
FFFE
000E
000E
000E
F80E
080E
F80E
000E
000E
000E
FFFE
FFFE
FFFC
0000
ENDCHAR
STARTCHAR U+f15d
ENCODING 61789
SWIDTH 500 0
DWIDTH 8 0
BBX 8 0 0 0
BITMAP

ENDCHAR
STARTCHAR U+f15e
ENCODING 61790
SWIDTH 500 0
DWIDTH 16 0
BBX 16 16 0 0
BITMAP
3FFC
6006
5FFE
500E
570E
520E
520E
52AE
52EE
52EE
57EE
500E
5FFE
7FFE
3FFC
0000
ENDCHAR
STARTCHAR U+f15f
ENCODING 61791
SWIDTH 500 0
DWIDTH 16 0
BBX 16 16 0 0
BITMAP
3FFC
6006
5FFE
500E
550E
550E
550E
578E
55EE
55EE
55EE
500E
5FFE
7FFE
3FFC
0000
ENDCHAR
STARTCHAR U+f160
ENCODING 61792
SWIDTH 500 0
DWIDTH 16 0
BBX 16 16 0 0
BITMAP
3FFC
6006
5FFE
500E
560E
550E
550E
560E
55EE
55EE
55EE
500E
5FFE
7FFE
3FFC
0000
ENDCHAR
STARTCHAR U+f161
ENCODING 61793
SWIDTH 500 0
DWIDTH 8 0
BBX 8 0 0 0
BITMAP

ENDCHAR
STARTCHAR U+f162
ENCODING 61794
SWIDTH 500 0
DWIDTH 16 0
BBX 16 16 0 0
BITMAP
3FFC
6006
5FFE
500E
550E
570E
570E
550E
55EE
55EE
55EE
500E
5FFE
7FFE
3FFC
0000
ENDCHAR
STARTCHAR U+f163
ENCODING 61795
SWIDTH 500 0
DWIDTH 16 0
BBX 16 16 0 0
BITMAP
3FFC
6006
5FFE
500E
500E
504E
50CE
518E
530E
520E
500E
500E
5FFE
7FFE
3FFC
0000
ENDCHAR
STARTCHAR U+f164
ENCODING 61796
SWIDTH 500 0
DWIDTH 16 0
BBX 16 16 0 0
BITMAP
3FFC
6006
5FFE
500E
500E
554E
538E
57CE
538E
554E
500E
500E
5FFE
7FFE
3FFC
0000
ENDCHAR
STARTCHAR U+f165
ENCODING 61797
SWIDTH 500 0
DWIDTH 16 0
BBX 16 16 0 0
BITMAP
3FFC
6006
5FFE
500E
500E
500E
500E
53CE
500E
500E
500E
500E
5FFE
7FFE
3FFC
0000
ENDCHAR
STARTCHAR U+f166
ENCODING 61798
SWIDTH 500 0
DWIDTH 16 0
BBX 16 16 0 0
BITMAP
00A0
00A0
00A0
00A0
00A0
00A0
00A0
00A0
00A0
00A0
00A0
00A0
00A0
00A0
00A0
00A0
ENDCHAR
STARTCHAR U+f167
ENCODING 61799
SWIDTH 500 0
DWIDTH 8 0
BBX 8 16 0 0
BITMAP
0500
0500
0500
0500
0500
0500
0500
0500
0500
0500
0500
0500
0500
0500
0500
0500
ENDCHAR
STARTCHAR U+f168
ENCODING 61800
SWIDTH 500 0
DWIDTH 16 0
BBX 16 16 0 0
BITMAP
3FFF
6000
5FFF
5000
53E0
5080
508E
5092
5092
5096
508A
5000
5FFF
7FFF
3FFF
0000
ENDCHAR
STARTCHAR U+f169
ENCODING 61801
SWIDTH 500 0
DWIDTH 16 0
BBX 16 16 0 0
BITMAP
FFFC
0006
FFFE
000E
040E
8FCE
840E
E00E
904E
97EE
E04E
000E
FFFE
FFFE
FFFC
0000
ENDCHAR
STARTCHAR U+f16a
ENCODING 61802
SWIDTH 500 0
DWIDTH 16 0
BBX 16 16 0 0
BITMAP
3FFC
6006
5FFE
500E
518E
524E
524E
524E
534E
528E
514E
500E
5FFE
7FFE
3FFC
0000
ENDCHAR
STARTCHAR U+f16b
ENCODING 61803
SWIDTH 500 0
DWIDTH 16 0
BBX 16 16 0 0
BITMAP
3FFC
6006
5FFE
500E
544E
544E
554E
554E
554E
554E
528E
500E
5FFE
7FFE
3FFC
0000
ENDCHAR
STARTCHAR U+f16c
ENCODING 61804
SWIDTH 500 0
DWIDTH 16 0
BBX 16 16 0 0
BITMAP
3FFC
6006
5FFE
500E
53CE
520E
520E
538E
520E
520E
53CE
500E
5FFE
7FFE
3FFC
0000
ENDCHAR
STARTCHAR U+f16d
ENCODING 61805
SWIDTH 500 0
DWIDTH 16 0
BBX 16 16 0 0
BITMAP
3FFC
6006
5FFE
500E
538E
524E
524E
538E
528E
524E
524E
500E
5FFE
7FFE
3FFC
0000
ENDCHAR
STARTCHAR U+f16e
ENCODING 61806
SWIDTH 500 0
DWIDTH 16 0
BBX 16 16 0 0
BITMAP
3FFC
6006
5FFE
500E
57CE
510E
510E
510E
510E
510E
538E
500E
5FFE
7FFE
3FFC
0000
ENDCHAR
STARTCHAR U+f16f
ENCODING 61807
SWIDTH 500 0
DWIDTH 16 0
BBX 16 16 0 0
BITMAP
3FFC
6006
5FFE
500E
544E
544E
528E
510E
510E
510E
538E
500E
5FFE
7FFE
3FFC
0000
ENDCHAR
STARTCHAR U+f170
ENCODING 61808
SWIDTH 500 0
DWIDTH 16 0
BBX 16 16 0 0
BITMAP
3FFC
6006
5FFE
500E
544E
544E
544E
544E
544E
544E
538E
500E
5FFE
7FFE
3FFC
0000
ENDCHAR
STARTCHAR U+f171
ENCODING 61809
SWIDTH 500 0
DWIDTH 16 0
BBX 16 16 0 0
BITMAP
3FFC
6006
5FFE
500E
538E
510E
510E
510E
510E
510E
538E
500E
5FFE
7FFE
3FFC
0000
ENDCHAR
STARTCHAR U+f172
ENCODING 61810
SWIDTH 500 0
DWIDTH 16 0
BBX 16 16 0 0
BITMAP
3FFC
6006
5FFE
500E
518E
524E
524E
524E
524E
524E
518E
500E
5FFE
7FFE
3FFC
0000
ENDCHAR
STARTCHAR U+f173
ENCODING 61811
SWIDTH 500 0
DWIDTH 16 0
BBX 16 16 0 0
BITMAP
3FFC
6006
5FFE
500E
538E
524E
524E
538E
520E
520E
520E
500E
5FFE
7FFE
3FFC
0000
ENDCHAR
STARTCHAR U+f174
ENCODING 61812
SWIDTH 500 0
DWIDTH 16 0
BBX 16 16 0 0
BITMAP
3FFC
6006
5FFE
500E
518E
520E
518E
500E
538E
520E
538E
500E
5FFE
7FFE
3FFC
0000
ENDCHAR
STARTCHAR U+f175
ENCODING 61813
SWIDTH 500 0
DWIDTH 16 0
BBX 16 16 0 0
BITMAP
3FFC
6006
5FFE
500E
530E
508E
530E
500E
538E
508E
538E
500E
5FFE
7FFE
3FFC
0000
ENDCHAR
STARTCHAR U+f176
ENCODING 61814
SWIDTH 500 0
DWIDTH 16 0
BBX 16 16 0 0
BITMAP
3FFC
6006
5FFE
500E
500E
500E
500E
500E
500E
500E
500E
500E
500E
500E
500E
500E
ENDCHAR
STARTCHAR U+f177
ENCODING 61815
SWIDTH 500 0
DWIDTH 8 0
BBX 8 0 0 0
BITMAP

ENDCHAR
STARTCHAR U+f178
ENCODING 61816
SWIDTH 500 0
DWIDTH 16 0
BBX 16 16 0 0
BITMAP
3FFC
6006
5FFE
500E
560E
550E
550E
550E
55EE
55EE
56EE
500E
5FFE
7FFE
3FFC
0000
ENDCHAR
STARTCHAR U+f179
ENCODING 61817
SWIDTH 500 0
DWIDTH 16 0
BBX 16 16 0 0
BITMAP
3FFC
6006
5FFE
500E
570E
540E
540E
570E
54EE
54EE
57EE
500E
5FFE
7FFE
3FFC
0000
ENDCHAR
STARTCHAR U+f17a
ENCODING 61818
SWIDTH 500 0
DWIDTH 16 0
BBX 16 16 0 0
BITMAP
3FFC
6006
5FFE
500E
560E
550E
550E
560E
55EE
55EE
55EE
500E
5FFE
7FFE
3FFC
0000
ENDCHAR
STARTCHAR U+f17b
ENCODING 61819
SWIDTH 500 0
DWIDTH 8 0
BBX 8 0 0 0
BITMAP

ENDCHAR
STARTCHAR U+f17c
ENCODING 61820
SWIDTH 500 0
DWIDTH 16 0
BBX 16 16 0 0
BITMAP
3FFC
6006
5FFE
500E
53CE
524E
524E
508E
508E
510E
510E
500E
5FFE
7FFE
3FFC
0000
ENDCHAR
STARTCHAR U+f17d
ENCODING 61821
SWIDTH 500 0
DWIDTH 16 0
BBX 16 16 0 0
BITMAP
3FFC
6006
5FFE
500E
518E
524E
524E
518E
524E
524E
518E
500E
5FFE
7FFE
3FFC
0000
ENDCHAR
STARTCHAR U+f17e
ENCODING 61822
SWIDTH 500 0
DWIDTH 16 0
BBX 16 16 0 0
BITMAP
3FFC
6006
5FFE
500E
518E
524E
524E
51CE
504E
504E
518E
500E
5FFE
7FFE
3FFC
0000
ENDCHAR
STARTCHAR U+f17f
ENCODING 61823
SWIDTH 500 0
DWIDTH 16 0
BBX 16 16 0 0
BITMAP
3FFC
6006
5FFE
500E
500E
500E
500E
500E
500E
500E
500E
500E
500E
508E
53EE
508E
ENDCHAR
STARTCHAR U+f180
ENCODING 61824
SWIDTH 500 0
DWIDTH 16 0
BBX 16 16 0 0
BITMAP
00A0
00A0
00A0
00A0
00A0
00A0
00A0
00A0
00A0
00A0
00A0
00A0
00A0
00A0
00A0
00A0
ENDCHAR
STARTCHAR U+f181
ENCODING 61825
SWIDTH 500 0
DWIDTH 8 0
BBX 8 16 0 0
BITMAP
0500
0500
0500
0500
0500
0500
0500
0500
0500
0500
0500
0500
0500
0500
0500
0500
ENDCHAR
STARTCHAR U+f182
ENCODING 61826
SWIDTH 500 0
DWIDTH 16 0
BBX 16 16 0 0
BITMAP
3FFF
6000
5FFF
5000
51C0
5200
520E
5212
5212
5216
51CA
5000
5FFF
7FFF
3FFF
0000
ENDCHAR
STARTCHAR U+f183
ENCODING 61827
SWIDTH 500 0
DWIDTH 16 0
BBX 16 16 0 0
BITMAP
FFFC
0006
FFFE
000E
000E
000E
E70E
980E
E60E
810E
8E0E
000E
FFFE
FFFE
FFFC
0000
ENDCHAR
STARTCHAR U+f184
ENCODING 61828
SWIDTH 500 0
DWIDTH 16 0
BBX 16 16 0 0
BITMAP
3FFC
6006
5FFE
500E
518E
524E
524E
53CE
524E
524E
524E
500E
5FFE
7FFE
3FFC
0000
ENDCHAR
STARTCHAR U+f185
ENCODING 61829
SWIDTH 500 0
DWIDTH 16 0
BBX 16 16 0 0
BITMAP
3FFC
6006
5FFE
500E
51CE
520E
520E
518E
504E
504E
538E
500E
5FFE
7FFE
3FFC
0000
ENDCHAR
STARTCHAR U+f186
ENCODING 61830
SWIDTH 500 0
DWIDTH 16 0
BBX 16 16 0 0
BITMAP
3FFC
6006
5FFE
500E
538E
524E
524E
524E
524E
524E
538E
500E
5FFE
7FFE
3FFC
0000
ENDCHAR
STARTCHAR U+f187
ENCODING 61831
SWIDTH 500 0
DWIDTH 16 0
BBX 16 16 0 0
BITMAP
3FFC
6006
5FFE
500E
53CE
520E
520E
538E
520E
520E
520E
500E
5FFE
7FFE
3FFC
0000
ENDCHAR
STARTCHAR U+f188
ENCODING 61832
SWIDTH 500 0
DWIDTH 16 0
BBX 16 16 0 0
BITMAP
3FFC
6006
5FFE
500E
518E
524E
520E
52CE
524E
524E
51CE
500E
5FFE
7FFE
3FFC
0000
ENDCHAR
STARTCHAR U+f189
ENCODING 61833
SWIDTH 500 0
DWIDTH 16 0
BBX 16 16 0 0
BITMAP
3FFC
6006
5FFE
500E
524E
524E
524E
53CE
524E
524E
524E
500E
5FFE
7FFE
3FFC
0000
ENDCHAR
STARTCHAR U+f18a
ENCODING 61834
SWIDTH 500 0
DWIDTH 16 0
BBX 16 16 0 0
BITMAP
3FFC
6006
5FFE
500E
504E
504E
504E
504E
524E
524E
518E
500E
5FFE
7FFE
3FFC
0000
ENDCHAR
STARTCHAR U+f18b
ENCODING 61835
SWIDTH 500 0
DWIDTH 16 0
BBX 16 16 0 0
BITMAP
3FFC
6006
5FFE
500E
524E
524E
528E
530E
528E
524E
524E
500E
5FFE
7FFE
3FFC
0000
ENDCHAR
STARTCHAR U+f18c
ENCODING 61836
SWIDTH 500 0
DWIDTH 16 0
BBX 16 16 0 0
BITMAP
3FFC
6006
5FFE
500E
520E
520E
520E
520E
520E
520E
53CE
500E
5FFE
7FFE
3FFC
0000
ENDCHAR
STARTCHAR U+f18d
ENCODING 61837
SWIDTH 500 0
DWIDTH 16 0
BBX 16 16 0 0
BITMAP
3FFC
6006
5FFE
500E
500E
518E
518E
500E
518E
518E
530E
500E
5FFE
7FFE
3FFC
0000
ENDCHAR
STARTCHAR U+f18e
ENCODING 61838
SWIDTH 500 0
DWIDTH 16 0
BBX 16 16 0 0
BITMAP
3FFC
6006
5FFE
500E
500E
518E
518E
530E
500E
500E
500E
500E
5FFE
7FFE
3FFC
0000
ENDCHAR
STARTCHAR U+f18f
ENCODING 61839
SWIDTH 500 0
DWIDTH 16 0
BBX 16 16 0 0
BITMAP
3FFF
6000
5FFF
5000
5380
5240
524C
5392
529E
5250
524E
5000
5FFF
7FFF
3FFF
0000
ENDCHAR
STARTCHAR U+f190
ENCODING 61840
SWIDTH 500 0
DWIDTH 16 0
BBX 16 16 0 0
BITMAP
900E
100E
F00E
000E
000E
400E
400E
F00E
400E
400E
700E
000E
FFFE
FFFE
FFFC
0000
ENDCHAR
STARTCHAR U+f191
ENCODING 61841
SWIDTH 500 0
DWIDTH 8 0
BBX 8 0 0 0
BITMAP

ENDCHAR
STARTCHAR U+f192
ENCODING 61842
SWIDTH 500 0
DWIDTH 8 0
BBX 8 0 0 0
BITMAP

ENDCHAR
STARTCHAR U+f193
ENCODING 61843
SWIDTH 500 0
DWIDTH 8 0
BBX 8 0 0 0
BITMAP

ENDCHAR
STARTCHAR U+f194
ENCODING 61844
SWIDTH 500 0
DWIDTH 8 0
BBX 8 0 0 0
BITMAP

ENDCHAR
STARTCHAR U+f195
ENCODING 61845
SWIDTH 500 0
DWIDTH 8 0
BBX 8 0 0 0
BITMAP

ENDCHAR
STARTCHAR U+f196
ENCODING 61846
SWIDTH 500 0
DWIDTH 16 0
BBX 16 16 0 0
BITMAP
3FFC
6006
5FFE
500E
508E
518E
518E
528E
53CE
508E
508E
500E
5FFE
7FFE
3FFC
0000
ENDCHAR
STARTCHAR U+f197
ENCODING 61847
SWIDTH 500 0
DWIDTH 16 0
BBX 16 16 0 0
BITMAP
3FFC
6006
5FFE
500E
53CE
520E
520E
538E
504E
504E
538E
500E
5FFE
7FFE
3FFC
0000
ENDCHAR
STARTCHAR U+f198
ENCODING 61848
SWIDTH 500 0
DWIDTH 16 0
BBX 16 16 0 0
BITMAP
3FFC
6006
5FFE
500E
518E
524E
520E
538E
524E
524E
518E
500E
5FFE
7FFE
3FFC
0000
ENDCHAR
STARTCHAR U+f199
ENCODING 61849
SWIDTH 500 0
DWIDTH 16 0
BBX 16 16 0 0
BITMAP
500E
500E
500E
500E
500E
500E
500E
500E
500E
500E
500E
500E
5FFE
7FFE
3FFC
0000
ENDCHAR
STARTCHAR U+f19a
ENCODING 61850
SWIDTH 500 0
DWIDTH 16 0
BBX 16 16 0 0
BITMAP
00A0
00A0
00A0
00A0
00A0
00A0
00A0
00A0
00A0
00A0
00A0
00A0
00A0
00A0
00A0
00A0
ENDCHAR
STARTCHAR U+f19b
ENCODING 61851
SWIDTH 500 0
DWIDTH 8 0
BBX 8 16 0 0
BITMAP
0500
0500
0500
0500
0500
0500
0500
0500
0500
0500
0500
0500
0500
0500
0500
0500
ENDCHAR
STARTCHAR U+f19c
ENCODING 61852
SWIDTH 500 0
DWIDTH 16 0
BBX 16 16 0 0
BITMAP
3FFF
6000
5FFF
5000
510D
5291
5451
56C9
5285
5285
5399
5000
5FFF
7FFF
3FFF
0000
ENDCHAR
STARTCHAR U+f19d
ENCODING 61853
SWIDTH 500 0
DWIDTH 16 0
BBX 16 16 0 0
BITMAP
FFFC
0006
FFFE
000E
020E
154E
044E
DEEE
544E
544E
546E
000E
FFFE
FFFE
FFFC
0000
ENDCHAR
STARTCHAR U+f19e
ENCODING 61854
SWIDTH 500 0
DWIDTH 16 0
BBX 16 16 0 0
BITMAP
3FFC
6006
5FFE
500E
57CE
504E
508E
510E
520E
540E
57CE
500E
5FFE
7FFE
3FFC
0000
ENDCHAR
STARTCHAR U+f19f
ENCODING 61855
SWIDTH 500 0
DWIDTH 16 0
BBX 16 16 0 0
BITMAP
3FFC
6006
5FFE
500E
544E
544E
528E
510E
528E
544E
544E
500E
5FFE
7FFE
3FFC
0000
ENDCHAR
STARTCHAR U+f1a0
ENCODING 61856
SWIDTH 500 0
DWIDTH 16 0
BBX 16 16 0 0
BITMAP
3FFC
6006
5FFE
500E
518E
524E
520E
520E
520E
524E
518E
500E
5FFE
7FFE
3FFC
0000
ENDCHAR
STARTCHAR U+f1a1
ENCODING 61857
SWIDTH 500 0
DWIDTH 16 0
BBX 16 16 0 0
BITMAP
3FFC
6006
5FFE
500E
544E
544E
544E
528E
528E
510E
510E
500E
5FFE
7FFE
3FFC
0000
ENDCHAR
STARTCHAR U+f1a2
ENCODING 61858
SWIDTH 500 0
DWIDTH 16 0
BBX 16 16 0 0
BITMAP
3FFC
6006
5FFE
500E
538E
524E
524E
538E
524E
524E
538E
500E
5FFE
7FFE
3FFC
0000
ENDCHAR
STARTCHAR U+f1a3
ENCODING 61859
SWIDTH 500 0
DWIDTH 16 0
BBX 16 16 0 0
BITMAP
3FFC
6006
5FFE
500E
544E
564E
554E
54CE
544E
544E
544E
500E
5FFE
7FFE
3FFC
0000
ENDCHAR
STARTCHAR U+f1a4
ENCODING 61860
SWIDTH 500 0
DWIDTH 16 0
BBX 16 16 0 0
BITMAP
3FFC
6006
5FFE
500E
544E
57CE
554E
554E
544E
544E
544E
500E
5FFE
7FFE
3FFC
0000
ENDCHAR
STARTCHAR U+f1a5
ENCODING 61861
SWIDTH 500 0
DWIDTH 16 0
BBX 16 16 0 0
BITMAP
3FFC
6006
5FFE
500E
500E
500E
500E
500E
518E
518E
530E
500E
5FFE
7FFE
3FFC
0000
ENDCHAR
STARTCHAR U+f1a6
ENCODING 61862
SWIDTH 500 0
DWIDTH 16 0
BBX 16 16 0 0
BITMAP
3FFC
6006
5FFE
500E
500E
500E
500E
500E
518E
518E
500E
500E
5FFE
7FFE
3FFC
0000
ENDCHAR
STARTCHAR U+f1a7
ENCODING 61863
SWIDTH 500 0
DWIDTH 16 0
BBX 16 16 0 0
BITMAP
3FFC
6006
5FFE
500E
500E
504E
50CE
518E
530E
520E
500E
500E
5FFE
7FFE
3FFC
0000
ENDCHAR
STARTCHAR U+f1a8
ENCODING 61864
SWIDTH 500 0
DWIDTH 16 0
BBX 16 16 0 0
BITMAP
3FFC
6006
5FFE
500E
500E
520E
530E
518E
50CE
504E
500E
500E
5FFE
7FFE
3FFC
0000
ENDCHAR
STARTCHAR U+f1a9
ENCODING 61865
SWIDTH 500 0
DWIDTH 16 0
BBX 16 16 0 0
BITMAP
3FFF
6000
5FFF
5000
5340
5445
5441
5277
5155
5155
5655
5000
5FFF
7FFF
3FFF
0000
ENDCHAR
STARTCHAR U+f1aa
ENCODING 61866
SWIDTH 500 0
DWIDTH 16 0
BBX 16 16 0 0
BITMAP
FFFC
0006
FFFE
000E
808E
514E
122E
BB6E
114E
114E
19CE
000E
FFFE
FFFE
FFFC
0000
ENDCHAR
STARTCHAR U+f1ab
ENCODING 61867
SWIDTH 500 0
DWIDTH 8 0
BBX 8 0 0 0
BITMAP

ENDCHAR
STARTCHAR U+f1ac
ENCODING 61868
SWIDTH 500 0
DWIDTH 8 0
BBX 8 0 0 0
BITMAP

ENDCHAR
STARTCHAR U+f1ad
ENCODING 61869
SWIDTH 500 0
DWIDTH 16 0
BBX 16 16 0 0
BITMAP
3FFC
6006
5FFE
500E
510E
538E
554E
510E
510E
510E
510E
500E
5FFE
7FFE
3FFC
0000
ENDCHAR
STARTCHAR U+f1ae
ENCODING 61870
SWIDTH 500 0
DWIDTH 8 0
BBX 8 0 0 0
BITMAP

ENDCHAR
STARTCHAR U+f1af
ENCODING 61871
SWIDTH 500 0
DWIDTH 8 0
BBX 8 0 0 0
BITMAP

ENDCHAR
STARTCHAR U+f1b0
ENCODING 61872
SWIDTH 500 0
DWIDTH 16 0
BBX 16 16 0 0
BITMAP
3FFC
6006
5FFE
500E
508E
518E
508E
508E
508E
508E
51CE
500E
5FFE
7FFE
3FFC
0000
ENDCHAR
STARTCHAR U+f1b1
ENCODING 61873
SWIDTH 500 0
DWIDTH 16 0
BBX 16 16 0 0
BITMAP
3FFC
6006
5FFE
500E
518E
524E
524E
504E
508E
510E
53CE
500E
5FFE
7FFE
3FFC
0000
ENDCHAR
STARTCHAR U+f1b2
ENCODING 61874
SWIDTH 500 0
DWIDTH 16 0
BBX 16 16 0 0
BITMAP
3FFC
6006
5FFE
500E
518E
524E
504E
508E
504E
524E
518E
500E
5FFE
7FFE
3FFC
0000
ENDCHAR
STARTCHAR U+f1b3
ENCODING 61875
SWIDTH 500 0
DWIDTH 16 0
BBX 16 16 0 0
BITMAP
3FFC
6006
5FFE
500E
500E
500E
500E
500E
500E
500E
500E
500E
500E
500E
504E
504E
ENDCHAR
STARTCHAR U+f1b4
ENCODING 61876
SWIDTH 500 0
DWIDTH 16 0
BBX 16 16 0 0
BITMAP
00A0
00A0
00A0
00A0
00A0
00A0
00A0
00A0
00A0
00A0
00A0
00A0
00A0
00A0
00A0
00A0
ENDCHAR
STARTCHAR U+f1b5
ENCODING 61877
SWIDTH 500 0
DWIDTH 8 0
BBX 8 16 0 0
BITMAP
0500
0500
0500
0500
0500
0500
0500
0500
0500
0500
0500
0500
0500
0500
0500
0500
ENDCHAR
STARTCHAR U+f1b6
ENCODING 61878
SWIDTH 500 0
DWIDTH 16 0
BBX 16 16 0 0
BITMAP
3FFF
6000
5FFF
5000
51C0
5208
5208
521E
5208
5208
51CE
5000
5FFF
7FFF
3FFF
0000
ENDCHAR
STARTCHAR U+f1b7
ENCODING 61879
SWIDTH 500 0
DWIDTH 16 0
BBX 16 16 0 0
BITMAP
FFFC
0006
FFFE
000E
040E
040E
A40E
D40E
840E
840E
820E
000E
FFFE
FFFE
FFFC
0000
ENDCHAR
STARTCHAR U+f1b8
ENCODING 61880
SWIDTH 500 0
DWIDTH 16 0
BBX 16 16 0 0
BITMAP
3FFF
6000
5FFF
5000
50E2
5112
5112
51F2
5112
5112
5111
5000
5FFF
7FFF
3FFF
0000
ENDCHAR
STARTCHAR U+f1b9
ENCODING 61881
SWIDTH 500 0
DWIDTH 16 0
BBX 16 16 0 0
BITMAP
FFFC
0006
FFFE
000E
000E
200E
200E
780E
200E
200E
380E
000E
FFFE
FFFE
FFFC
0000
ENDCHAR
STARTCHAR U+f1ba
ENCODING 61882
SWIDTH 500 0
DWIDTH 16 0
BBX 16 16 0 0
BITMAP
3FFF
6000
5FFF
5000
5000
5000
5000
5000
5000
5000
5000
5000
5FFF
7FFF
3FFF
0000
ENDCHAR
STARTCHAR U+f1bb
ENCODING 61883
SWIDTH 500 0
DWIDTH 16 0
BBX 16 16 0 0
BITMAP
FFFF
0000
FFFF
0000
0000
0000
0000
0000
0000
0000
0000
0000
FFFF
FFFF
FFFF
0000
ENDCHAR
STARTCHAR U+f1bc
ENCODING 61884
SWIDTH 500 0
DWIDTH 16 0
BBX 16 16 0 0
BITMAP
FFFF
0000
FFFF
0000
0000
0000
0000
0000
0000
0000
0000
0000
FFFF
FFFF
FFFF
0000
ENDCHAR
STARTCHAR U+f1bd
ENCODING 61885
SWIDTH 500 0
DWIDTH 16 0
BBX 16 16 0 0
BITMAP
FFFF
0000
FFFF
0000
0000
0000
0000
0000
0000
0000
0000
0000
FFFF
FFFF
FFFF
0000
ENDCHAR
STARTCHAR U+f1be
ENCODING 61886
SWIDTH 500 0
DWIDTH 16 0
BBX 16 16 0 0
BITMAP
FFFF
0000
FFFF
0000
0000
0000
0000
0000
0000
0000
0000
0000
FFFF
FFFF
FFFF
0000
ENDCHAR
STARTCHAR U+f1bf
ENCODING 61887
SWIDTH 500 0
DWIDTH 16 0
BBX 16 16 0 0
BITMAP
FFFF
0000
FFFF
0000
0000
0000
0000
0000
0000
0000
0000
0000
FFFF
FFFF
FFFF
0000
ENDCHAR
STARTCHAR U+f1c0
ENCODING 61888
SWIDTH 500 0
DWIDTH 16 0
BBX 16 16 0 0
BITMAP
FFFC
0006
FFFE
000E
000E
000E
000E
000E
000E
000E
000E
000E
FFFE
FFFE
FFFC
0000
ENDCHAR
STARTCHAR U+f1c1
ENCODING 61889
SWIDTH 500 0
DWIDTH 16 0
BBX 16 16 0 0
BITMAP
3FFF
6000
5FFF
5000
51D0
53F1
5159
51D2
5012
5104
51F4
5000
5FFF
7FFF
3FFF
0000
ENDCHAR
STARTCHAR U+f1c2
ENCODING 61890
SWIDTH 500 0
DWIDTH 16 0
BBX 16 16 0 0
BITMAP
FFFC
0006
FFFE
000E
920E
AE0E
2A0E
160E
0C0E
120E
0C0E
000E
FFFE
FFFE
FFFC
0000
ENDCHAR
STARTCHAR U+f1c3
ENCODING 61891
SWIDTH 500 0
DWIDTH 16 0
BBX 16 16 0 0
BITMAP
3FFF
6000
5FFF
5000
5024
50FC
5056
5074
5004
5040
507C
5000
5FFF
7FFF
3FFF
0000
ENDCHAR
STARTCHAR U+f1c4
ENCODING 61892
SWIDTH 500 0
DWIDTH 16 0
BBX 16 16 0 0
BITMAP
FFFC
0006
FFFE
000E
020E
7A0E
0A0E
130E
320E
4A0E
020E
000E
FFFE
FFFE
FFFC
0000
ENDCHAR
STARTCHAR U+f1c5
ENCODING 61893
SWIDTH 500 0
DWIDTH 8 0
BBX 8 0 0 0
BITMAP

ENDCHAR
STARTCHAR U+f1c6
ENCODING 61894
SWIDTH 500 0
DWIDTH 16 0
BBX 16 16 0 0
BITMAP
3FFC
6006
5FFE
500E
500E
510E
520E
57EE
520E
510E
500E
500E
5FFE
7FFE
3FFC
0000
ENDCHAR
STARTCHAR U+f1c7
ENCODING 61895
SWIDTH 500 0
DWIDTH 16 0
BBX 16 16 0 0
BITMAP
3FFC
6006
5FFE
500E
500E
510E
510E
510E
554E
538E
510E
500E
5FFE
7FFE
3FFC
0000
ENDCHAR
STARTCHAR U+f1c8
ENCODING 61896
SWIDTH 500 0
DWIDTH 16 0
BBX 16 16 0 0
BITMAP
3FFC
6006
5FFE
500E
500E
508E
504E
57EE
504E
508E
500E
500E
5FFE
7FFE
3FFC
0000
ENDCHAR
STARTCHAR U+f1c9
ENCODING 61897
SWIDTH 500 0
DWIDTH 8 0
BBX 8 0 0 0
BITMAP

ENDCHAR
STARTCHAR U+f1ca
ENCODING 61898
SWIDTH 500 0
DWIDTH 16 0
BBX 16 16 0 0
BITMAP
3FFF
6000
5FFF
5000
5003
5004
5004
5004
5004
5004
5003
5000
5FFF
7FFF
3FFF
0000
ENDCHAR
STARTCHAR U+f1cb
ENCODING 61899
SWIDTH 500 0
DWIDTH 16 0
BBX 16 16 0 0
BITMAP
FFFC
0006
FFFE
000E
800E
400E
400E
400E
400E
400E
800E
000E
FFFE
FFFE
FFFC
0000
ENDCHAR
STARTCHAR U+f1cc
ENCODING 61900
SWIDTH 500 0
DWIDTH 16 0
BBX 16 16 0 0
BITMAP
3FFC
6006
5FFE
500E
500E
500E
500E
500E
518E
518E
500E
500E
5FFE
7FFE
3FFC
0000
ENDCHAR
STARTCHAR U+f1cd
ENCODING 61901
SWIDTH 500 0
DWIDTH 16 0
BBX 16 16 0 0
BITMAP
504E
524E
57CE
520E
500E
500E
500E
500E
500E
500E
500E
500E
5FFE
7FFE
3FFC
0000
ENDCHAR
STARTCHAR U+f1ce
ENCODING 61902
SWIDTH 500 0
DWIDTH 16 0
BBX 16 16 0 0
BITMAP
00A0
00A0
00A0
00A0
00A0
00A0
00A0
00A0
00A0
00A0
00A0
00A0
00A0
00A0
00A0
00A0
ENDCHAR
STARTCHAR U+f1cf
ENCODING 61903
SWIDTH 500 0
DWIDTH 16 0
BBX 16 16 0 0
BITMAP
0500
0500
0500
0500
0500
0700
0500
0500
05FF
0420
07FF
0000
0000
0000
0000
0000
ENDCHAR
STARTCHAR U+f1d0
ENCODING 61904
SWIDTH 500 0
DWIDTH 16 0
BBX 16 8 0 0
BITMAP
FFFF
0000
FFFF
0000
0000
0000
0000
0000
ENDCHAR
STARTCHAR U+f1d1
ENCODING 61905
SWIDTH 500 0
DWIDTH 16 0
BBX 16 8 0 0
BITMAP
FFFF
0000
FFFF
0000
0000
0000
0000
0000
ENDCHAR
STARTCHAR U+f1d2
ENCODING 61906
SWIDTH 500 0
DWIDTH 16 0
BBX 16 8 0 0
BITMAP
FFFF
0000
FFFF
0000
0000
0000
0000
0000
ENDCHAR
STARTCHAR U+f1d3
ENCODING 61907
SWIDTH 500 0
DWIDTH 16 0
BBX 16 8 0 0
BITMAP
FFFF
0000
FFFF
0000
0000
0000
0000
0000
ENDCHAR
STARTCHAR U+f1d4
ENCODING 61908
SWIDTH 500 0
DWIDTH 16 0
BBX 16 8 0 0
BITMAP
FFFF
0000
FFFF
0000
0000
0000
0000
0000
ENDCHAR
STARTCHAR U+f1d5
ENCODING 61909
SWIDTH 500 0
DWIDTH 16 0
BBX 16 8 0 0
BITMAP
FFFF
0000
FFFF
0000
0000
0000
0000
0000
ENDCHAR
STARTCHAR U+f1d6
ENCODING 61910
SWIDTH 500 0
DWIDTH 16 0
BBX 16 8 0 0
BITMAP
FFFF
0000
FFFF
0000
0000
0000
0000
0000
ENDCHAR
STARTCHAR U+f1d7
ENCODING 61911
SWIDTH 500 0
DWIDTH 16 0
BBX 16 8 0 0
BITMAP
FFFF
0000
FFFF
0000
0000
0000
0000
0000
ENDCHAR
STARTCHAR U+f1d8
ENCODING 61912
SWIDTH 500 0
DWIDTH 16 0
BBX 16 8 0 0
BITMAP
FFFF
0000
FFFF
0000
0000
0000
0000
0000
ENDCHAR
STARTCHAR U+f1d9
ENCODING 61913
SWIDTH 500 0
DWIDTH 16 0
BBX 16 8 0 0
BITMAP
FFFF
0000
FFFF
0000
0000
0000
0000
0000
ENDCHAR
STARTCHAR U+f1da
ENCODING 61914
SWIDTH 500 0
DWIDTH 16 0
BBX 16 8 0 0
BITMAP
FFFF
0000
FFFF
0000
0000
0000
0000
0000
ENDCHAR
STARTCHAR U+f1db
ENCODING 61915
SWIDTH 500 0
DWIDTH 16 0
BBX 16 8 0 0
BITMAP
FFFF
0000
FFFF
0000
0000
0000
0000
0000
ENDCHAR
STARTCHAR U+f1dc
ENCODING 61916
SWIDTH 500 0
DWIDTH 16 0
BBX 16 8 0 0
BITMAP
FFFF
0000
FFFF
0000
0000
0000
0000
0000
ENDCHAR
STARTCHAR U+f1dd
ENCODING 61917
SWIDTH 500 0
DWIDTH 16 0
BBX 16 8 0 0
BITMAP
FFFF
0000
FFFF
0000
0000
0000
0000
0000
ENDCHAR
STARTCHAR U+f1de
ENCODING 61918
SWIDTH 500 0
DWIDTH 16 0
BBX 16 8 0 0
BITMAP
FFFF
0000
FFFF
0000
0000
0000
0000
0000
ENDCHAR
STARTCHAR U+f1df
ENCODING 61919
SWIDTH 500 0
DWIDTH 16 0
BBX 16 8 0 0
BITMAP
FFFF
0000
FFFF
0000
0000
0000
0000
0000
ENDCHAR
STARTCHAR U+f1e0
ENCODING 61920
SWIDTH 500 0
DWIDTH 16 0
BBX 16 8 0 0
BITMAP
FFFF
0000
FFFF
0000
0000
0000
0000
0000
ENDCHAR
STARTCHAR U+f1e1
ENCODING 61921
SWIDTH 500 0
DWIDTH 16 0
BBX 16 8 0 0
BITMAP
FFFF
0000
FFFF
0000
0000
0000
0000
0000
ENDCHAR
STARTCHAR U+f1e2
ENCODING 61922
SWIDTH 500 0
DWIDTH 16 0
BBX 16 8 0 0
BITMAP
FFFF
0000
FFFF
0000
0000
0000
0000
0000
ENDCHAR
STARTCHAR U+f1e3
ENCODING 61923
SWIDTH 500 0
DWIDTH 16 0
BBX 16 8 0 0
BITMAP
FFFF
0000
FFFF
0000
0000
0000
0000
0000
ENDCHAR
STARTCHAR U+f1e4
ENCODING 61924
SWIDTH 500 0
DWIDTH 16 0
BBX 16 8 0 0
BITMAP
FFFF
0000
FFFF
0000
0000
0000
0000
0000
ENDCHAR
STARTCHAR U+f1e5
ENCODING 61925
SWIDTH 500 0
DWIDTH 16 0
BBX 16 8 0 0
BITMAP
FFFF
0000
FFFF
0000
0000
0000
0000
0000
ENDCHAR
STARTCHAR U+f1e6
ENCODING 61926
SWIDTH 500 0
DWIDTH 16 0
BBX 16 8 0 0
BITMAP
FFFF
0000
FFFF
0000
0000
0000
0000
0000
ENDCHAR
STARTCHAR U+f1e7
ENCODING 61927
SWIDTH 500 0
DWIDTH 16 0
BBX 16 8 0 0
BITMAP
FFFF
0000
FFFF
0000
0000
0000
0000
0000
ENDCHAR
STARTCHAR U+f1e8
ENCODING 61928
SWIDTH 500 0
DWIDTH 16 0
BBX 16 16 0 0
BITMAP
00A0
00A0
00A0
00A0
00A0
00E0
00A0
00A0
FFA0
0420
FFE0
0000
0000
0000
0000
0000
ENDCHAR
STARTCHAR U+1d651
ENCODING 120401
SWIDTH 500 0
DWIDTH 16 0
BBX 16 14 0 0
BITMAP
01C7
01C7
01C7
01CF
01DE
01FC
01F8
01F0
01E0
01C0
0000
0000
0000
0000
ENDCHAR
STARTCHAR U+1d5e9
ENCODING 120297
SWIDTH 500 0
DWIDTH 16 0
BBX 16 14 0 0
BITMAP
038E
038E
038E
038E
038E
038E
03DE
01FC
00F8
0070
0000
0000
0000
0000
ENDCHAR
STARTCHAR U+1f100
ENCODING 127232
SWIDTH 500 0
DWIDTH 16 0
BBX 16 14 0 0
BITMAP
3FE0
3FE0
38E0
38E0
38E0
38E0
38E0
38E0
3FE6
3FE6
0000
0000
0000
0000
ENDCHAR
STARTCHAR U+2488
ENCODING 9352
SWIDTH 500 0
DWIDTH 16 0
BBX 16 14 0 0
BITMAP
0700
3F00
3F00
0700
0700
0700
0700
0700
3FE6
3FE6
0000
0000
0000
0000
ENDCHAR
STARTCHAR U+2489
ENCODING 9353
SWIDTH 500 0
DWIDTH 16 0
BBX 16 14 0 0
BITMAP
3FE0
3FE0
00E0
00E0
3FE0
3FE0
3800
3800
3FE6
3FE6
0000
0000
0000
0000
ENDCHAR
STARTCHAR U+248a
ENCODING 9354
SWIDTH 500 0
DWIDTH 16 0
BBX 16 14 0 0
BITMAP
3FE0
3FE0
00E0
00E0
3FE0
3FE0
00E0
00E0
3FE6
3FE6
0000
0000
0000
0000
ENDCHAR
STARTCHAR U+248b
ENCODING 9355
SWIDTH 500 0
DWIDTH 16 0
BBX 16 14 0 0
BITMAP
38E0
38E0
38E0
38E0
3FE0
3FE0
00E0
00E0
00E6
00E6
0000
0000
0000
0000
ENDCHAR
STARTCHAR U+248c
ENCODING 9356
SWIDTH 500 0
DWIDTH 16 0
BBX 16 14 0 0
BITMAP
3FE0
3FE0
3800
3800
3FE0
3FE0
00E0
00E0
3FE6
3FE6
0000
0000
0000
0000
ENDCHAR
STARTCHAR U+248d
ENCODING 9357
SWIDTH 500 0
DWIDTH 16 0
BBX 16 14 0 0
BITMAP
3FE0
3FE0
3800
3800
3FE0
3FE0
38E0
38E0
3FE6
3FE6
0000
0000
0000
0000
ENDCHAR
STARTCHAR U+248e
ENCODING 9358
SWIDTH 500 0
DWIDTH 16 0
BBX 16 14 0 0
BITMAP
3FE0
3FE0
00E0
00E0
00E0
00E0
00E0
00E0
00E6
00E6
0000
0000
0000
0000
ENDCHAR
STARTCHAR U+248f
ENCODING 9359
SWIDTH 500 0
DWIDTH 16 0
BBX 16 14 0 0
BITMAP
3FE0
3FE0
38E0
38E0
3FE0
3FE0
38E0
38E0
3FE6
3FE6
0000
0000
0000
0000
ENDCHAR
STARTCHAR U+2490
ENCODING 9360
SWIDTH 500 0
DWIDTH 16 0
BBX 16 14 0 0
BITMAP
3FE0
3FE0
38E0
38E0
3FE0
3FE0
00E0
00E0
3FE6
3FE6
0000
0000
0000
0000
ENDCHAR
STARTCHAR U+1d7ec
ENCODING 120812
SWIDTH 500 0
DWIDTH 16 0
BBX 16 14 0 0
BITMAP
7FC0
7FC0
71C0
71C0
71C0
71C0
71C0
71C0
7FC0
7FC0
0000
0000
0000
0000
ENDCHAR
STARTCHAR U+1d7ed
ENCODING 120813
SWIDTH 500 0
DWIDTH 16 0
BBX 16 14 0 0
BITMAP
1C00
FC00
FC00
1C00
1C00
1C00
1C00
1C00
FF80
FF80
0000
0000
0000
0000
ENDCHAR
STARTCHAR U+1d7ee
ENCODING 120814
SWIDTH 500 0
DWIDTH 16 0
BBX 16 14 0 0
BITMAP
7FC0
7FC0
01C0
01C0
7FC0
7FC0
7000
7000
7FC0
7FC0
0000
0000
0000
0000
ENDCHAR
STARTCHAR U+1d7ef
ENCODING 120815
SWIDTH 500 0
DWIDTH 16 0
BBX 16 14 0 0
BITMAP
7FC0
7FC0
01C0
01C0
7FC0
7FC0
01C0
01C0
7FC0
7FC0
0000
0000
0000
0000
ENDCHAR
STARTCHAR U+1d7f0
ENCODING 120816
SWIDTH 500 0
DWIDTH 16 0
BBX 16 14 0 0
BITMAP
71C0
71C0
71C0
71C0
7FC0
7FC0
01C0
01C0
01C0
01C0
0000
0000
0000
0000
ENDCHAR
STARTCHAR U+1d7f1
ENCODING 120817
SWIDTH 500 0
DWIDTH 16 0
BBX 16 14 0 0
BITMAP
7FC0
7FC0
7000
7000
7FC0
7FC0
01C0
01C0
7FC0
7FC0
0000
0000
0000
0000
ENDCHAR
STARTCHAR U+1d7f2
ENCODING 120818
SWIDTH 500 0
DWIDTH 16 0
BBX 16 14 0 0
BITMAP
7FC0
7FC0
7000
7000
7FC0
7FC0
71C0
71C0
7FC0
7FC0
0000
0000
0000
0000
ENDCHAR
STARTCHAR U+1d7f3
ENCODING 120819
SWIDTH 500 0
DWIDTH 16 0
BBX 16 14 0 0
BITMAP
7FC0
7FC0
01C0
01C0
01C0
01C0
01C0
01C0
01C0
01C0
0000
0000
0000
0000
ENDCHAR
STARTCHAR U+1d7f4
ENCODING 120820
SWIDTH 500 0
DWIDTH 16 0
BBX 16 14 0 0
BITMAP
7FC0
7FC0
71C0
71C0
7FC0
7FC0
71C0
71C0
7FC0
7FC0
0000
0000
0000
0000
ENDCHAR
STARTCHAR U+1d7f5
ENCODING 120821
SWIDTH 500 0
DWIDTH 16 0
BBX 16 14 0 0
BITMAP
7FC0
7FC0
71C0
71C0
7FC0
7FC0
01C0
01C0
7FC0
7FC0
0000
0000
0000
0000
ENDCHAR
STARTCHAR U+1d5d4
ENCODING 120276
SWIDTH 500 0
DWIDTH 16 0
BBX 16 14 0 0
BITMAP
3F80
7FC0
71C0
71C0
71C0
7FC0
7FC0
71C0
71C0
71C0
0000
0000
0000
0000
ENDCHAR
STARTCHAR U+1d5d5
ENCODING 120277
SWIDTH 500 0
DWIDTH 16 0
BBX 16 14 0 0
BITMAP
7F80
7FC0
71C0
71C0
7F80
7F80
71C0
71C0
7FC0
7F80
0000
0000
0000
0000
ENDCHAR
STARTCHAR U+1d5d6
ENCODING 120278
SWIDTH 500 0
DWIDTH 16 0
BBX 16 14 0 0
BITMAP
3F80
7FC0
71C0
71C0
7000
7000
71C0
71C0
7FC0
3F80
0000
0000
0000
0000
ENDCHAR
STARTCHAR U+1d5d7
ENCODING 120279
SWIDTH 500 0
DWIDTH 16 0
BBX 16 14 0 0
BITMAP
7F80
7FC0
71C0
71C0
71C0
71C0
71C0
71C0
7FC0
7F80
0000
0000
0000
0000
ENDCHAR
STARTCHAR U+1d5d8
ENCODING 120280
SWIDTH 500 0
DWIDTH 16 0
BBX 16 14 0 0
BITMAP
7FC0
7FC0
7000
7000
7F00
7F00
7000
7000
7FC0
7FC0
0000
0000
0000
0000
ENDCHAR
STARTCHAR U+1d5d9
ENCODING 120281
SWIDTH 500 0
DWIDTH 16 0
BBX 16 14 0 0
BITMAP
7FC0
7FC0
7000
7000
7F00
7F00
7000
7000
7000
7000
0000
0000
0000
0000
ENDCHAR
STARTCHAR U+1d770
ENCODING 120688
SWIDTH 500 0
DWIDTH 16 0
BBX 16 13 0 0
BITMAP
1EC0
3FE0
3BC0
7380
6380
6780
7F80
7DC0
39C0
0000
0000
0000
0000
ENDCHAR
STARTCHAR U+1d771
ENCODING 120689
SWIDTH 500 0
DWIDTH 16 0
BBX 16 14 0 0
BITMAP
3F00
7F80
71C0
71C0
7780
7780
71C0
71C0
77C0
7780
7000
0000
0000
0000
ENDCHAR
STARTCHAR U+1f401
ENCODING 128001
SWIDTH 500 0
DWIDTH 16 0
BBX 16 12 0 0
BITMAP
380C
4402
4402
45F2
2A0E
5404
8004
FFE8
18F0
0000
0000
0000
ENDCHAR
STARTCHAR U+1f4f1
ENCODING 128241
SWIDTH 500 0
DWIDTH 16 0
BBX 16 16 0 0
BITMAP
0100
0100
0FF0
1018
17D8
1558
1558
17D8
1018
1018
1018
1038
1558
0AB0
07E0
0000
ENDCHAR
STARTCHAR U+26a1
ENCODING 9889
SWIDTH 500 0
DWIDTH 16 0
BBX 16 13 0 0
BITMAP
0002
0006
020C
0318
07B8
07F0
0FE0
1CE0
1840
3000
2000
0000
0000
ENDCHAR
STARTCHAR U+1f5b6
ENCODING 128438
SWIDTH 500 0
DWIDTH 16 0
BBX 16 15 0 0
BITMAP
1020
3FF0
2850
2010
2850
2010
2850
2010
7FF8
400E
4CEA
400E
3FF8
0000
0000
ENDCHAR
STARTCHAR U+1f4a1
ENCODING 128161
SWIDTH 500 0
DWIDTH 16 0
BBX 16 11 0 0
BITMAP
03E0
07F0
0CF8
0CF8
0FF8
0FF8
0FF8
1FFC
0220
0220
0000
ENDCHAR
STARTCHAR U+1f50d
ENCODING 128269
SWIDTH 500 0
DWIDTH 16 0
BBX 16 15 0 0
BITMAP
07C0
0FE0
1830
3018
3218
650C
688C
650C
3218
3018
183C
0FFE
07CF
0007
0003
ENDCHAR
STARTCHAR U+1f4e7
ENCODING 128231
SWIDTH 500 0
DWIDTH 16 0
BBX 16 14 0 0
BITMAP
7FFE
4002
4002
700E
4C32
43C2
4422
4812
500A
6006
7FFE
0000
0000
0000
ENDCHAR
STARTCHAR U+00ae
ENCODING 174
SWIDTH 500 0
DWIDTH 16 0
BBX 16 15 0 0
BITMAP
0E00
3180
2E80
4A40
4C40
4A40
2A80
3180
0E00
0000
0000
0000
0000
0000
0000
ENDCHAR
STARTCHAR U+270f
ENCODING 9999
SWIDTH 500 0
DWIDTH 16 0
BBX 16 15 0 0
BITMAP
0180
0180
03C0
0420
0810
0AB0
0D50
0950
0950
0950
0FF0
0FF0
07E0
0000
0000
ENDCHAR
STARTCHAR U+1f6d1
ENCODING 128721
SWIDTH 500 0
DWIDTH 16 0
BBX 16 15 0 0
BITMAP
07F0
0808
12A4
22A2
22AA
4AA9
4AA9
4FF9
4FF9
27FA
27F2
13E4
0808
07F0
0000
ENDCHAR
STARTCHAR U+26a0
ENCODING 9888
SWIDTH 500 0
DWIDTH 16 0
BBX 16 15 0 0
BITMAP
0180
0180
0240
0240
0420
05A0
0990
0990
1188
1008
2184
2184
4002
7FFE
0000
ENDCHAR
STARTCHAR U+231b
ENCODING 8987
SWIDTH 500 0
DWIDTH 16 0
BBX 16 15 0 0
BITMAP
0FF8
1004
1004
0AA8
0550
02A0
0140
0140
0220
0410
0888
1144
12A4
0FF8
0000
ENDCHAR
STARTCHAR U+23f0
ENCODING 9200
SWIDTH 500 0
DWIDTH 16 0
BBX 16 15 0 0
BITMAP
3838
47C4
4824
3118
2108
2108
23E8
2108
2008
1010
0820
37D8
4284
7EFC
0000
ENDCHAR
STARTCHAR U+1f140
ENCODING 127296
SWIDTH 500 0
DWIDTH 16 0
BBX 16 16 0 0
BITMAP
3FFC
6006
5FFE
500E
518E
524E
524E
524E
534E
528E
514E
500E
5FFE
7FFE
3FFC
0000
ENDCHAR
STARTCHAR U+1f146
ENCODING 127302
SWIDTH 500 0
DWIDTH 16 0
BBX 16 16 0 0
BITMAP
3FFC
6006
5FFE
500E
544E
544E
554E
554E
554E
554E
528E
500E
5FFE
7FFE
3FFC
0000
ENDCHAR
STARTCHAR U+1f134
ENCODING 127284
SWIDTH 500 0
DWIDTH 16 0
BBX 16 16 0 0
BITMAP
3FFC
6006
5FFE
500E
53CE
520E
520E
538E
520E
520E
53CE
500E
5FFE
7FFE
3FFC
0000
ENDCHAR
STARTCHAR U+1f141
ENCODING 127297
SWIDTH 500 0
DWIDTH 16 0
BBX 16 16 0 0
BITMAP
3FFC
6006
5FFE
500E
538E
524E
524E
538E
528E
524E
524E
500E
5FFE
7FFE
3FFC
0000
ENDCHAR
STARTCHAR U+1f143
ENCODING 127299
SWIDTH 500 0
DWIDTH 16 0
BBX 16 16 0 0
BITMAP
3FFC
6006
5FFE
500E
57CE
510E
510E
510E
510E
510E
538E
500E
5FFE
7FFE
3FFC
0000
ENDCHAR
STARTCHAR U+1f148
ENCODING 127304
SWIDTH 500 0
DWIDTH 16 0
BBX 16 16 0 0
BITMAP
3FFC
6006
5FFE
500E
544E
544E
528E
510E
510E
510E
538E
500E
5FFE
7FFE
3FFC
0000
ENDCHAR
STARTCHAR U+1f144
ENCODING 127300
SWIDTH 500 0
DWIDTH 16 0
BBX 16 16 0 0
BITMAP
3FFC
6006
5FFE
500E
544E
544E
544E
544E
544E
544E
538E
500E
5FFE
7FFE
3FFC
0000
ENDCHAR
STARTCHAR U+1f138
ENCODING 127288
SWIDTH 500 0
DWIDTH 16 0
BBX 16 16 0 0
BITMAP
3FFC
6006
5FFE
500E
538E
510E
510E
510E
510E
510E
538E
500E
5FFE
7FFE
3FFC
0000
ENDCHAR
STARTCHAR U+1f13e
ENCODING 127294
SWIDTH 500 0
DWIDTH 16 0
BBX 16 16 0 0
BITMAP
3FFC
6006
5FFE
500E
518E
524E
524E
524E
524E
524E
518E
500E
5FFE
7FFE
3FFC
0000
ENDCHAR
STARTCHAR U+1f13f
ENCODING 127295
SWIDTH 500 0
DWIDTH 16 0
BBX 16 16 0 0
BITMAP
3FFC
6006
5FFE
500E
538E
524E
524E
538E
520E
520E
520E
500E
5FFE
7FFE
3FFC
0000
ENDCHAR
STARTCHAR U+1f130
ENCODING 127280
SWIDTH 500 0
DWIDTH 16 0
BBX 16 16 0 0
BITMAP
3FFC
6006
5FFE
500E
518E
524E
524E
53CE
524E
524E
524E
500E
5FFE
7FFE
3FFC
0000
ENDCHAR
STARTCHAR U+1f142
ENCODING 127298
SWIDTH 500 0
DWIDTH 16 0
BBX 16 16 0 0
BITMAP
3FFC
6006
5FFE
500E
51CE
520E
520E
518E
504E
504E
538E
500E
5FFE
7FFE
3FFC
0000
ENDCHAR
STARTCHAR U+1f133
ENCODING 127283
SWIDTH 500 0
DWIDTH 16 0
BBX 16 16 0 0
BITMAP
3FFC
6006
5FFE
500E
538E
524E
524E
524E
524E
524E
538E
500E
5FFE
7FFE
3FFC
0000
ENDCHAR
STARTCHAR U+1f135
ENCODING 127285
SWIDTH 500 0
DWIDTH 16 0
BBX 16 16 0 0
BITMAP
3FFC
6006
5FFE
500E
53CE
520E
520E
538E
520E
520E
520E
500E
5FFE
7FFE
3FFC
0000
ENDCHAR
STARTCHAR U+1f136
ENCODING 127286
SWIDTH 500 0
DWIDTH 16 0
BBX 16 16 0 0
BITMAP
3FFC
6006
5FFE
500E
518E
524E
520E
52CE
524E
524E
51CE
500E
5FFE
7FFE
3FFC
0000
ENDCHAR
STARTCHAR U+1f137
ENCODING 127287
SWIDTH 500 0
DWIDTH 16 0
BBX 16 16 0 0
BITMAP
3FFC
6006
5FFE
500E
524E
524E
524E
53CE
524E
524E
524E
500E
5FFE
7FFE
3FFC
0000
ENDCHAR
STARTCHAR U+1f139
ENCODING 127289
SWIDTH 500 0
DWIDTH 16 0
BBX 16 16 0 0
BITMAP
3FFC
6006
5FFE
500E
504E
504E
504E
504E
524E
524E
518E
500E
5FFE
7FFE
3FFC
0000
ENDCHAR
STARTCHAR U+1f13a
ENCODING 127290
SWIDTH 500 0
DWIDTH 16 0
BBX 16 16 0 0
BITMAP
3FFC
6006
5FFE
500E
524E
524E
528E
530E
528E
524E
524E
500E
5FFE
7FFE
3FFC
0000
ENDCHAR
STARTCHAR U+1f13b
ENCODING 127291
SWIDTH 500 0
DWIDTH 16 0
BBX 16 16 0 0
BITMAP
3FFC
6006
5FFE
500E
520E
520E
520E
520E
520E
520E
53CE
500E
5FFE
7FFE
3FFC
0000
ENDCHAR
STARTCHAR U+1f149
ENCODING 127305
SWIDTH 500 0
DWIDTH 16 0
BBX 16 16 0 0
BITMAP
3FFC
6006
5FFE
500E
57CE
504E
508E
510E
520E
540E
57CE
500E
5FFE
7FFE
3FFC
0000
ENDCHAR
STARTCHAR U+1f147
ENCODING 127303
SWIDTH 500 0
DWIDTH 16 0
BBX 16 16 0 0
BITMAP
3FFC
6006
5FFE
500E
544E
544E
528E
510E
528E
544E
544E
500E
5FFE
7FFE
3FFC
0000
ENDCHAR
STARTCHAR U+1f132
ENCODING 127282
SWIDTH 500 0
DWIDTH 16 0
BBX 16 16 0 0
BITMAP
3FFC
6006
5FFE
500E
518E
524E
520E
520E
520E
524E
518E
500E
5FFE
7FFE
3FFC
0000
ENDCHAR
STARTCHAR U+1f145
ENCODING 127301
SWIDTH 500 0
DWIDTH 16 0
BBX 16 16 0 0
BITMAP
3FFC
6006
5FFE
500E
544E
544E
544E
528E
528E
510E
510E
500E
5FFE
7FFE
3FFC
0000
ENDCHAR
STARTCHAR U+1f131
ENCODING 127281
SWIDTH 500 0
DWIDTH 16 0
BBX 16 16 0 0
BITMAP
3FFC
6006
5FFE
500E
538E
524E
524E
538E
524E
524E
538E
500E
5FFE
7FFE
3FFC
0000
ENDCHAR
STARTCHAR U+1f13d
ENCODING 127293
SWIDTH 500 0
DWIDTH 16 0
BBX 16 16 0 0
BITMAP
3FFC
6006
5FFE
500E
544E
564E
554E
54CE
544E
544E
544E
500E
5FFE
7FFE
3FFC
0000
ENDCHAR
STARTCHAR U+1f13c
ENCODING 127292
SWIDTH 500 0
DWIDTH 16 0
BBX 16 16 0 0
BITMAP
3FFC
6006
5FFE
500E
544E
57CE
554E
554E
544E
544E
544E
500E
5FFE
7FFE
3FFC
0000
ENDCHAR
STARTCHAR U+2350
ENCODING 9040
SWIDTH 500 0
DWIDTH 16 0
BBX 16 16 0 0
BITMAP
3FFC
6006
5FFE
500E
510E
538E
554E
510E
510E
510E
510E
500E
5FFE
7FFE
3FFC
0000
ENDCHAR
STARTCHAR U+2347
ENCODING 9031
SWIDTH 500 0
DWIDTH 16 0
BBX 16 16 0 0
BITMAP
3FFC
6006
5FFE
500E
500E
510E
520E
57EE
520E
510E
500E
500E
5FFE
7FFE
3FFC
0000
ENDCHAR
STARTCHAR U+2357
ENCODING 9047
SWIDTH 500 0
DWIDTH 16 0
BBX 16 16 0 0
BITMAP
3FFC
6006
5FFE
500E
500E
510E
510E
510E
554E
538E
510E
500E
5FFE
7FFE
3FFC
0000
ENDCHAR
STARTCHAR U+2348
ENCODING 9032
SWIDTH 500 0
DWIDTH 16 0
BBX 16 16 0 0
BITMAP
3FFC
6006
5FFE
500E
500E
508E
504E
57EE
504E
508E
500E
500E
5FFE
7FFE
3FFC
0000
ENDCHAR
STARTCHAR U+3001
ENCODING 12289
SWIDTH 500 0
DWIDTH 16 0
BBX 16 11 0 0
BITMAP
0400
0300
0180
01C0
00C0
0000
0000
0000
0000
0000
0000
ENDCHAR
STARTCHAR U+3002
ENCODING 12290
SWIDTH 500 0
DWIDTH 16 0
BBX 16 10 0 0
BITMAP
0180
0240
0240
0180
0000
0000
0000
0000
0000
0000
ENDCHAR
STARTCHAR U+2025
ENCODING 8229
SWIDTH 500 0
DWIDTH 16 0
BBX 16 10 0 0
BITMAP
1830
3C78
1830
0000
0000
0000
0000
0000
0000
0000
ENDCHAR
STARTCHAR U+2026
ENCODING 8230
SWIDTH 500 0
DWIDTH 16 0
BBX 16 10 0 0
BITMAP
318C
7BDE
318C
0000
0000
0000
0000
0000
0000
0000
ENDCHAR
STARTCHAR U+00a8
ENCODING 168
SWIDTH 500 0
DWIDTH 16 0
BBX 16 15 0 0
BITMAP
0C30
1E78
0C30
0000
0000
0000
0000
0000
0000
0000
0000
0000
0000
0000
0000
ENDCHAR
STARTCHAR U+3003
ENCODING 12291
SWIDTH 500 0
DWIDTH 16 0
BBX 16 11 0 0
BITMAP
0330
0330
0660
0440
0880
0000
0000
0000
0000
0000
0000
ENDCHAR
STARTCHAR U+00ad
ENCODING 173
SWIDTH 500 0
DWIDTH 16 0
BBX 16 9 0 0
BITMAP
0FE0
0000
0000
0000
0000
0000
0000
0000
0000
ENDCHAR
STARTCHAR U+2015
ENCODING 8213
SWIDTH 500 0
DWIDTH 16 0
BBX 16 9 0 0
BITMAP
7FFE
0000
0000
0000
0000
0000
0000
0000
0000
ENDCHAR
STARTCHAR U+2225
ENCODING 8741
SWIDTH 500 0
DWIDTH 16 0
BBX 16 16 0 0
BITMAP
0660
0660
0660
0660
0660
0660
0660
0660
0660
0660
0660
0660
0660
0660
0660
0660
ENDCHAR
STARTCHAR U+ff3c
ENCODING 65340
SWIDTH 500 0
DWIDTH 16 0
BBX 16 15 0 0
BITMAP
C000
6000
3000
1800
0C00
0600
0300
0180
00C0
0060
0030
0018
000C
0006
0000
ENDCHAR
STARTCHAR U+223c
ENCODING 8764
SWIDTH 500 0
DWIDTH 16 0
BBX 16 10 0 0
BITMAP
0F04
1998
20F0
0000
0000
0000
0000
0000
0000
0000
ENDCHAR
STARTCHAR U+2018
ENCODING 8216
SWIDTH 500 0
DWIDTH 16 0
BBX 16 15 0 0
BITMAP
0008
0010
0030
0038
0038
0010
0000
0000
0000
0000
0000
0000
0000
0000
0000
ENDCHAR
STARTCHAR U+2019
ENCODING 8217
SWIDTH 500 0
DWIDTH 8 0
BBX 8 15 0 0
BITMAP
1000
3800
3800
1800
1000
2000
0000
0000
0000
0000
0000
0000
0000
0000
0000
ENDCHAR
STARTCHAR U+201c
ENCODING 8220
SWIDTH 500 0
DWIDTH 16 0
BBX 16 15 0 0
BITMAP
0108
0210
0630
0738
0738
0210
0000
0000
0000
0000
0000
0000
0000
0000
0000
ENDCHAR
STARTCHAR U+201d
ENCODING 8221
SWIDTH 500 0
DWIDTH 16 0
BBX 16 15 0 0
BITMAP
1080
39C0
39C0
18C0
1080
2100
0000
0000
0000
0000
0000
0000
0000
0000
0000
ENDCHAR
STARTCHAR U+3014
ENCODING 12308
SWIDTH 500 0
DWIDTH 16 0
BBX 16 15 0 0
BITMAP
0006
0018
0030
0030
0030
0030
0030
0030
0030
0030
0030
0030
0018
0006
0000
ENDCHAR
STARTCHAR U+3015
ENCODING 12309
SWIDTH 500 0
DWIDTH 8 0
BBX 8 15 0 0
BITMAP
6000
1800
0C00
0C00
0C00
0C00
0C00
0C00
0C00
0C00
0C00
0C00
1800
6000
0000
ENDCHAR
STARTCHAR U+3008
ENCODING 12296
SWIDTH 500 0
DWIDTH 16 0
BBX 16 15 0 0
BITMAP
0006
0006
000C
000C
0018
0018
0030
0030
0018
0018
000C
000C
0006
0006
0000
ENDCHAR
STARTCHAR U+3009
ENCODING 12297
SWIDTH 500 0
DWIDTH 8 0
BBX 8 15 0 0
BITMAP
6000
6000
3000
3000
1800
1800
0C00
0C00
1800
1800
3000
3000
6000
6000
0000
ENDCHAR
STARTCHAR U+300a
ENCODING 12298
SWIDTH 500 0
DWIDTH 16 0
BBX 16 15 0 0
BITMAP
0066
0066
00CC
00CC
0198
0198
0330
0330
0198
0198
00CC
00CC
0066
0066
0000
ENDCHAR
STARTCHAR U+300b
ENCODING 12299
SWIDTH 500 0
DWIDTH 16 0
BBX 16 15 0 0
BITMAP
6600
6600
3300
3300
1980
1980
0CC0
0CC0
1980
1980
3300
3300
6600
6600
0000
ENDCHAR
STARTCHAR U+300c
ENCODING 12300
SWIDTH 500 0
DWIDTH 16 0
BBX 16 15 0 0
BITMAP
007E
007E
0060
0060
0060
0060
0060
0060
0060
0060
0060
0000
0000
0000
0000
ENDCHAR
STARTCHAR U+300d
ENCODING 12301
SWIDTH 500 0
DWIDTH 8 0
BBX 8 12 0 0
BITMAP
0600
0600
0600
0600
0600
0600
0600
0600
0600
7E00
7E00
0000
ENDCHAR
STARTCHAR U+300e
ENCODING 12302
SWIDTH 500 0
DWIDTH 16 0
BBX 16 15 0 0
BITMAP
007E
0042
005E
0050
0050
0050
0050
0050
0050
0050
0070
0000
0000
0000
0000
ENDCHAR
STARTCHAR U+300f
ENCODING 12303
SWIDTH 500 0
DWIDTH 8 0
BBX 8 12 0 0
BITMAP
0E00
0A00
0A00
0A00
0A00
0A00
0A00
0A00
7A00
4200
7E00
0000
ENDCHAR
STARTCHAR U+3010
ENCODING 12304
SWIDTH 500 0
DWIDTH 16 0
BBX 16 15 0 0
BITMAP
007E
0078
0070
0070
0060
0060
0060
0060
0060
0060
0070
0070
0078
007E
0000
ENDCHAR
STARTCHAR U+3011
ENCODING 12305
SWIDTH 500 0
DWIDTH 8 0
BBX 8 15 0 0
BITMAP
7E00
1E00
0E00
0E00
0600
0600
0600
0600
0600
0600
0E00
0E00
1E00
7E00
0000
ENDCHAR
STARTCHAR U+00d7
ENCODING 215
SWIDTH 500 0
DWIDTH 16 0
BBX 16 13 0 0
BITMAP
1818
0C30
0660
03C0
0180
03C0
0660
0C30
1818
0000
0000
0000
0000
ENDCHAR
STARTCHAR U+2260
ENCODING 8800
SWIDTH 500 0
DWIDTH 16 0
BBX 16 13 0 0
BITMAP
1000
0800
0400
3FFC
0100
0080
3FFC
0020
0010
0008
0000
0000
0000
ENDCHAR
STARTCHAR U+2234
ENCODING 8756
SWIDTH 500 0
DWIDTH 16 0
BBX 16 13 0 0
BITMAP
0180
03C0
0180
0000
0000
0000
0000
1818
3C3C
1818
0000
0000
0000
ENDCHAR
STARTCHAR U+2032
ENCODING 8242
SWIDTH 500 0
DWIDTH 8 0
BBX 8 13 0 0
BITMAP
0600
0C00
1000
0000
0000
0000
0000
0000
0000
0000
0000
0000
0000
ENDCHAR
STARTCHAR U+2033
ENCODING 8243
SWIDTH 500 0
DWIDTH 16 0
BBX 16 13 0 0
BITMAP
1980
3300
4400
0000
0000
0000
0000
0000
0000
0000
0000
0000
0000
ENDCHAR
STARTCHAR U+2103
ENCODING 8451
SWIDTH 500 0
DWIDTH 16 0
BBX 16 15 0 0
BITMAP
3000
49F0
3318
060C
0600
0600
0600
0600
0600
0604
060C
0318
01F0
0000
0000
ENDCHAR
STARTCHAR U+212b
ENCODING 8491
SWIDTH 500 0
DWIDTH 16 0
BBX 16 16 0 0
BITMAP
0380
0440
0440
0380
0000
0380
0380
06C0
06C0
0C60
0C60
1FF0
1830
3018
783C
0000
ENDCHAR
STARTCHAR U+ffe0
ENCODING 65504
SWIDTH 500 0
DWIDTH 16 0
BBX 16 15 0 0
BITMAP
0030
0070
07E0
0CF0
18C0
1980
1980
1B00
1B00
1E30
0E30
0FE0
1C00
1800
0000
ENDCHAR
STARTCHAR U+ffe1
ENCODING 65505
SWIDTH 500 0
DWIDTH 16 0
BBX 16 14 0 0
BITMAP
01E0
0310
0600
0600
7FE0
0600
0600
0600
3E00
6F04
6DCC
3878
0000
0000
ENDCHAR
STARTCHAR U+ffe5
ENCODING 65509
SWIDTH 500 0
DWIDTH 16 0
BBX 16 14 0 0
BITMAP
381C
0C30
0660
03C0
1FF8
0180
1FF8
0180
0180
0180
0180
03C0
0000
0000
ENDCHAR
STARTCHAR U+2220
ENCODING 8736
SWIDTH 500 0
DWIDTH 16 0
BBX 16 13 0 0
BITMAP
0010
0020
0040
0080
0100
0200
0400
0800
1000
3FF8
0000
0000
0000
ENDCHAR
STARTCHAR U+22a5
ENCODING 8869
SWIDTH 500 0
DWIDTH 16 0
BBX 16 12 0 0
BITMAP
0100
0100
0100
0100
0100
0100
0100
0100
7FFC
0000
0000
0000
ENDCHAR
STARTCHAR U+2312
ENCODING 8978
SWIDTH 500 0
DWIDTH 16 0
BBX 16 11 0 0
BITMAP
03C0
1C38
2004
0000
0000
0000
0000
0000
0000
0000
0000
ENDCHAR
STARTCHAR U+2202
ENCODING 8706
SWIDTH 500 0
DWIDTH 16 0
BBX 16 13 0 0
BITMAP
0780
1860
0030
0030
07B0
1870
1830
1830
0C60
0380
0000
0000
0000
ENDCHAR
STARTCHAR U+2207
ENCODING 8711
SWIDTH 500 0
DWIDTH 16 0
BBX 16 12 0 0
BITMAP
FFFE
4004
2008
1010
0820
0440
0280
0100
0000
0000
0000
0000
ENDCHAR
STARTCHAR U+2252
ENCODING 8786
SWIDTH 500 0
DWIDTH 16 0
BBX 16 13 0 0
BITMAP
1800
1800
0000
3FFC
0000
0000
3FFC
0000
0018
0018
0000
0000
0000
ENDCHAR
STARTCHAR U+203b
ENCODING 8251
SWIDTH 500 0
DWIDTH 16 0
BBX 16 14 0 0
BITMAP
2184
1188
0810
0420
0240
318C
318C
0240
0420
0810
1188
2184
0000
0000
ENDCHAR
STARTCHAR U+2606
ENCODING 9734
SWIDTH 500 0
DWIDTH 16 0
BBX 16 15 0 0
BITMAP
0100
0100
0280
0280
0440
F83E
600C
1010
0820
0820
1110
16D0
1830
2008
0000
ENDCHAR
STARTCHAR U+2605
ENCODING 9733
SWIDTH 500 0
DWIDTH 16 0
BBX 16 15 0 0
BITMAP
0100
0100
0380
0380
07C0
FFFE
7FFC
1FF0
0FE0
0FE0
1FF0
1C70
1830
2008
0000
ENDCHAR
STARTCHAR U+25cf
ENCODING 9679
SWIDTH 500 0
DWIDTH 16 0
BBX 16 14 0 0
BITMAP
03C0
0FF0
1FF8
1FF8
3FFC
3FFC
3FFC
1FF8
1FF8
0FF0
03C0
0000
0000
0000
ENDCHAR
STARTCHAR U+25ce
ENCODING 9678
SWIDTH 500 0
DWIDTH 16 0
BBX 16 14 0 0
BITMAP
03C0
0C30
1008
13C8
2424
2424
2424
2424
13C8
1008
0C30
03C0
0000
0000
ENDCHAR
STARTCHAR U+25c7
ENCODING 9671
SWIDTH 500 0
DWIDTH 16 0
BBX 16 15 0 0
BITMAP
0100
0380
06C0
0C60
1830
3018
600C
3018
1830
0C60
06C0
0380
0100
0000
0000
ENDCHAR
STARTCHAR U+25c6
ENCODING 9670
SWIDTH 500 0
DWIDTH 16 0
BBX 16 15 0 0
BITMAP
0100
0380
07C0
0FE0
1FF0
3FF8
7FFC
3FF8
1FF0
0FE0
07C0
0380
0100
0000
0000
ENDCHAR
STARTCHAR U+25a1
ENCODING 9633
SWIDTH 500 0
DWIDTH 16 0
BBX 16 14 0 0
BITMAP
3FFC
2004
2004
2004
2004
2004
2004
2004
2004
2004
2004
3FFC
0000
0000
ENDCHAR
STARTCHAR U+25b3
ENCODING 9651
SWIDTH 500 0
DWIDTH 16 0
BBX 16 12 0 0
BITMAP
0100
0280
0440
0820
1010
2008
4004
FFFE
0000
0000
0000
0000
ENDCHAR
STARTCHAR U+25bd
ENCODING 9661
SWIDTH 500 0
DWIDTH 16 0
BBX 16 11 0 0
BITMAP
FFFE
4004
2008
1010
0820
0440
0280
0100
0000
0000
0000
ENDCHAR
STARTCHAR U+3013
ENCODING 12307
SWIDTH 500 0
DWIDTH 16 0
BBX 16 11 0 0
BITMAP
1FF8
1FF8
0000
0000
0000
1FF8
1FF8
0000
0000
0000
0000
ENDCHAR
STARTCHAR U+226a
ENCODING 8810
SWIDTH 500 0
DWIDTH 16 0
BBX 16 12 0 0
BITMAP
00C6
0318
0C60
3180
C600
3180
0C60
0318
00C6
0000
0000
0000
ENDCHAR
STARTCHAR U+226b
ENCODING 8811
SWIDTH 500 0
DWIDTH 16 0
BBX 16 12 0 0
BITMAP
C600
3180
0C60
0318
00C6
0318
0C60
3180
C600
0000
0000
0000
ENDCHAR
STARTCHAR U+223d
ENCODING 8765
SWIDTH 500 0
DWIDTH 16 0
BBX 16 12 0 0
BITMAP
1870
2088
4104
4104
4104
2208
1C30
0000
0000
0000
0000
0000
ENDCHAR
STARTCHAR U+221d
ENCODING 8733
SWIDTH 500 0
DWIDTH 16 0
BBX 16 12 0 0
BITMAP
1C70
2288
4100
4100
4100
2288
1C70
0000
0000
0000
0000
0000
ENDCHAR
STARTCHAR U+2235
ENCODING 8757
SWIDTH 500 0
DWIDTH 16 0
BBX 16 13 0 0
BITMAP
1818
3C3C
1818
0000
0000
0000
0000
0180
03C0
0180
0000
0000
0000
ENDCHAR
STARTCHAR U+222b
ENCODING 8747
SWIDTH 500 0
DWIDTH 16 0
BBX 16 14 0 0
BITMAP
01C0
0320
0300
0300
0300
0300
0180
0180
0180
0180
0980
0700
0000
0000
ENDCHAR
STARTCHAR U+222c
ENCODING 8748
SWIDTH 500 0
DWIDTH 16 0
BBX 16 14 0 0
BITMAP
0738
0CE4
0C60
0C60
0C60
0C60
0630
0630
0630
0630
2730
1CE0
0000
0000
ENDCHAR
STARTCHAR U+2208
ENCODING 8712
SWIDTH 500 0
DWIDTH 16 0
BBX 16 11 0 0
BITMAP
03F8
0C00
1000
1FF8
1000
0C00
03F8
0000
0000
0000
0000
ENDCHAR
STARTCHAR U+220b
ENCODING 8715
SWIDTH 500 0
DWIDTH 16 0
BBX 16 11 0 0
BITMAP
1FC0
0030
0008
1FF8
0008
0030
1FC0
0000
0000
0000
0000
ENDCHAR
STARTCHAR U+2286
ENCODING 8838
SWIDTH 500 0
DWIDTH 16 0
BBX 16 12 0 0
BITMAP
03F8
0C00
1000
1000
1000
0C00
03F8
0000
1FF8
0000
0000
0000
ENDCHAR
STARTCHAR U+2287
ENCODING 8839
SWIDTH 500 0
DWIDTH 16 0
BBX 16 12 0 0
BITMAP
1FC0
0030
0008
0008
0008
0030
1FC0
0000
1FF8
0000
0000
0000
ENDCHAR
STARTCHAR U+2282
ENCODING 8834
SWIDTH 500 0
DWIDTH 16 0
BBX 16 12 0 0
BITMAP
03F8
0C00
1000
1000
1000
1000
1000
0C00
03F8
0000
0000
0000
ENDCHAR
STARTCHAR U+2283
ENCODING 8835
SWIDTH 500 0
DWIDTH 16 0
BBX 16 12 0 0
BITMAP
1FC0
0030
0008
0008
0008
0008
0008
0030
1FC0
0000
0000
0000
ENDCHAR
STARTCHAR U+222a
ENCODING 8746
SWIDTH 500 0
DWIDTH 16 0
BBX 16 12 0 0
BITMAP
1008
1008
1008
1008
1008
1008
1008
1008
0C30
03C0
0000
0000
ENDCHAR
STARTCHAR U+2227
ENCODING 8743
SWIDTH 500 0
DWIDTH 16 0
BBX 16 13 0 0
BITMAP
0100
0100
0280
0280
0440
0440
0820
0820
1010
1010
0000
0000
0000
ENDCHAR
STARTCHAR U+2228
ENCODING 8744
SWIDTH 500 0
DWIDTH 16 0
BBX 16 12 0 0
BITMAP
1010
1010
0820
0820
0440
0440
0280
0280
0100
0100
0000
0000
ENDCHAR
STARTCHAR U+ffe2
ENCODING 65506
SWIDTH 500 0
DWIDTH 16 0
BBX 16 13 0 0
BITMAP
1FFC
1FFC
000C
000C
0000
0000
0000
0000
0000
0000
0000
0000
0000
ENDCHAR
STARTCHAR U+21d2
ENCODING 8658
SWIDTH 500 0
DWIDTH 16 0
BBX 16 14 0 0
BITMAP
0080
0040
0020
3FF0
0008
0004
0008
3FF0
0020
0040
0080
0000
0000
0000
ENDCHAR
STARTCHAR U+21d4
ENCODING 8660
SWIDTH 500 0
DWIDTH 16 0
BBX 16 13 0 0
BITMAP
0420
0810
1FF8
2004
4002
2004
1FF8
0810
0420
0000
0000
0000
0000
ENDCHAR
STARTCHAR U+2200
ENCODING 8704
SWIDTH 500 0
DWIDTH 16 0
BBX 16 13 0 0
BITMAP
300C
300C
1818
1FF8
0C30
0C30
0660
0660
03C0
0180
0180
0000
0000
ENDCHAR
STARTCHAR U+2203
ENCODING 8707
SWIDTH 500 0
DWIDTH 16 0
BBX 16 13 0 0
BITMAP
1FF0
0030
0030
0030
0030
0FF0
0030
0030
0030
0030
1FF0
0000
0000
ENDCHAR
STARTCHAR U+00b4
ENCODING 180
SWIDTH 500 0
DWIDTH 16 0
BBX 16 15 0 0
BITMAP
00C0
0180
0200
0000
0000
0000
0000
0000
0000
0000
0000
0000
0000
0000
0000
ENDCHAR
STARTCHAR U+ff5e
ENCODING 65374
SWIDTH 500 0
DWIDTH 16 0
BBX 16 15 0 0
BITMAP
0300
0490
0060
0000
0000
0000
0000
0000
0000
0000
0000
0000
0000
0000
0000
ENDCHAR
STARTCHAR U+02c7
ENCODING 711
SWIDTH 500 0
DWIDTH 16 0
BBX 16 15 0 0
BITMAP
0440
0280
0100
0000
0000
0000
0000
0000
0000
0000
0000
0000
0000
0000
0000
ENDCHAR
STARTCHAR U+02d8
ENCODING 728
SWIDTH 500 0
DWIDTH 16 0
BBX 16 15 0 0
BITMAP
2020
18C0
0700
0000
0000
0000
0000
0000
0000
0000
0000
0000
0000
0000
0000
ENDCHAR
STARTCHAR U+02dd
ENCODING 733
SWIDTH 500 0
DWIDTH 16 0
BBX 16 15 0 0
BITMAP
0360
06C0
0D80
0000
0000
0000
0000
0000
0000
0000
0000
0000
0000
0000
0000
ENDCHAR
STARTCHAR U+02da
ENCODING 730
SWIDTH 500 0
DWIDTH 16 0
BBX 16 15 0 0
BITMAP
00C0
0120
0120
00C0
0000
0000
0000
0000
0000
0000
0000
0000
0000
0000
0000
ENDCHAR
STARTCHAR U+02d9
ENCODING 729
SWIDTH 500 0
DWIDTH 16 0
BBX 16 15 0 0
BITMAP
00C0
01E0
00C0
0000
0000
0000
0000
0000
0000
0000
0000
0000
0000
0000
0000
ENDCHAR
STARTCHAR U+00b8
ENCODING 184
SWIDTH 500 0
DWIDTH 8 0
BBX 8 7 0 0
BITMAP
1000
3800
3800
1800
1000
2000
0000
ENDCHAR
STARTCHAR U+02db
ENCODING 731
SWIDTH 500 0
DWIDTH 16 0
BBX 16 7 0 0
BITMAP
0004
0008
0018
001C
001C
0008
0000
ENDCHAR
STARTCHAR U+02d0
ENCODING 720
SWIDTH 500 0
DWIDTH 16 0
BBX 16 13 0 0
BITMAP
03E0
01C0
0080
0000
0000
0000
0000
0080
01C0
03E0
0000
0000
0000
ENDCHAR
STARTCHAR U+222e
ENCODING 8750
SWIDTH 500 0
DWIDTH 16 0
BBX 16 15 0 0
BITMAP
00E0
0190
0180
0180
07E0
0990
0990
0990
0990
07E0
0180
0180
0980
0700
0000
ENDCHAR
STARTCHAR U+2211
ENCODING 8721
SWIDTH 500 0
DWIDTH 16 0
BBX 16 13 0 0
BITMAP
1FF8
0C18
0600
0300
0180
0180
0300
0600
0C18
1FF8
0000
0000
0000
ENDCHAR
STARTCHAR U+220f
ENCODING 8719
SWIDTH 500 0
DWIDTH 16 0
BBX 16 13 0 0
BITMAP
1FFC
0630
0630
0630
0630
0630
0630
0630
0630
0630
0000
0000
0000
ENDCHAR
STARTCHAR U+00a4
ENCODING 164
SWIDTH 500 0
DWIDTH 16 0
BBX 16 14 0 0
BITMAP
1008
0810
07E0
0420
0810
0810
0810
0420
07E0
0810
1008
0000
0000
0000
ENDCHAR
STARTCHAR U+2109
ENCODING 8457
SWIDTH 500 0
DWIDTH 16 0
BBX 16 15 0 0
BITMAP
3000
4800
3000
0FFC
060C
0600
0620
07E0
0620
0600
0600
0F00
0000
0000
0000
ENDCHAR
STARTCHAR U+2030
ENCODING 8240
SWIDTH 500 0
DWIDTH 16 0
BBX 16 14 0 0
BITMAP
0020
3040
4880
4900
3200
0400
0800
1318
24A4
44A4
8318
0000
0000
0000
ENDCHAR
STARTCHAR U+25c1
ENCODING 9665
SWIDTH 500 0
DWIDTH 16 0
BBX 16 15 0 0
BITMAP
0008
0038
00C8
0308
0C08
3008
4008
3008
0C08
0308
00C8
0038
0008
0000
0000
ENDCHAR
STARTCHAR U+25c0
ENCODING 9664
SWIDTH 500 0
DWIDTH 16 0
BBX 16 15 0 0
BITMAP
0008
0038
00F8
03F8
0FF8
3FF8
7FF8
3FF8
0FF8
03F8
00F8
0038
0008
0000
0000
ENDCHAR
STARTCHAR U+25b7
ENCODING 9655
SWIDTH 500 0
DWIDTH 16 0
BBX 16 15 0 0
BITMAP
2000
3800
2600
2180
2060
2018
2004
2018
2060
2180
2600
3800
2000
0000
0000
ENDCHAR
STARTCHAR U+25b6
ENCODING 9654
SWIDTH 500 0
DWIDTH 16 0
BBX 16 15 0 0
BITMAP
2000
3800
3E00
3F80
3FE0
3FF8
3FFC
3FF8
3FE0
3F80
3E00
3800
2000
0000
0000
ENDCHAR
STARTCHAR U+2664
ENCODING 9828
SWIDTH 500 0
DWIDTH 16 0
BBX 16 15 0 0
BITMAP
0100
0280
0440
0820
1010
2008
4004
4104
4384
3D78
0100
0280
07C0
0000
0000
ENDCHAR
STARTCHAR U+2661
ENCODING 9825
SWIDTH 500 0
DWIDTH 16 0
BBX 16 14 0 0
BITMAP
1C70
2288
4104
4004
4004
2008
1010
0820
0440
0280
0100
0000
0000
0000
ENDCHAR
STARTCHAR U+2667
ENCODING 9831
SWIDTH 500 0
DWIDTH 16 0
BBX 16 15 0 0
BITMAP
03C0
0660
0420
0420
0240
3C3C
6006
4002
63C6
3E7C
0240
0420
0FF0
0000
0000
ENDCHAR
STARTCHAR U+2299
ENCODING 8857
SWIDTH 500 0
DWIDTH 16 0
BBX 16 14 0 0
BITMAP
03C0
0C30
1008
13C8
27E4
27E4
27E4
27E4
13C8
1008
0C30
03C0
0000
0000
ENDCHAR
STARTCHAR U+25c8
ENCODING 9672
SWIDTH 500 0
DWIDTH 16 0
BBX 16 15 0 0
BITMAP
0100
0280
0440
0920
1390
27C8
4FE4
27C8
1390
0920
0440
0280
0100
0000
0000
ENDCHAR
STARTCHAR U+25a3
ENCODING 9635
SWIDTH 500 0
DWIDTH 16 0
BBX 16 14 0 0
BITMAP
3FFC
2004
2004
27E4
27E4
27E4
27E4
27E4
27E4
2004
2004
3FFC
0000
0000
ENDCHAR
STARTCHAR U+25d0
ENCODING 9680
SWIDTH 500 0
DWIDTH 16 0
BBX 16 14 0 0
BITMAP
07C0
1F30
3F08
3F08
7F04
7F04
7F04
7F04
3F08
3F08
1F30
07C0
0000
0000
ENDCHAR
STARTCHAR U+25d1
ENCODING 9681
SWIDTH 500 0
DWIDTH 16 0
BBX 16 14 0 0
BITMAP
07C0
19F0
21F8
21F8
41FC
41FC
41FC
41FC
21F8
21F8
19F0
07C0
0000
0000
ENDCHAR
STARTCHAR U+25a4
ENCODING 9636
SWIDTH 500 0
DWIDTH 16 0
BBX 16 15 0 0
BITMAP
7FFC
4004
7FFC
4004
7FFC
4004
7FFC
4004
7FFC
4004
7FFC
4004
7FFC
0000
0000
ENDCHAR
STARTCHAR U+25a5
ENCODING 9637
SWIDTH 500 0
DWIDTH 16 0
BBX 16 15 0 0
BITMAP
7FFC
4924
4924
4924
4924
4924
4924
4924
4924
4924
4924
4924
7FFC
0000
0000
ENDCHAR
STARTCHAR U+25a8
ENCODING 9640
SWIDTH 500 0
DWIDTH 16 0
BBX 16 15 0 0
BITMAP
7FFC
410C
4214
4424
4844
5084
610C
4214
4424
4844
5084
6104
7FFC
0000
0000
ENDCHAR
STARTCHAR U+25a7
ENCODING 9639
SWIDTH 500 0
DWIDTH 16 0
BBX 16 15 0 0
BITMAP
7FFC
6084
5044
4824
4414
420C
6104
5084
4844
4424
4214
410C
7FFC
0000
0000
ENDCHAR
STARTCHAR U+25a6
ENCODING 9638
SWIDTH 500 0
DWIDTH 16 0
BBX 16 15 0 0
BITMAP
7FFC
4924
4924
7FFC
4924
4924
7FFC
4924
4924
7FFC
4924
4924
7FFC
0000
0000
ENDCHAR
STARTCHAR U+25a9
ENCODING 9641
SWIDTH 500 0
DWIDTH 16 0
BBX 16 15 0 0
BITMAP
7FFC
5114
6AAC
4444
6AAC
5114
6AAC
4444
6AAC
5114
6AAC
4444
7FFC
0000
0000
ENDCHAR
STARTCHAR U+2668
ENCODING 9832
SWIDTH 500 0
DWIDTH 16 0
BBX 16 14 0 0
BITMAP
0490
0920
0920
0920
0490
2494
4492
4922
4002
300C
0FF0
0000
0000
0000
ENDCHAR
STARTCHAR U+260f
ENCODING 9743
SWIDTH 500 0
DWIDTH 16 0
BBX 16 14 0 0
BITMAP
0FF0
300C
47E2
4812
781E
1188
1248
2244
4182
4002
7FFE
0000
0000
0000
ENDCHAR
STARTCHAR U+260e
ENCODING 9742
SWIDTH 500 0
DWIDTH 16 0
BBX 16 14 0 0
BITMAP
0FF0
3FFC
781E
77EE
7FFE
1E78
1C38
3C3C
7E7E
7FFE
7FFE
0000
0000
0000
ENDCHAR
STARTCHAR U+261c
ENCODING 9756
SWIDTH 500 0
DWIDTH 16 0
BBX 16 15 0 0
BITMAP
0006
03EA
7E1A
C00A
7F0A
080A
07CA
040A
03CA
020A
01FA
000A
0006
0000
0000
ENDCHAR
STARTCHAR U+261e
ENCODING 9758
SWIDTH 500 0
DWIDTH 16 0
BBX 16 15 0 0
BITMAP
C000
AF80
B0FC
A006
A1FC
A020
A7C0
A040
A780
A080
BF00
A000
C000
0000
0000
ENDCHAR
STARTCHAR U+2020
ENCODING 8224
SWIDTH 500 0
DWIDTH 16 0
BBX 16 15 0 0
BITMAP
0100
0100
0100
0100
3FF8
0100
0100
0100
0100
0100
0100
0100
0100
0000
0000
ENDCHAR
STARTCHAR U+2021
ENCODING 8225
SWIDTH 500 0
DWIDTH 16 0
BBX 16 15 0 0
BITMAP
0100
0100
3FF8
0100
0100
0100
3FF8
0100
0100
0100
0100
0100
0100
0000
0000
ENDCHAR
STARTCHAR U+2197
ENCODING 8599
SWIDTH 500 0
DWIDTH 16 0
BBX 16 15 0 0
BITMAP
003E
001E
000E
0016
0022
0040
0080
0100
0200
0400
0800
1000
2000
4000
0000
ENDCHAR
STARTCHAR U+2199
ENCODING 8601
SWIDTH 500 0
DWIDTH 16 0
BBX 16 15 0 0
BITMAP
0002
0004
0008
0010
0020
0040
0080
0100
0200
4400
6800
7000
7800
7C00
0000
ENDCHAR
STARTCHAR U+2196
ENCODING 8598
SWIDTH 500 0
DWIDTH 16 0
BBX 16 15 0 0
BITMAP
7C00
7800
7000
6800
4400
0200
0100
0080
0040
0020
0010
0008
0004
0002
0000
ENDCHAR
STARTCHAR U+2198
ENCODING 8600
SWIDTH 500 0
DWIDTH 16 0
BBX 16 15 0 0
BITMAP
4000
2000
1000
0800
0400
0200
0100
0080
0040
0022
0016
000E
001E
003E
0000
ENDCHAR
STARTCHAR U+266d
ENCODING 9837
SWIDTH 500 0
DWIDTH 16 0
BBX 16 15 0 0
BITMAP
0400
0400
0400
0400
0400
0460
0590
0610
0410
0420
0440
0580
0600
0000
0000
ENDCHAR
STARTCHAR U+2669
ENCODING 9833
SWIDTH 500 0
DWIDTH 16 0
BBX 16 14 0 0
BITMAP
0080
0080
0080
0080
0080
0080
0080
0080
0180
0780
0F00
0E00
0000
0000
ENDCHAR
STARTCHAR U+266c
ENCODING 9836
SWIDTH 500 0
DWIDTH 16 0
BBX 16 14 0 0
BITMAP
07FE
07FE
0402
07FE
0402
0402
0402
0402
0C06
3C1E
783C
7038
0000
0000
ENDCHAR
STARTCHAR U+327f
ENCODING 12927
SWIDTH 500 0
DWIDTH 16 0
BBX 16 14 0 0
BITMAP
07E0
1818
261C
4632
4662
46C0
778E
06C2
4662
2634
1818
07E0
0000
0000
ENDCHAR
STARTCHAR U+321c
ENCODING 12828
SWIDTH 500 0
DWIDTH 16 0
BBX 16 14 0 0
BITMAP
1008
2FF4
2424
40C2
4362
5C1A
4002
5FFE
4082
2084
2084
1088
0000
0000
ENDCHAR
STARTCHAR U+2116
ENCODING 8470
SWIDTH 500 0
DWIDTH 16 0
BBX 16 14 0 0
BITMAP
E380
4100
6100
6100
5100
5100
4938
4944
4544
4544
4344
E139
0000
0000
ENDCHAR
STARTCHAR U+33c7
ENCODING 13255
SWIDTH 500 0
DWIDTH 16 0
BBX 16 14 0 0
BITMAP
1D00
2300
4100
4100
4000
4000
4038
4044
4044
4044
2144
1E39
0000
0000
ENDCHAR
STARTCHAR U+2122
ENCODING 8482
SWIDTH 500 0
DWIDTH 16 0
BBX 16 14 0 0
BITMAP
FEC6
926C
1054
1044
1044
1044
1044
1044
1044
1044
1044
38EE
0000
0000
ENDCHAR
STARTCHAR U+33c2
ENCODING 13250
SWIDTH 500 0
DWIDTH 16 0
BBX 16 11 0 0
BITMAP
72D8
8924
0924
0924
7924
8924
8924
8924
7525
0000
0000
ENDCHAR
STARTCHAR U+33d8
ENCODING 13272
SWIDTH 500 0
DWIDTH 16 0
BBX 16 11 0 0
BITMAP
FAD8
8524
8524
8524
F924
8124
8124
8124
8925
0000
0000
ENDCHAR
STARTCHAR U+2121
ENCODING 8481
SWIDTH 500 0
DWIDTH 16 0
BBX 16 14 0 0
BITMAP
FE0C
9204
1004
1004
1004
11C4
1224
1224
13E4
1204
1224
39CE
0000
0000
ENDCHAR
STARTCHAR U+ff01
ENCODING 65281
SWIDTH 500 0
DWIDTH 16 0
BBX 16 14 0 0
BITMAP
0180
03C0
03C0
03C0
0180
0180
0180
0180
0000
0180
0180
0000
0000
0000
ENDCHAR
STARTCHAR U+ff02
ENCODING 65282
SWIDTH 500 0
DWIDTH 16 0
BBX 16 14 0 0
BITMAP
0630
0630
0C60
1080
0000
0000
0000
0000
0000
0000
0000
0000
0000
0000
ENDCHAR
STARTCHAR U+ff03
ENCODING 65283
SWIDTH 500 0
DWIDTH 16 0
BBX 16 14 0 0
BITMAP
0C30
0C30
0C3C
0FF0
3C30
0C30
0C30
0C3C
0FF0
3C30
0C30
0C30
0000
0000
ENDCHAR
STARTCHAR U+ff04
ENCODING 65284
SWIDTH 500 0
DWIDTH 16 0
BBX 16 15 0 0
BITMAP
0240
0240
0FF0
1A58
1A58
0E40
03C0
0270
0258
1A58
1A58
0FF0
0240
0240
0000
ENDCHAR
STARTCHAR U+ff05
ENCODING 65285
SWIDTH 500 0
DWIDTH 16 0
BBX 16 14 0 0
BITMAP
300C
4818
4830
4860
30C0
0180
0300
0618
0C24
1824
3024
6018
0000
0000
ENDCHAR
STARTCHAR U+ff06
ENCODING 65286
SWIDTH 500 0
DWIDTH 16 0
BBX 16 14 0 0
BITMAP
0780
0CC0
1860
1860
0CC0
0738
0F10
19B0
30E0
3060
30F4
1F98
0000
0000
ENDCHAR
STARTCHAR U+ff07
ENCODING 65287
SWIDTH 500 0
DWIDTH 16 0
BBX 16 14 0 0
BITMAP
0080
01C0
01C0
0080
0080
0000
0000
0000
0000
0000
0000
0000
0000
0000
ENDCHAR
STARTCHAR U+ff08
ENCODING 65288
SWIDTH 500 0
DWIDTH 16 0
BBX 16 15 0 0
BITMAP
0002
0004
000C
0008
0018
0018
0018
0018
0018
0018
0008
000C
0004
0002
0000
ENDCHAR
STARTCHAR U+ff09
ENCODING 65289
SWIDTH 500 0
DWIDTH 8 0
BBX 8 15 0 0
BITMAP
4000
2000
3000
1000
1800
1800
1800
1800
1800
1800
1000
3000
2000
4000
0000
ENDCHAR
STARTCHAR U+ff0a
ENCODING 65290
SWIDTH 500 0
DWIDTH 16 0
BBX 16 13 0 0
BITMAP
0630
0770
0360
09C8
1FFC
09C8
0360
0770
0630
0000
0000
0000
0000
ENDCHAR
STARTCHAR U+ff0b
ENCODING 65291
SWIDTH 500 0
DWIDTH 16 0
BBX 16 13 0 0
BITMAP
0180
0180
0180
0180
1FF8
0180
0180
0180
0180
0000
0000
0000
0000
ENDCHAR
STARTCHAR U+ff0c
ENCODING 65292
SWIDTH 500 0
DWIDTH 8 0
BBX 8 7 0 0
BITMAP
1000
3800
3800
1800
1000
2000
0000
ENDCHAR
STARTCHAR U+ff0d
ENCODING 65293
SWIDTH 500 0
DWIDTH 16 0
BBX 16 9 0 0
BITMAP
1FF8
0000
0000
0000
0000
0000
0000
0000
0000
ENDCHAR
STARTCHAR U+ff0e
ENCODING 65294
SWIDTH 500 0
DWIDTH 16 0
BBX 16 6 0 0
BITMAP
0100
0380
0380
0100
0000
0000
ENDCHAR
STARTCHAR U+ff0f
ENCODING 65295
SWIDTH 500 0
DWIDTH 16 0
BBX 16 13 0 0
BITMAP
0010
0030
0060
00C0
0180
0300
0600
0C00
1800
1000
0000
0000
0000
ENDCHAR
STARTCHAR U+ff10
ENCODING 65296
SWIDTH 500 0
DWIDTH 16 0
BBX 16 14 0 0
BITMAP
07E0
0C30
1818
1818
1818
1818
1818
1818
1818
1818
0C30
07E0
0000
0000
ENDCHAR
STARTCHAR U+ff11
ENCODING 65297
SWIDTH 500 0
DWIDTH 16 0
BBX 16 14 0 0
BITMAP
0080
0180
0380
0780
0180
0180
0180
0180
0180
0180
0180
0FF0
0000
0000
ENDCHAR
STARTCHAR U+ff12
ENCODING 65298
SWIDTH 500 0
DWIDTH 16 0
BBX 16 14 0 0
BITMAP
07E0
0C30
1818
1818
0030
00E0
0380
0600
0C00
1800
1818
1FF8
0000
0000
ENDCHAR
STARTCHAR U+ff13
ENCODING 65299
SWIDTH 500 0
DWIDTH 16 0
BBX 16 14 0 0
BITMAP
07E0
0C30
1818
1818
0030
03E0
0030
0018
1818
1818
0C30
07E0
0000
0000
ENDCHAR
STARTCHAR U+ff14
ENCODING 65300
SWIDTH 500 0
DWIDTH 16 0
BBX 16 14 0 0
BITMAP
0060
00E0
01E0
0360
0660
0C60
1860
3060
3FF8
0060
0060
01F0
0000
0000
ENDCHAR
STARTCHAR U+ff15
ENCODING 65301
SWIDTH 500 0
DWIDTH 16 0
BBX 16 14 0 0
BITMAP
1FF8
1800
1800
1800
1FE0
0030
0018
0018
1818
1818
0C30
07E0
0000
0000
ENDCHAR
STARTCHAR U+ff16
ENCODING 65302
SWIDTH 500 0
DWIDTH 16 0
BBX 16 14 0 0
BITMAP
07E0
0C30
1818
1800
1800
1FE0
1830
1818
1818
1818
0C30
07E0
0000
0000
ENDCHAR
STARTCHAR U+ff17
ENCODING 65303
SWIDTH 500 0
DWIDTH 16 0
BBX 16 14 0 0
BITMAP
1FF8
1818
1818
0030
0060
00C0
00C0
0180
0180
0180
0180
0180
0000
0000
ENDCHAR
STARTCHAR U+ff18
ENCODING 65304
SWIDTH 500 0
DWIDTH 16 0
BBX 16 14 0 0
BITMAP
07E0
0C30
1818
1818
0C30
07E0
0C30
1818
1818
1818
0C30
07E0
0000
0000
ENDCHAR
STARTCHAR U+ff19
ENCODING 65305
SWIDTH 500 0
DWIDTH 16 0
BBX 16 14 0 0
BITMAP
07E0
0C30
1818
1818
1818
0C18
07F8
0018
0018
1818
0C30
07E0
0000
0000
ENDCHAR
STARTCHAR U+ff1a
ENCODING 65306
SWIDTH 500 0
DWIDTH 8 0
BBX 8 14 0 0
BITMAP
1000
3800
3800
1000
0000
0000
0000
0000
1000
3800
3800
1000
0000
0000
ENDCHAR
STARTCHAR U+ff1b
ENCODING 65307
SWIDTH 500 0
DWIDTH 8 0
BBX 8 14 0 0
BITMAP
1000
3800
3800
1000
0000
0000
0000
0000
1000
3800
3800
1000
2000
0000
ENDCHAR
STARTCHAR U+ff1c
ENCODING 65308
SWIDTH 500 0
DWIDTH 16 0
BBX 16 14 0 0
BITMAP
00C0
0180
0300
0600
0C00
1800
0C00
0600
0300
0180
00C0
0000
0000
0000
ENDCHAR
STARTCHAR U+ff1d
ENCODING 65309
SWIDTH 500 0
DWIDTH 16 0
BBX 16 11 0 0
BITMAP
1FF0
0000
0000
0000
1FF0
0000
0000
0000
0000
0000
0000
ENDCHAR
STARTCHAR U+ff1e
ENCODING 65310
SWIDTH 500 0
DWIDTH 16 0
BBX 16 14 0 0
BITMAP
0300
0180
00C0
0060
0030
0018
0030
0060
00C0
0180
0300
0000
0000
0000
ENDCHAR
STARTCHAR U+ff1f
ENCODING 65311
SWIDTH 500 0
DWIDTH 16 0
BBX 16 14 0 0
BITMAP
07C0
0C60
1830
1830
0060
00C0
0180
0180
0180
0180
0000
0180
0180
0000
ENDCHAR
STARTCHAR U+ff20
ENCODING 65312
SWIDTH 500 0
DWIDTH 16 0
BBX 16 15 0 0
BITMAP
07C0
1C70
3018
600C
638C
64CC
64CC
64CC
64DC
6368
3018
1C30
07E0
0000
0000
ENDCHAR
STARTCHAR U+ff21
ENCODING 65313
SWIDTH 500 0
DWIDTH 16 0
BBX 16 14 0 0
BITMAP
0180
0180
03C0
03C0
0660
0660
0C30
0C30
1FF8
1818
300C
781E
0000
0000
ENDCHAR
STARTCHAR U+ff22
ENCODING 65314
SWIDTH 500 0
DWIDTH 16 0
BBX 16 14 0 0
BITMAP
3FE0
1870
1830
1830
1860
1FC0
1870
1818
1818
1818
1838
3FF0
0000
0000
ENDCHAR
STARTCHAR U+ff23
ENCODING 65315
SWIDTH 500 0
DWIDTH 16 0
BBX 16 14 0 0
BITMAP
07F0
0C18
1818
1800
1800
1800
1800
1800
1800
1818
0C18
07F0
0000
0000
ENDCHAR
STARTCHAR U+ff24
ENCODING 65316
SWIDTH 500 0
DWIDTH 16 0
BBX 16 14 0 0
BITMAP
3FC0
1830
1818
1818
1818
1818
1818
1818
1818
1818
1830
3FC0
0000
0000
ENDCHAR
STARTCHAR U+ff25
ENCODING 65317
SWIDTH 500 0
DWIDTH 16 0
BBX 16 14 0 0
BITMAP
3FF8
1818
1808
1800
1840
1FC0
1840
1800
1800
1808
1818
3FF8
0000
0000
ENDCHAR
STARTCHAR U+ff26
ENCODING 65318
SWIDTH 500 0
DWIDTH 16 0
BBX 16 14 0 0
BITMAP
3FF8
1818
1808
1800
1840
1FC0
1840
1800
1800
1800
1800
3C00
0000
0000
ENDCHAR
STARTCHAR U+ff27
ENCODING 65319
SWIDTH 500 0
DWIDTH 16 0
BBX 16 14 0 0
BITMAP
0FE0
1830
3030
3000
3000
3000
30F8
3030
3030
3030
18F0
0FB0
0000
0000
ENDCHAR
STARTCHAR U+ff28
ENCODING 65320
SWIDTH 500 0
DWIDTH 16 0
BBX 16 14 0 0
BITMAP
3C3C
1818
1818
1818
1818
1FF8
1818
1818
1818
1818
1818
3C3C
0000
0000
ENDCHAR
STARTCHAR U+ff29
ENCODING 65321
SWIDTH 500 0
DWIDTH 16 0
BBX 16 14 0 0
BITMAP
07E0
0180
0180
0180
0180
0180
0180
0180
0180
0180
0180
07E0
0000
0000
ENDCHAR
STARTCHAR U+ff2a
ENCODING 65322
SWIDTH 500 0
DWIDTH 16 0
BBX 16 14 0 0
BITMAP
01F8
0060
0060
0060
0060
0060
0060
0060
0060
3060
3060
1FC0
0000
0000
ENDCHAR
STARTCHAR U+ff2b
ENCODING 65323
SWIDTH 500 0
DWIDTH 16 0
BBX 16 14 0 0
BITMAP
3C70
1860
18C0
1980
1B00
1F00
1F00
1980
18C0
1860
1830
3C38
0000
0000
ENDCHAR
STARTCHAR U+ff2c
ENCODING 65324
SWIDTH 500 0
DWIDTH 16 0
BBX 16 14 0 0
BITMAP
3E00
1800
1800
1800
1800
1800
1800
1800
1800
1808
1818
3FF8
0000
0000
ENDCHAR
STARTCHAR U+ff2d
ENCODING 65325
SWIDTH 500 0
DWIDTH 16 0
BBX 16 14 0 0
BITMAP
381C
1C38
1C38
1E78
1BD8
1998
1818
1818
1818
1818
1818
3C3C
0000
0000
ENDCHAR
STARTCHAR U+ff2e
ENCODING 65326
SWIDTH 500 0
DWIDTH 16 0
BBX 16 14 0 0
BITMAP
3C3C
1818
1818
1C18
1E18
1B18
1998
18D8
1878
1838
1818
3C18
0000
0000
ENDCHAR
STARTCHAR U+ff2f
ENCODING 65327
SWIDTH 500 0
DWIDTH 16 0
BBX 16 14 0 0
BITMAP
07E0
0C30
1818
1818
1818
1818
1818
1818
1818
1818
0C30
07E0
0000
0000
ENDCHAR
STARTCHAR U+ff30
ENCODING 65328
SWIDTH 500 0
DWIDTH 16 0
BBX 16 14 0 0
BITMAP
3FE0
1830
1818
1818
1818
1830
1FE0
1800
1800
1800
1800
3C00
0000
0000
ENDCHAR
STARTCHAR U+ff31
ENCODING 65329
SWIDTH 500 0
DWIDTH 16 0
BBX 16 14 0 0
BITMAP
07E0
0C30
1818
1818
1818
1818
1818
1818
1998
18D8
0C70
07F8
000C
0000
ENDCHAR
STARTCHAR U+ff32
ENCODING 65330
SWIDTH 500 0
DWIDTH 16 0
BBX 16 14 0 0
BITMAP
3FE0
1830
1818
1818
1830
1FE0
1860
1860
1830
1830
1818
3C7C
0000
0000
ENDCHAR
STARTCHAR U+ff33
ENCODING 65331
SWIDTH 500 0
DWIDTH 16 0
BBX 16 14 0 0
BITMAP
07F0
0C18
1818
1800
0C00
07E0
0030
0018
0018
1818
1830
0FE0
0000
0000
ENDCHAR
STARTCHAR U+ff34
ENCODING 65332
SWIDTH 500 0
DWIDTH 16 0
BBX 16 14 0 0
BITMAP
3FFC
318C
2184
0180
0180
0180
0180
0180
0180
0180
0180
03C0
0000
0000
ENDCHAR
STARTCHAR U+ff35
ENCODING 65333
SWIDTH 500 0
DWIDTH 16 0
BBX 16 14 0 0
BITMAP
3C3C
1818
1818
1818
1818
1818
1818
1818
1818
1818
0C30
07E0
0000
0000
ENDCHAR
STARTCHAR U+ff36
ENCODING 65334
SWIDTH 500 0
DWIDTH 16 0
BBX 16 14 0 0
BITMAP
3C3C
1818
1818
1818
1818
1818
0C30
0C30
0660
0660
03C0
0180
0000
0000
ENDCHAR
STARTCHAR U+ff37
ENCODING 65335
SWIDTH 500 0
DWIDTH 16 0
BBX 16 14 0 0
BITMAP
3C3C
1818
1818
1818
1818
1818
1998
1998
1BD8
1E78
1C38
1818
0000
0000
ENDCHAR
STARTCHAR U+ff38
ENCODING 65336
SWIDTH 500 0
DWIDTH 16 0
BBX 16 14 0 0
BITMAP
701C
3018
1830
0C60
06C0
0380
0380
06C0
0C60
1830
3018
F01E
0000
0000
ENDCHAR
STARTCHAR U+ff39
ENCODING 65337
SWIDTH 500 0
DWIDTH 16 0
BBX 16 14 0 0
BITMAP
381C
1818
0C30
0660
03C0
0180
0180
0180
0180
0180
0180
07E0
0000
0000
ENDCHAR
STARTCHAR U+ff3a
ENCODING 65338
SWIDTH 500 0
DWIDTH 16 0
BBX 16 14 0 0
BITMAP
1FF8
1818
1030
0060
00C0
0180
0300
0600
0C00
1808
3018
3FF8
0000
0000
ENDCHAR
STARTCHAR U+ff3b
ENCODING 65339
SWIDTH 500 0
DWIDTH 16 0
BBX 16 15 0 0
BITMAP
003E
0030
0030
0030
0030
0030
0030
0030
0030
0030
0030
0030
0030
003E
0000
ENDCHAR
STARTCHAR U+ffe6
ENCODING 65510
SWIDTH 500 0
DWIDTH 16 0
BBX 16 14 0 0
BITMAP
3C78
1830
1830
7FFC
1830
1830
7FFC
1930
1BB0
1EF0
1C70
1830
0000
0000
ENDCHAR
STARTCHAR U+ff3d
ENCODING 65341
SWIDTH 500 0
DWIDTH 8 0
BBX 8 15 0 0
BITMAP
7C00
0C00
0C00
0C00
0C00
0C00
0C00
0C00
0C00
0C00
0C00
0C00
0C00
7C00
0000
ENDCHAR
STARTCHAR U+ff3e
ENCODING 65342
SWIDTH 500 0
DWIDTH 16 0
BBX 16 15 0 0
BITMAP
0100
0280
0440
0000
0000
0000
0000
0000
0000
0000
0000
0000
0000
0000
0000
ENDCHAR
STARTCHAR U+ff3f
ENCODING 65343
SWIDTH 500 0
DWIDTH 16 0
BBX 16 5 0 0
BITMAP
1FF8
1FF8
0000
0000
0000
ENDCHAR
STARTCHAR U+ff40
ENCODING 65344
SWIDTH 500 0
DWIDTH 16 0
BBX 16 14 0 0
BITMAP
0600
0700
0180
0000
0000
0000
0000
0000
0000
0000
0000
0000
0000
0000
ENDCHAR
STARTCHAR U+ff41
ENCODING 65345
SWIDTH 500 0
DWIDTH 16 0
BBX 16 11 0 0
BITMAP
0FC0
1860
0060
0FE0
1860
1860
1860
1870
0FD8
0000
0000
ENDCHAR
STARTCHAR U+ff42
ENCODING 65346
SWIDTH 500 0
DWIDTH 16 0
BBX 16 15 0 0
BITMAP
3800
1800
1800
1800
1800
1BE0
1C30
1830
1830
1830
1830
1830
37E0
0000
0000
ENDCHAR
STARTCHAR U+ff43
ENCODING 65347
SWIDTH 500 0
DWIDTH 16 0
BBX 16 11 0 0
BITMAP
07E0
0C30
1800
1800
1800
1800
1800
0C30
07E0
0000
0000
ENDCHAR
STARTCHAR U+ff44
ENCODING 65348
SWIDTH 500 0
DWIDTH 16 0
BBX 16 15 0 0
BITMAP
0070
0030
0030
0030
0030
0FB0
1870
1830
1830
1830
1830
1830
0FD8
0000
0000
ENDCHAR
STARTCHAR U+ff45
ENCODING 65349
SWIDTH 500 0
DWIDTH 16 0
BBX 16 11 0 0
BITMAP
0FE0
1830
1830
1830
1FE0
1800
1800
1830
0FE0
0000
0000
ENDCHAR
STARTCHAR U+ff46
ENCODING 65350
SWIDTH 500 0
DWIDTH 16 0
BBX 16 15 0 0
BITMAP
01E0
0330
0300
0300
0300
1FE0
0300
0300
0300
0300
0300
0300
0300
0000
0000
ENDCHAR
STARTCHAR U+ff47
ENCODING 65351
SWIDTH 500 0
DWIDTH 16 0
BBX 16 12 0 0
BITMAP
0FD8
1830
1830
1830
1830
0FF0
0030
0030
0030
1830
0FE0
0000
ENDCHAR
STARTCHAR U+ff48
ENCODING 65352
SWIDTH 500 0
DWIDTH 16 0
BBX 16 14 0 0
BITMAP
1C00
0C00
0C00
0C00
0C00
0DF0
0E18
0C18
0C18
0C18
0C18
1E3C
0000
0000
ENDCHAR
STARTCHAR U+ff49
ENCODING 65353
SWIDTH 500 0
DWIDTH 16 0
BBX 16 13 0 0
BITMAP
0180
0180
0000
0380
0180
0180
0180
0180
0180
0180
07E0
0000
0000
ENDCHAR
STARTCHAR U+ff4a
ENCODING 65354
SWIDTH 500 0
DWIDTH 16 0
BBX 16 13 0 0
BITMAP
0030
0030
0000
0070
0030
0030
0030
0030
0030
0C30
0C30
07E0
0000
ENDCHAR
STARTCHAR U+ff4b
ENCODING 65355
SWIDTH 500 0
DWIDTH 16 0
BBX 16 14 0 0
BITMAP
1C00
0C00
0C00
0C00
0C30
0C60
0CC0
0D80
0F80
0EC0
0C60
1C38
0000
0000
ENDCHAR
STARTCHAR U+ff4c
ENCODING 65356
SWIDTH 500 0
DWIDTH 16 0
BBX 16 14 0 0
BITMAP
0380
0180
0180
0180
0180
0180
0180
0180
0180
0180
0180
01C0
0000
0000
ENDCHAR
STARTCHAR U+ff4d
ENCODING 65357
SWIDTH 500 0
DWIDTH 16 0
BBX 16 11 0 0
BITMAP
3B70
1D98
1998
1998
1998
1998
1998
1998
1998
0000
0000
ENDCHAR
STARTCHAR U+ff4e
ENCODING 65358
SWIDTH 500 0
DWIDTH 16 0
BBX 16 11 0 0
BITMAP
3BE0
1C30
1830
1830
1830
1830
1830
1830
1830
0000
0000
ENDCHAR
STARTCHAR U+ff4f
ENCODING 65359
SWIDTH 500 0
DWIDTH 16 0
BBX 16 11 0 0
BITMAP
07E0
0C30
1818
1818
1818
1818
1818
0C30
07E0
0000
0000
ENDCHAR
STARTCHAR U+ff50
ENCODING 65360
SWIDTH 500 0
DWIDTH 16 0
BBX 16 11 0 0
BITMAP
37E0
1830
1830
1830
1830
1FE0
1800
1800
1800
3E00
0000
ENDCHAR
STARTCHAR U+ff51
ENCODING 65361
SWIDTH 500 0
DWIDTH 16 0
BBX 16 11 0 0
BITMAP
0FD8
1830
1830
1830
1830
0FF0
0030
0030
0030
00F8
0000
ENDCHAR
STARTCHAR U+ff52
ENCODING 65362
SWIDTH 500 0
DWIDTH 16 0
BBX 16 11 0 0
BITMAP
1BF0
0E18
0C18
0C00
0C00
0C00
0C00
0C00
1F80
0000
0000
ENDCHAR
STARTCHAR U+ff53
ENCODING 65363
SWIDTH 500 0
DWIDTH 16 0
BBX 16 11 0 0
BITMAP
0FE0
1830
1800
0E00
01E0
0030
0030
1830
0FE0
0000
0000
ENDCHAR
STARTCHAR U+ff54
ENCODING 65364
SWIDTH 500 0
DWIDTH 16 0
BBX 16 14 0 0
BITMAP
0100
0300
0300
0300
0FE0
0300
0300
0300
0300
0300
0318
01F0
0000
0000
ENDCHAR
STARTCHAR U+ff55
ENCODING 65365
SWIDTH 500 0
DWIDTH 16 0
BBX 16 11 0 0
BITMAP
1830
1830
1830
1830
1830
1830
1830
1830
0FD8
0000
0000
ENDCHAR
STARTCHAR U+ff56
ENCODING 65366
SWIDTH 500 0
DWIDTH 16 0
BBX 16 11 0 0
BITMAP
1830
1830
1830
1830
1830
0C60
06C0
0380
0100
0000
0000
ENDCHAR
STARTCHAR U+ff57
ENCODING 65367
SWIDTH 500 0
DWIDTH 16 0
BBX 16 11 0 0
BITMAP
1818
1818
1818
1818
1998
1998
1BD8
1E78
1C38
0000
0000
ENDCHAR
STARTCHAR U+ff58
ENCODING 65368
SWIDTH 500 0
DWIDTH 16 0
BBX 16 11 0 0
BITMAP
1818
0C30
0660
03C0
0180
03C0
0660
0C30
1818
0000
0000
ENDCHAR
STARTCHAR U+ff59
ENCODING 65369
SWIDTH 500 0
DWIDTH 16 0
BBX 16 11 0 0
BITMAP
1818
1818
0C30
0C30
0660
0660
03C0
2180
2180
1F00
0000
ENDCHAR
STARTCHAR U+ff5a
ENCODING 65370
SWIDTH 500 0
DWIDTH 16 0
BBX 16 11 0 0
BITMAP
1FF8
1830
0060
00C0
0180
0300
0600
0C18
1FF8
0000
0000
ENDCHAR
STARTCHAR U+ff5b
ENCODING 65371
SWIDTH 500 0
DWIDTH 16 0
BBX 16 15 0 0
BITMAP
000E
0018
0018
0018
0018
0018
0030
0018
0018
0018
0018
0018
0018
000E
0000
ENDCHAR
STARTCHAR U+ff5c
ENCODING 65372
SWIDTH 500 0
DWIDTH 16 0
BBX 16 15 0 0
BITMAP
0180
0180
0180
0180
0180
0180
0180
0180
0180
0180
0180
0180
0180
0180
0000
ENDCHAR
STARTCHAR U+ff5d
ENCODING 65373
SWIDTH 500 0
DWIDTH 8 0
BBX 8 15 0 0
BITMAP
7000
1800
1800
1800
1800
1800
0C00
1800
1800
1800
1800
1800
1800
7000
0000
ENDCHAR
STARTCHAR U+ffe3
ENCODING 65507
SWIDTH 500 0
DWIDTH 16 0
BBX 16 12 0 0
BITMAP
0FF0
0000
0000
0000
0000
0000
0000
0000
0000
0000
0000
0000
ENDCHAR
STARTCHAR U+ffa1
ENCODING 65441
SWIDTH 500 0
DWIDTH 16 0
BBX 16 13 0 0
BITMAP
0018
3FFC
1818
0018
0018
0018
0030
0030
0020
0000
0000
0000
0000
ENDCHAR
STARTCHAR U+ffa2
ENCODING 65442
SWIDTH 500 0
DWIDTH 16 0
BBX 16 12 0 0
BITMAP
0318
3FFC
1318
0318
0318
0318
0318
0210
0000
0000
0000
0000
ENDCHAR
STARTCHAR U+ffa3
ENCODING 65443
SWIDTH 500 0
DWIDTH 16 0
BBX 16 12 0 0
BITMAP
0660
7F30
2630
0660
0670
06D8
069C
050C
0000
0000
0000
0000
ENDCHAR
ENDFONT
